<svg width="30" height="29" viewBox="0 0 30 29" fill="none" xmlns="http://www.w3.org/2000/svg">
<path d="M-0.282959 22.152V7.84703C-0.282959 3.53111 3.24827 0 7.56432 0H21.8698C26.1858 0 29.717 3.53111 29.717 7.84703V22.152C29.717 26.4679 26.1858 29.9991 21.8698 29.9991H17.0613L14.5426 29.3856L12.3728 29.9991H7.56432C3.24827 29.9991 -0.282959 26.4679 -0.282959 22.152Z" fill="url(#paint0_linear_101_1301)"/>
<path d="M20.5566 19.8282L21.2214 15.4918H17.0613V12.6777C17.0613 11.4918 17.642 10.3356 19.5061 10.3356H21.3979V6.64448C21.3979 6.64448 19.6815 6.35107 18.0401 6.35107C14.6135 6.35107 12.3739 8.42748 12.3739 12.1874V15.4918H8.56567V19.8282H12.3739V29.9999H17.0613V19.8282H20.5566Z" fill="white"/>
<defs>
<linearGradient id="paint0_linear_101_1301" x1="27.4127" y1="2.30497" x2="2.02329" y2="27.6952" gradientUnits="userSpaceOnUse">
<stop stop-color="#4676ED"/>
<stop offset="0.1854" stop-color="#436DE4"/>
<stop offset="0.487" stop-color="#3C55CD"/>
<stop offset="0.8651" stop-color="#302EA8"/>
<stop offset="1" stop-color="#2B1E99"/>
</linearGradient>
</defs>
</svg>
