<svg width="242" height="218" viewBox="0 0 242 218" fill="none" xmlns="http://www.w3.org/2000/svg">
<path d="M0 108.998L60.5027 0L121.002 108.998H0Z" fill="#CB9584"/>
<path d="M181.502 0L121.002 108.998L60.5027 0H181.502Z" fill="#FF6E40"/>
<path d="M121.002 108.998L181.502 0L242 108.998H121.002Z" fill="#E45527"/>
<path d="M121.002 108.998L60.5027 218L0 108.998H121.002Z" fill="#00BFA5"/>
<path d="M60.5027 218L121.002 108.998L181.502 218H60.5027Z" fill="#6B9E97"/>
<path d="M242 108.998L181.502 218L121.002 108.998H242Z" fill="#355E58"/>
<path d="M44.5967 100.219V102.205H35.377L35.2539 100.667L40.5889 92.2031H42.6016L40.4219 95.8506L37.7676 100.219H44.5967ZM43.1465 92.2031V105H40.6152V92.2031H43.1465ZM46.1963 103.778C46.1963 103.403 46.3252 103.09 46.583 102.838C46.8467 102.586 47.1953 102.46 47.6289 102.46C48.0625 102.46 48.4082 102.586 48.666 102.838C48.9297 103.09 49.0615 103.403 49.0615 103.778C49.0615 104.153 48.9297 104.467 48.666 104.719C48.4082 104.971 48.0625 105.097 47.6289 105.097C47.1953 105.097 46.8467 104.971 46.583 104.719C46.3252 104.467 46.1963 104.153 46.1963 103.778ZM59.8633 105H57.0771L57.0947 102.943H59.8633C60.5547 102.943 61.1377 102.788 61.6123 102.478C62.0869 102.161 62.4443 101.701 62.6846 101.098C62.9307 100.494 63.0537 99.7646 63.0537 98.9092V98.2852C63.0537 97.6289 62.9834 97.0518 62.8428 96.5537C62.708 96.0557 62.5059 95.6367 62.2363 95.2969C61.9668 94.957 61.6357 94.7021 61.2432 94.5322C60.8506 94.3564 60.3994 94.2686 59.8896 94.2686H57.0244V92.2031H59.8896C60.7451 92.2031 61.5273 92.3496 62.2363 92.6426C62.9512 92.9297 63.5693 93.3428 64.0908 93.8818C64.6123 94.4209 65.0137 95.0654 65.2949 95.8154C65.582 96.5596 65.7256 97.3887 65.7256 98.3027V98.9092C65.7256 99.8174 65.582 100.646 65.2949 101.396C65.0137 102.146 64.6123 102.791 64.0908 103.33C63.5752 103.863 62.957 104.276 62.2363 104.569C61.5215 104.856 60.7305 105 59.8633 105ZM58.5713 92.2031V105H55.9346V92.2031H58.5713ZM70.1553 95.4902V105H67.6152V95.4902H70.1553ZM67.457 93.0117C67.457 92.6426 67.5859 92.3379 67.8438 92.0977C68.1016 91.8574 68.4473 91.7373 68.8809 91.7373C69.3086 91.7373 69.6514 91.8574 69.9092 92.0977C70.1729 92.3379 70.3047 92.6426 70.3047 93.0117C70.3047 93.3809 70.1729 93.6855 69.9092 93.9258C69.6514 94.166 69.3086 94.2861 68.8809 94.2861C68.4473 94.2861 68.1016 94.166 67.8438 93.9258C67.5859 93.6855 67.457 93.3809 67.457 93.0117ZM77.3887 102.372C77.3887 102.19 77.3359 102.026 77.2305 101.88C77.125 101.733 76.9287 101.599 76.6416 101.476C76.3604 101.347 75.9531 101.229 75.4199 101.124C74.9395 101.019 74.4912 100.887 74.0752 100.729C73.665 100.564 73.3076 100.368 73.0029 100.14C72.7041 99.9111 72.4697 99.6416 72.2998 99.3311C72.1299 99.0146 72.0449 98.6543 72.0449 98.25C72.0449 97.8516 72.1299 97.4766 72.2998 97.125C72.4756 96.7734 72.7246 96.4629 73.0469 96.1934C73.375 95.918 73.7734 95.7041 74.2422 95.5518C74.7168 95.3936 75.25 95.3145 75.8418 95.3145C76.668 95.3145 77.377 95.4463 77.9688 95.71C78.5664 95.9736 79.0234 96.3369 79.3398 96.7998C79.6621 97.2568 79.8232 97.7783 79.8232 98.3643H77.292C77.292 98.1182 77.2393 97.8984 77.1338 97.7051C77.0342 97.5059 76.876 97.3506 76.6592 97.2393C76.4482 97.1221 76.1729 97.0635 75.833 97.0635C75.5518 97.0635 75.3086 97.1133 75.1035 97.2129C74.8984 97.3066 74.7402 97.4355 74.6289 97.5996C74.5234 97.7578 74.4707 97.9336 74.4707 98.127C74.4707 98.2734 74.5 98.4053 74.5586 98.5225C74.623 98.6338 74.7256 98.7363 74.8662 98.8301C75.0068 98.9238 75.1885 99.0117 75.4111 99.0938C75.6396 99.1699 75.9209 99.2402 76.2549 99.3047C76.9404 99.4453 77.5527 99.6299 78.0918 99.8584C78.6309 100.081 79.0586 100.386 79.375 100.772C79.6914 101.153 79.8496 101.654 79.8496 102.275C79.8496 102.697 79.7559 103.084 79.5684 103.436C79.3809 103.787 79.1113 104.095 78.7598 104.358C78.4082 104.616 77.9863 104.818 77.4941 104.965C77.0078 105.105 76.46 105.176 75.8506 105.176C74.9658 105.176 74.2158 105.018 73.6006 104.701C72.9912 104.385 72.5283 103.983 72.2119 103.497C71.9014 103.005 71.7461 102.501 71.7461 101.985H74.1455C74.1572 102.331 74.2451 102.609 74.4092 102.82C74.5791 103.031 74.793 103.184 75.0508 103.277C75.3145 103.371 75.5986 103.418 75.9033 103.418C76.2314 103.418 76.5039 103.374 76.7207 103.286C76.9375 103.192 77.1016 103.069 77.2129 102.917C77.3301 102.759 77.3887 102.577 77.3887 102.372ZM84.7188 105H82.1699V94.6465C82.1699 93.9258 82.3105 93.3193 82.5918 92.8271C82.8789 92.3291 83.2803 91.9541 83.7959 91.7021C84.3174 91.4443 84.9355 91.3154 85.6504 91.3154C85.8848 91.3154 86.1104 91.333 86.3271 91.3682C86.5439 91.3975 86.7549 91.4355 86.96 91.4824L86.9336 93.3896C86.8223 93.3604 86.7051 93.3398 86.582 93.3281C86.459 93.3164 86.3154 93.3105 86.1514 93.3105C85.8467 93.3105 85.5859 93.3633 85.3691 93.4688C85.1582 93.5684 84.9971 93.7178 84.8857 93.917C84.7744 94.1162 84.7188 94.3594 84.7188 94.6465V105ZM86.6172 95.4902V97.2832H80.7549V95.4902H86.6172ZM90.4756 97.5645V105H87.9443V95.4902H90.3262L90.4756 97.5645ZM93.3408 95.4287L93.2969 97.7754C93.1738 97.7578 93.0244 97.7432 92.8486 97.7314C92.6787 97.7139 92.5234 97.7051 92.3828 97.7051C92.0254 97.7051 91.7148 97.752 91.4512 97.8457C91.1934 97.9336 90.9766 98.0654 90.8008 98.2412C90.6309 98.417 90.502 98.6309 90.4141 98.8828C90.332 99.1348 90.2852 99.4219 90.2734 99.7441L89.7637 99.5859C89.7637 98.9707 89.8252 98.4053 89.9482 97.8896C90.0713 97.3682 90.25 96.9141 90.4844 96.5273C90.7246 96.1406 91.0176 95.8418 91.3633 95.6309C91.709 95.4199 92.1045 95.3145 92.5498 95.3145C92.6904 95.3145 92.834 95.3262 92.9805 95.3496C93.127 95.3672 93.2471 95.3936 93.3408 95.4287ZM100.161 102.724V95.4902H102.692V105H100.311L100.161 102.724ZM100.442 100.772L101.189 100.755C101.189 101.388 101.116 101.977 100.97 102.521C100.823 103.061 100.604 103.529 100.311 103.928C100.018 104.32 99.6484 104.628 99.2031 104.851C98.7578 105.067 98.2334 105.176 97.6299 105.176C97.167 105.176 96.7393 105.111 96.3467 104.982C95.96 104.848 95.626 104.64 95.3447 104.358C95.0693 104.071 94.8525 103.705 94.6943 103.26C94.542 102.809 94.4658 102.267 94.4658 101.634V95.4902H96.9971V101.651C96.9971 101.933 97.0293 102.17 97.0938 102.363C97.1641 102.557 97.2607 102.715 97.3838 102.838C97.5068 102.961 97.6504 103.049 97.8145 103.102C97.9844 103.154 98.1719 103.181 98.377 103.181C98.8984 103.181 99.3086 103.075 99.6074 102.864C99.9121 102.653 100.126 102.366 100.249 102.003C100.378 101.634 100.442 101.224 100.442 100.772ZM109.284 95.4902V97.2832H103.747V95.4902H109.284ZM105.118 93.1436H107.649V102.135C107.649 102.41 107.685 102.621 107.755 102.768C107.831 102.914 107.942 103.017 108.089 103.075C108.235 103.128 108.42 103.154 108.643 103.154C108.801 103.154 108.941 103.148 109.064 103.137C109.193 103.119 109.302 103.102 109.39 103.084L109.398 104.947C109.182 105.018 108.947 105.073 108.695 105.114C108.443 105.155 108.165 105.176 107.86 105.176C107.304 105.176 106.817 105.085 106.401 104.903C105.991 104.716 105.675 104.417 105.452 104.007C105.229 103.597 105.118 103.058 105.118 102.39V93.1436ZM115.858 102.855V98.6191C115.858 98.3145 115.809 98.0537 115.709 97.8369C115.609 97.6143 115.454 97.4414 115.243 97.3184C115.038 97.1953 114.771 97.1338 114.443 97.1338C114.162 97.1338 113.919 97.1836 113.714 97.2832C113.509 97.377 113.351 97.5146 113.239 97.6963C113.128 97.8721 113.072 98.0801 113.072 98.3203H110.541C110.541 97.916 110.635 97.5322 110.822 97.1689C111.01 96.8057 111.282 96.4863 111.64 96.2109C111.997 95.9297 112.422 95.71 112.914 95.5518C113.412 95.3936 113.969 95.3145 114.584 95.3145C115.322 95.3145 115.979 95.4375 116.553 95.6836C117.127 95.9297 117.578 96.2988 117.906 96.791C118.24 97.2832 118.407 97.8984 118.407 98.6367V102.706C118.407 103.228 118.439 103.655 118.504 103.989C118.568 104.317 118.662 104.604 118.785 104.851V105H116.228C116.104 104.742 116.011 104.42 115.946 104.033C115.888 103.641 115.858 103.248 115.858 102.855ZM116.192 99.208L116.21 100.641H114.795C114.461 100.641 114.171 100.679 113.925 100.755C113.679 100.831 113.477 100.939 113.318 101.08C113.16 101.215 113.043 101.373 112.967 101.555C112.896 101.736 112.861 101.936 112.861 102.152C112.861 102.369 112.911 102.565 113.011 102.741C113.11 102.911 113.254 103.046 113.441 103.146C113.629 103.239 113.849 103.286 114.101 103.286C114.481 103.286 114.812 103.21 115.094 103.058C115.375 102.905 115.592 102.718 115.744 102.495C115.902 102.272 115.984 102.062 115.99 101.862L116.658 102.935C116.564 103.175 116.436 103.424 116.271 103.682C116.113 103.939 115.911 104.183 115.665 104.411C115.419 104.634 115.123 104.818 114.777 104.965C114.432 105.105 114.021 105.176 113.547 105.176C112.943 105.176 112.396 105.056 111.903 104.815C111.417 104.569 111.03 104.232 110.743 103.805C110.462 103.371 110.321 102.879 110.321 102.328C110.321 101.83 110.415 101.388 110.603 101.001C110.79 100.614 111.065 100.289 111.429 100.025C111.798 99.7559 112.258 99.5537 112.809 99.4189C113.359 99.2783 113.998 99.208 114.725 99.208H116.192ZM129.499 95.4902V97.2832H123.962V95.4902H129.499ZM125.333 93.1436H127.864V102.135C127.864 102.41 127.899 102.621 127.97 102.768C128.046 102.914 128.157 103.017 128.304 103.075C128.45 103.128 128.635 103.154 128.857 103.154C129.016 103.154 129.156 103.148 129.279 103.137C129.408 103.119 129.517 103.102 129.604 103.084L129.613 104.947C129.396 105.018 129.162 105.073 128.91 105.114C128.658 105.155 128.38 105.176 128.075 105.176C127.519 105.176 127.032 105.085 126.616 104.903C126.206 104.716 125.89 104.417 125.667 104.007C125.444 103.597 125.333 103.058 125.333 102.39V93.1436ZM136.565 102.724V95.4902H139.097V105H136.715L136.565 102.724ZM136.847 100.772L137.594 100.755C137.594 101.388 137.521 101.977 137.374 102.521C137.228 103.061 137.008 103.529 136.715 103.928C136.422 104.32 136.053 104.628 135.607 104.851C135.162 105.067 134.638 105.176 134.034 105.176C133.571 105.176 133.144 105.111 132.751 104.982C132.364 104.848 132.03 104.64 131.749 104.358C131.474 104.071 131.257 103.705 131.099 103.26C130.946 102.809 130.87 102.267 130.87 101.634V95.4902H133.401V101.651C133.401 101.933 133.434 102.17 133.498 102.363C133.568 102.557 133.665 102.715 133.788 102.838C133.911 102.961 134.055 103.049 134.219 103.102C134.389 103.154 134.576 103.181 134.781 103.181C135.303 103.181 135.713 103.075 136.012 102.864C136.316 102.653 136.53 102.366 136.653 102.003C136.782 101.634 136.847 101.224 136.847 100.772ZM148.044 97.3184V108.656H145.513V95.4902H147.859L148.044 97.3184ZM154.064 100.14V100.324C154.064 101.016 153.982 101.657 153.818 102.249C153.66 102.841 153.426 103.356 153.115 103.796C152.805 104.229 152.418 104.569 151.955 104.815C151.498 105.056 150.971 105.176 150.373 105.176C149.793 105.176 149.289 105.059 148.861 104.824C148.434 104.59 148.073 104.262 147.78 103.84C147.493 103.412 147.262 102.917 147.086 102.354C146.91 101.792 146.775 101.188 146.682 100.544V100.061C146.775 99.3691 146.91 98.7363 147.086 98.1621C147.262 97.582 147.493 97.0811 147.78 96.6592C148.073 96.2314 148.431 95.9004 148.853 95.666C149.28 95.4316 149.781 95.3145 150.355 95.3145C150.959 95.3145 151.489 95.4287 151.946 95.6572C152.409 95.8857 152.796 96.2139 153.106 96.6416C153.423 97.0693 153.66 97.5791 153.818 98.1709C153.982 98.7627 154.064 99.4189 154.064 100.14ZM151.524 100.324V100.14C151.524 99.7354 151.489 99.3633 151.419 99.0234C151.354 98.6777 151.249 98.376 151.103 98.1182C150.962 97.8604 150.774 97.6611 150.54 97.5205C150.312 97.374 150.033 97.3008 149.705 97.3008C149.359 97.3008 149.063 97.3564 148.817 97.4678C148.577 97.5791 148.381 97.7402 148.229 97.9512C148.076 98.1621 147.962 98.4141 147.886 98.707C147.81 99 147.763 99.3311 147.745 99.7002V100.922C147.774 101.355 147.856 101.745 147.991 102.091C148.126 102.431 148.334 102.7 148.615 102.899C148.896 103.099 149.266 103.198 149.723 103.198C150.057 103.198 150.338 103.125 150.566 102.979C150.795 102.826 150.979 102.618 151.12 102.354C151.267 102.091 151.369 101.786 151.428 101.44C151.492 101.095 151.524 100.723 151.524 100.324ZM158.169 97.5645V105H155.638V95.4902H158.02L158.169 97.5645ZM161.034 95.4287L160.99 97.7754C160.867 97.7578 160.718 97.7432 160.542 97.7314C160.372 97.7139 160.217 97.7051 160.076 97.7051C159.719 97.7051 159.408 97.752 159.145 97.8457C158.887 97.9336 158.67 98.0654 158.494 98.2412C158.324 98.417 158.195 98.6309 158.107 98.8828C158.025 99.1348 157.979 99.4219 157.967 99.7441L157.457 99.5859C157.457 98.9707 157.519 98.4053 157.642 97.8896C157.765 97.3682 157.943 96.9141 158.178 96.5273C158.418 96.1406 158.711 95.8418 159.057 95.6309C159.402 95.4199 159.798 95.3145 160.243 95.3145C160.384 95.3145 160.527 95.3262 160.674 95.3496C160.82 95.3672 160.94 95.3936 161.034 95.4287ZM164.901 95.4902V105H162.361V95.4902H164.901ZM162.203 93.0117C162.203 92.6426 162.332 92.3379 162.59 92.0977C162.848 91.8574 163.193 91.7373 163.627 91.7373C164.055 91.7373 164.397 91.8574 164.655 92.0977C164.919 92.3379 165.051 92.6426 165.051 93.0117C165.051 93.3809 164.919 93.6855 164.655 93.9258C164.397 94.166 164.055 94.2861 163.627 94.2861C163.193 94.2861 162.848 94.166 162.59 93.9258C162.332 93.6855 162.203 93.3809 162.203 93.0117ZM169.524 97.459V105H166.984V95.4902H169.366L169.524 97.459ZM169.173 99.9111H168.47C168.47 99.249 168.549 98.6396 168.707 98.083C168.871 97.5205 169.108 97.0342 169.419 96.624C169.735 96.208 170.125 95.8857 170.588 95.6572C171.051 95.4287 171.587 95.3145 172.196 95.3145C172.618 95.3145 173.005 95.3789 173.356 95.5078C173.708 95.6309 174.01 95.8271 174.262 96.0967C174.52 96.3604 174.719 96.7061 174.859 97.1338C175 97.5557 175.07 98.0625 175.07 98.6543V105H172.539V98.9355C172.539 98.502 172.48 98.168 172.363 97.9336C172.246 97.6992 172.079 97.5352 171.862 97.4414C171.651 97.3477 171.396 97.3008 171.098 97.3008C170.77 97.3008 170.482 97.3682 170.236 97.5029C169.996 97.6377 169.797 97.8252 169.639 98.0654C169.48 98.2998 169.363 98.5752 169.287 98.8916C169.211 99.208 169.173 99.5479 169.173 99.9111ZM174.833 99.6211L173.928 99.7354C173.928 99.1143 174.004 98.5371 174.156 98.0039C174.314 97.4707 174.546 97.002 174.851 96.5977C175.161 96.1934 175.545 95.8799 176.002 95.6572C176.459 95.4287 176.986 95.3145 177.584 95.3145C178.041 95.3145 178.457 95.3818 178.832 95.5166C179.207 95.6455 179.526 95.8535 179.79 96.1406C180.06 96.4219 180.265 96.791 180.405 97.248C180.552 97.7051 180.625 98.2646 180.625 98.9268V105H178.085V98.9268C178.085 98.4873 178.026 98.1533 177.909 97.9248C177.798 97.6904 177.634 97.5293 177.417 97.4414C177.206 97.3477 176.954 97.3008 176.661 97.3008C176.356 97.3008 176.09 97.3623 175.861 97.4854C175.633 97.6025 175.442 97.7666 175.29 97.9775C175.138 98.1885 175.023 98.4346 174.947 98.7158C174.871 98.9912 174.833 99.293 174.833 99.6211ZM186.962 105.176C186.224 105.176 185.562 105.059 184.976 104.824C184.39 104.584 183.892 104.253 183.481 103.831C183.077 103.409 182.767 102.92 182.55 102.363C182.333 101.801 182.225 101.203 182.225 100.57V100.219C182.225 99.498 182.327 98.8389 182.532 98.2412C182.737 97.6436 183.03 97.125 183.411 96.6855C183.798 96.2461 184.267 95.9092 184.817 95.6748C185.368 95.4346 185.989 95.3145 186.681 95.3145C187.354 95.3145 187.952 95.4258 188.474 95.6484C188.995 95.8711 189.432 96.1875 189.783 96.5977C190.141 97.0078 190.41 97.5 190.592 98.0742C190.773 98.6426 190.864 99.2754 190.864 99.9727V101.027H183.306V99.3398H188.377V99.1465C188.377 98.7949 188.312 98.4814 188.184 98.2061C188.061 97.9248 187.873 97.7021 187.621 97.5381C187.369 97.374 187.047 97.292 186.654 97.292C186.32 97.292 186.033 97.3652 185.793 97.5117C185.553 97.6582 185.356 97.8633 185.204 98.127C185.058 98.3906 184.946 98.7012 184.87 99.0586C184.8 99.4102 184.765 99.7969 184.765 100.219V100.57C184.765 100.951 184.817 101.303 184.923 101.625C185.034 101.947 185.189 102.226 185.389 102.46C185.594 102.694 185.84 102.876 186.127 103.005C186.42 103.134 186.751 103.198 187.12 103.198C187.577 103.198 188.002 103.11 188.395 102.935C188.793 102.753 189.136 102.48 189.423 102.117L190.653 103.453C190.454 103.74 190.182 104.016 189.836 104.279C189.496 104.543 189.086 104.76 188.605 104.93C188.125 105.094 187.577 105.176 186.962 105.176ZM194.837 97.5645V105H192.306V95.4902H194.688L194.837 97.5645ZM197.702 95.4287L197.658 97.7754C197.535 97.7578 197.386 97.7432 197.21 97.7314C197.04 97.7139 196.885 97.7051 196.744 97.7051C196.387 97.7051 196.076 97.752 195.812 97.8457C195.555 97.9336 195.338 98.0654 195.162 98.2412C194.992 98.417 194.863 98.6309 194.775 98.8828C194.693 99.1348 194.646 99.4219 194.635 99.7441L194.125 99.5859C194.125 98.9707 194.187 98.4053 194.31 97.8896C194.433 97.3682 194.611 96.9141 194.846 96.5273C195.086 96.1406 195.379 95.8418 195.725 95.6309C196.07 95.4199 196.466 95.3145 196.911 95.3145C197.052 95.3145 197.195 95.3262 197.342 95.3496C197.488 95.3672 197.608 95.3936 197.702 95.4287ZM203.731 102.855V98.6191C203.731 98.3145 203.682 98.0537 203.582 97.8369C203.482 97.6143 203.327 97.4414 203.116 97.3184C202.911 97.1953 202.645 97.1338 202.316 97.1338C202.035 97.1338 201.792 97.1836 201.587 97.2832C201.382 97.377 201.224 97.5146 201.112 97.6963C201.001 97.8721 200.945 98.0801 200.945 98.3203H198.414C198.414 97.916 198.508 97.5322 198.695 97.1689C198.883 96.8057 199.155 96.4863 199.513 96.2109C199.87 95.9297 200.295 95.71 200.787 95.5518C201.285 95.3936 201.842 95.3145 202.457 95.3145C203.195 95.3145 203.852 95.4375 204.426 95.6836C205 95.9297 205.451 96.2988 205.779 96.791C206.113 97.2832 206.28 97.8984 206.28 98.6367V102.706C206.28 103.228 206.312 103.655 206.377 103.989C206.441 104.317 206.535 104.604 206.658 104.851V105H204.101C203.978 104.742 203.884 104.42 203.819 104.033C203.761 103.641 203.731 103.248 203.731 102.855ZM204.065 99.208L204.083 100.641H202.668C202.334 100.641 202.044 100.679 201.798 100.755C201.552 100.831 201.35 100.939 201.191 101.08C201.033 101.215 200.916 101.373 200.84 101.555C200.77 101.736 200.734 101.936 200.734 102.152C200.734 102.369 200.784 102.565 200.884 102.741C200.983 102.911 201.127 103.046 201.314 103.146C201.502 103.239 201.722 103.286 201.974 103.286C202.354 103.286 202.686 103.21 202.967 103.058C203.248 102.905 203.465 102.718 203.617 102.495C203.775 102.272 203.857 102.062 203.863 101.862L204.531 102.935C204.438 103.175 204.309 103.424 204.145 103.682C203.986 103.939 203.784 104.183 203.538 104.411C203.292 104.634 202.996 104.818 202.65 104.965C202.305 105.105 201.895 105.176 201.42 105.176C200.816 105.176 200.269 105.056 199.776 104.815C199.29 104.569 198.903 104.232 198.616 103.805C198.335 103.371 198.194 102.879 198.194 102.328C198.194 101.83 198.288 101.388 198.476 101.001C198.663 100.614 198.938 100.289 199.302 100.025C199.671 99.7559 200.131 99.5537 200.682 99.4189C201.232 99.2783 201.871 99.208 202.598 99.208H204.065ZM71.1309 124.198C71.4414 124.198 71.7168 124.14 71.957 124.022C72.1973 123.899 72.3848 123.729 72.5195 123.513C72.6602 123.29 72.7334 123.029 72.7393 122.73H75.1211C75.1152 123.398 74.9365 123.993 74.585 124.515C74.2334 125.03 73.7617 125.438 73.1699 125.736C72.5781 126.029 71.916 126.176 71.1836 126.176C70.4453 126.176 69.8008 126.053 69.25 125.807C68.7051 125.561 68.251 125.221 67.8877 124.787C67.5244 124.348 67.252 123.838 67.0703 123.258C66.8887 122.672 66.7979 122.045 66.7979 121.377V121.122C66.7979 120.448 66.8887 119.821 67.0703 119.241C67.252 118.655 67.5244 118.146 67.8877 117.712C68.251 117.272 68.7051 116.93 69.25 116.684C69.7949 116.438 70.4336 116.314 71.166 116.314C71.9453 116.314 72.6279 116.464 73.2139 116.763C73.8057 117.062 74.2686 117.489 74.6025 118.046C74.9424 118.597 75.1152 119.25 75.1211 120.006H72.7393C72.7334 119.689 72.666 119.402 72.5371 119.145C72.4141 118.887 72.2324 118.682 71.9922 118.529C71.7578 118.371 71.4678 118.292 71.1221 118.292C70.7529 118.292 70.4512 118.371 70.2168 118.529C69.9824 118.682 69.8008 118.893 69.6719 119.162C69.543 119.426 69.4521 119.728 69.3994 120.067C69.3525 120.401 69.3291 120.753 69.3291 121.122V121.377C69.3291 121.746 69.3525 122.101 69.3994 122.44C69.4463 122.78 69.5342 123.082 69.6631 123.346C69.7979 123.609 69.9824 123.817 70.2168 123.97C70.4512 124.122 70.7559 124.198 71.1309 124.198ZM79.2607 112.5V126H76.7207V112.5H79.2607ZM86.4854 123.855V119.619C86.4854 119.314 86.4355 119.054 86.3359 118.837C86.2363 118.614 86.0811 118.441 85.8701 118.318C85.665 118.195 85.3984 118.134 85.0703 118.134C84.7891 118.134 84.5459 118.184 84.3408 118.283C84.1357 118.377 83.9775 118.515 83.8662 118.696C83.7549 118.872 83.6992 119.08 83.6992 119.32H81.168C81.168 118.916 81.2617 118.532 81.4492 118.169C81.6367 117.806 81.9092 117.486 82.2666 117.211C82.624 116.93 83.0488 116.71 83.541 116.552C84.0391 116.394 84.5957 116.314 85.2109 116.314C85.9492 116.314 86.6055 116.438 87.1797 116.684C87.7539 116.93 88.2051 117.299 88.5332 117.791C88.8672 118.283 89.0342 118.898 89.0342 119.637V123.706C89.0342 124.228 89.0664 124.655 89.1309 124.989C89.1953 125.317 89.2891 125.604 89.4121 125.851V126H86.8545C86.7314 125.742 86.6377 125.42 86.5732 125.033C86.5146 124.641 86.4854 124.248 86.4854 123.855ZM86.8193 120.208L86.8369 121.641H85.4219C85.0879 121.641 84.7979 121.679 84.5518 121.755C84.3057 121.831 84.1035 121.939 83.9453 122.08C83.7871 122.215 83.6699 122.373 83.5938 122.555C83.5234 122.736 83.4883 122.936 83.4883 123.152C83.4883 123.369 83.5381 123.565 83.6377 123.741C83.7373 123.911 83.8809 124.046 84.0684 124.146C84.2559 124.239 84.4756 124.286 84.7275 124.286C85.1084 124.286 85.4395 124.21 85.7207 124.058C86.002 123.905 86.2188 123.718 86.3711 123.495C86.5293 123.272 86.6113 123.062 86.6172 122.862L87.2852 123.935C87.1914 124.175 87.0625 124.424 86.8984 124.682C86.7402 124.939 86.5381 125.183 86.292 125.411C86.0459 125.634 85.75 125.818 85.4043 125.965C85.0586 126.105 84.6484 126.176 84.1738 126.176C83.5703 126.176 83.0225 126.056 82.5303 125.815C82.0439 125.569 81.6572 125.232 81.3701 124.805C81.0889 124.371 80.9482 123.879 80.9482 123.328C80.9482 122.83 81.042 122.388 81.2295 122.001C81.417 121.614 81.6924 121.289 82.0557 121.025C82.4248 120.756 82.8848 120.554 83.4355 120.419C83.9863 120.278 84.625 120.208 85.3516 120.208H86.8193ZM96.127 123.372C96.127 123.19 96.0742 123.026 95.9688 122.88C95.8633 122.733 95.667 122.599 95.3799 122.476C95.0986 122.347 94.6914 122.229 94.1582 122.124C93.6777 122.019 93.2295 121.887 92.8135 121.729C92.4033 121.564 92.0459 121.368 91.7412 121.14C91.4424 120.911 91.208 120.642 91.0381 120.331C90.8682 120.015 90.7832 119.654 90.7832 119.25C90.7832 118.852 90.8682 118.477 91.0381 118.125C91.2139 117.773 91.4629 117.463 91.7852 117.193C92.1133 116.918 92.5117 116.704 92.9805 116.552C93.4551 116.394 93.9883 116.314 94.5801 116.314C95.4062 116.314 96.1152 116.446 96.707 116.71C97.3047 116.974 97.7617 117.337 98.0781 117.8C98.4004 118.257 98.5615 118.778 98.5615 119.364H96.0303C96.0303 119.118 95.9775 118.898 95.8721 118.705C95.7725 118.506 95.6143 118.351 95.3975 118.239C95.1865 118.122 94.9111 118.063 94.5713 118.063C94.29 118.063 94.0469 118.113 93.8418 118.213C93.6367 118.307 93.4785 118.436 93.3672 118.6C93.2617 118.758 93.209 118.934 93.209 119.127C93.209 119.273 93.2383 119.405 93.2969 119.522C93.3613 119.634 93.4639 119.736 93.6045 119.83C93.7451 119.924 93.9268 120.012 94.1494 120.094C94.3779 120.17 94.6592 120.24 94.9932 120.305C95.6787 120.445 96.291 120.63 96.8301 120.858C97.3691 121.081 97.7969 121.386 98.1133 121.772C98.4297 122.153 98.5879 122.654 98.5879 123.275C98.5879 123.697 98.4941 124.084 98.3066 124.436C98.1191 124.787 97.8496 125.095 97.498 125.358C97.1465 125.616 96.7246 125.818 96.2324 125.965C95.7461 126.105 95.1982 126.176 94.5889 126.176C93.7041 126.176 92.9541 126.018 92.3389 125.701C91.7295 125.385 91.2666 124.983 90.9502 124.497C90.6396 124.005 90.4844 123.501 90.4844 122.985H92.8838C92.8955 123.331 92.9834 123.609 93.1475 123.82C93.3174 124.031 93.5312 124.184 93.7891 124.277C94.0527 124.371 94.3369 124.418 94.6416 124.418C94.9697 124.418 95.2422 124.374 95.459 124.286C95.6758 124.192 95.8398 124.069 95.9512 123.917C96.0684 123.759 96.127 123.577 96.127 123.372ZM104.608 126.176C103.87 126.176 103.208 126.059 102.622 125.824C102.036 125.584 101.538 125.253 101.128 124.831C100.724 124.409 100.413 123.92 100.196 123.363C99.9795 122.801 99.8711 122.203 99.8711 121.57V121.219C99.8711 120.498 99.9736 119.839 100.179 119.241C100.384 118.644 100.677 118.125 101.058 117.686C101.444 117.246 101.913 116.909 102.464 116.675C103.015 116.435 103.636 116.314 104.327 116.314C105.001 116.314 105.599 116.426 106.12 116.648C106.642 116.871 107.078 117.188 107.43 117.598C107.787 118.008 108.057 118.5 108.238 119.074C108.42 119.643 108.511 120.275 108.511 120.973V122.027H100.952V120.34H106.023V120.146C106.023 119.795 105.959 119.481 105.83 119.206C105.707 118.925 105.52 118.702 105.268 118.538C105.016 118.374 104.693 118.292 104.301 118.292C103.967 118.292 103.68 118.365 103.439 118.512C103.199 118.658 103.003 118.863 102.851 119.127C102.704 119.391 102.593 119.701 102.517 120.059C102.446 120.41 102.411 120.797 102.411 121.219V121.57C102.411 121.951 102.464 122.303 102.569 122.625C102.681 122.947 102.836 123.226 103.035 123.46C103.24 123.694 103.486 123.876 103.773 124.005C104.066 124.134 104.397 124.198 104.767 124.198C105.224 124.198 105.648 124.11 106.041 123.935C106.439 123.753 106.782 123.48 107.069 123.117L108.3 124.453C108.101 124.74 107.828 125.016 107.482 125.279C107.143 125.543 106.732 125.76 106.252 125.93C105.771 126.094 105.224 126.176 104.608 126.176ZM124.735 119.312V124.383C124.536 124.623 124.229 124.884 123.812 125.165C123.396 125.44 122.86 125.678 122.204 125.877C121.548 126.076 120.754 126.176 119.822 126.176C118.996 126.176 118.243 126.041 117.563 125.771C116.884 125.496 116.298 125.095 115.806 124.567C115.319 124.04 114.944 123.396 114.681 122.634C114.417 121.866 114.285 120.99 114.285 120.006V119.206C114.285 118.222 114.411 117.346 114.663 116.578C114.921 115.811 115.287 115.163 115.762 114.636C116.236 114.108 116.802 113.707 117.458 113.432C118.114 113.156 118.844 113.019 119.646 113.019C120.76 113.019 121.674 113.2 122.389 113.563C123.104 113.921 123.648 114.419 124.023 115.058C124.404 115.69 124.639 116.417 124.727 117.237H122.169C122.104 116.804 121.981 116.426 121.8 116.104C121.618 115.781 121.357 115.529 121.018 115.348C120.684 115.166 120.25 115.075 119.717 115.075C119.277 115.075 118.885 115.166 118.539 115.348C118.199 115.523 117.912 115.784 117.678 116.13C117.443 116.476 117.265 116.903 117.142 117.413C117.019 117.923 116.957 118.515 116.957 119.188V120.006C116.957 120.674 117.021 121.266 117.15 121.781C117.279 122.291 117.47 122.722 117.722 123.073C117.979 123.419 118.296 123.68 118.671 123.855C119.046 124.031 119.482 124.119 119.98 124.119C120.396 124.119 120.742 124.084 121.018 124.014C121.299 123.943 121.524 123.858 121.694 123.759C121.87 123.653 122.005 123.554 122.099 123.46V121.192H119.69V119.312H124.735ZM126.862 113.203H131.635C132.613 113.203 133.454 113.35 134.157 113.643C134.866 113.936 135.411 114.369 135.792 114.943C136.173 115.518 136.363 116.224 136.363 117.062C136.363 117.747 136.246 118.336 136.012 118.828C135.783 119.314 135.458 119.722 135.036 120.05C134.62 120.372 134.131 120.63 133.568 120.823L132.733 121.263H128.585L128.567 119.206H131.652C132.115 119.206 132.499 119.124 132.804 118.96C133.108 118.796 133.337 118.567 133.489 118.274C133.647 117.981 133.727 117.642 133.727 117.255C133.727 116.845 133.65 116.49 133.498 116.191C133.346 115.893 133.114 115.664 132.804 115.506C132.493 115.348 132.104 115.269 131.635 115.269H129.499V126H126.862V113.203ZM134.017 126L131.099 120.296L133.885 120.278L136.838 125.877V126H134.017ZM143.597 115.392L140.116 126H137.312L142.067 113.203H143.852L143.597 115.392ZM146.488 126L142.999 115.392L142.718 113.203H144.52L149.301 126H146.488ZM146.33 121.236V123.302H139.571V121.236H146.33ZM155.119 113.203V126H152.491V113.203H155.119ZM159.057 113.203V115.269H148.615V113.203H159.057ZM163.363 113.203V126H160.735V113.203H163.363ZM172.495 122.651C172.495 122.423 172.46 122.218 172.39 122.036C172.325 121.849 172.202 121.679 172.021 121.526C171.839 121.368 171.584 121.213 171.256 121.061C170.928 120.908 170.503 120.75 169.981 120.586C169.401 120.398 168.851 120.188 168.329 119.953C167.813 119.719 167.356 119.446 166.958 119.136C166.565 118.819 166.255 118.453 166.026 118.037C165.804 117.621 165.692 117.138 165.692 116.587C165.692 116.054 165.81 115.57 166.044 115.137C166.278 114.697 166.606 114.322 167.028 114.012C167.45 113.695 167.948 113.452 168.522 113.282C169.103 113.112 169.738 113.027 170.43 113.027C171.373 113.027 172.196 113.197 172.899 113.537C173.603 113.877 174.147 114.343 174.534 114.935C174.927 115.526 175.123 116.203 175.123 116.965H172.504C172.504 116.59 172.425 116.262 172.267 115.98C172.114 115.693 171.88 115.468 171.563 115.304C171.253 115.14 170.86 115.058 170.386 115.058C169.929 115.058 169.548 115.128 169.243 115.269C168.938 115.403 168.71 115.588 168.558 115.822C168.405 116.051 168.329 116.309 168.329 116.596C168.329 116.812 168.382 117.009 168.487 117.185C168.599 117.36 168.763 117.524 168.979 117.677C169.196 117.829 169.463 117.973 169.779 118.107C170.096 118.242 170.462 118.374 170.878 118.503C171.575 118.714 172.188 118.951 172.715 119.215C173.248 119.479 173.693 119.774 174.051 120.103C174.408 120.431 174.678 120.803 174.859 121.219C175.041 121.635 175.132 122.106 175.132 122.634C175.132 123.19 175.023 123.688 174.807 124.128C174.59 124.567 174.276 124.939 173.866 125.244C173.456 125.549 172.967 125.78 172.398 125.938C171.83 126.097 171.194 126.176 170.491 126.176C169.858 126.176 169.234 126.094 168.619 125.93C168.004 125.76 167.444 125.505 166.94 125.165C166.442 124.825 166.044 124.392 165.745 123.864C165.446 123.337 165.297 122.713 165.297 121.992H167.942C167.942 122.391 168.004 122.728 168.127 123.003C168.25 123.278 168.423 123.501 168.646 123.671C168.874 123.841 169.144 123.964 169.454 124.04C169.771 124.116 170.116 124.154 170.491 124.154C170.948 124.154 171.323 124.09 171.616 123.961C171.915 123.832 172.135 123.653 172.275 123.425C172.422 123.196 172.495 122.938 172.495 122.651Z" fill="white"/>
</svg>
