<svg width="242" height="218" viewBox="0 0 242 218" fill="none" xmlns="http://www.w3.org/2000/svg">
<path d="M0 109.002L60.5 0L120.997 109.002H0Z" fill="#CB9584"/>
<path d="M181.5 0L120.997 109.002L60.5 0H181.5Z" fill="#FF6E40"/>
<path d="M120.997 109.002L181.5 0L242 109.002H120.997Z" fill="#457670"/>
<path d="M120.997 109.001L60.5 218L0 109.001H120.997Z" fill="#00BFA5"/>
<path d="M60.5 218L120.997 109.001L181.5 218H60.5Z" fill="#6B9E97"/>
<path d="M242 109.001L181.5 218L120.997 109.001H242Z" fill="#355E58"/>
<path d="M71.3242 87.5029H72.6777C73.1113 87.5029 73.4688 87.4297 73.75 87.2832C74.0312 87.1309 74.2393 86.9199 74.374 86.6504C74.5146 86.375 74.585 86.0557 74.585 85.6924C74.585 85.3643 74.5205 85.0742 74.3916 84.8223C74.2686 84.5645 74.0781 84.3652 73.8203 84.2246C73.5625 84.0781 73.2373 84.0049 72.8447 84.0049C72.5342 84.0049 72.2471 84.0664 71.9834 84.1895C71.7197 84.3125 71.5088 84.4854 71.3506 84.708C71.1924 84.9307 71.1133 85.2002 71.1133 85.5166H68.5732C68.5732 84.8135 68.7607 84.2012 69.1357 83.6797C69.5166 83.1582 70.0264 82.751 70.665 82.458C71.3037 82.165 72.0068 82.0186 72.7744 82.0186C73.6416 82.0186 74.4004 82.1592 75.0508 82.4404C75.7012 82.7158 76.208 83.123 76.5713 83.6621C76.9346 84.2012 77.1162 84.8691 77.1162 85.666C77.1162 86.0703 77.0225 86.4629 76.835 86.8438C76.6475 87.2188 76.3779 87.5586 76.0264 87.8633C75.6807 88.1621 75.2588 88.4023 74.7607 88.584C74.2627 88.7598 73.7031 88.8477 73.082 88.8477H71.3242V87.5029ZM71.3242 89.4277V88.1182H73.082C73.7793 88.1182 74.3916 88.1973 74.9189 88.3555C75.4463 88.5137 75.8887 88.7422 76.2461 89.041C76.6035 89.334 76.873 89.6826 77.0547 90.0869C77.2363 90.4854 77.3271 90.9277 77.3271 91.4141C77.3271 92.0117 77.2129 92.5449 76.9844 93.0137C76.7559 93.4766 76.4336 93.8691 76.0176 94.1914C75.6074 94.5137 75.127 94.7598 74.5762 94.9297C74.0254 95.0938 73.4248 95.1758 72.7744 95.1758C72.2354 95.1758 71.7051 95.1025 71.1836 94.9561C70.668 94.8037 70.1992 94.5781 69.7773 94.2793C69.3613 93.9746 69.0273 93.5938 68.7754 93.1367C68.5293 92.6738 68.4062 92.126 68.4062 91.4932H70.9463C70.9463 91.8213 71.0283 92.1143 71.1924 92.3721C71.3564 92.6299 71.582 92.832 71.8691 92.9785C72.1621 93.125 72.4873 93.1982 72.8447 93.1982C73.249 93.1982 73.5947 93.125 73.8818 92.9785C74.1748 92.8262 74.3975 92.6152 74.5498 92.3457C74.708 92.0703 74.7871 91.751 74.7871 91.3877C74.7871 90.9189 74.7021 90.5439 74.5322 90.2627C74.3623 89.9756 74.1191 89.7646 73.8027 89.6299C73.4863 89.4951 73.1113 89.4277 72.6777 89.4277H71.3242ZM79.2959 93.7783C79.2959 93.4033 79.4248 93.0898 79.6826 92.8379C79.9463 92.5859 80.2949 92.46 80.7285 92.46C81.1621 92.46 81.5078 92.5859 81.7656 92.8379C82.0293 93.0898 82.1611 93.4033 82.1611 93.7783C82.1611 94.1533 82.0293 94.4668 81.7656 94.7188C81.5078 94.9707 81.1621 95.0967 80.7285 95.0967C80.2949 95.0967 79.9463 94.9707 79.6826 94.7188C79.4248 94.4668 79.2959 94.1533 79.2959 93.7783ZM89.0342 82.2031H93.8066C94.7852 82.2031 95.626 82.3496 96.3291 82.6426C97.0381 82.9355 97.583 83.3691 97.9639 83.9434C98.3447 84.5176 98.5352 85.2236 98.5352 86.0615C98.5352 86.7471 98.418 87.3359 98.1836 87.8281C97.9551 88.3145 97.6299 88.7217 97.208 89.0498C96.792 89.3721 96.3027 89.6299 95.7402 89.8232L94.9053 90.2627H90.7568L90.7393 88.2061H93.8242C94.2871 88.2061 94.6709 88.124 94.9756 87.96C95.2803 87.7959 95.5088 87.5674 95.6611 87.2744C95.8193 86.9814 95.8984 86.6416 95.8984 86.2549C95.8984 85.8447 95.8223 85.4902 95.6699 85.1914C95.5176 84.8926 95.2861 84.6641 94.9756 84.5059C94.665 84.3477 94.2754 84.2686 93.8066 84.2686H91.6709V95H89.0342V82.2031ZM96.1885 95L93.2705 89.2959L96.0566 89.2783L99.0098 94.877V95H96.1885ZM104.784 95.1758C104.046 95.1758 103.384 95.0586 102.798 94.8242C102.212 94.584 101.714 94.2529 101.304 93.8311C100.899 93.4092 100.589 92.9199 100.372 92.3633C100.155 91.8008 100.047 91.2031 100.047 90.5703V90.2188C100.047 89.498 100.149 88.8389 100.354 88.2412C100.56 87.6436 100.853 87.125 101.233 86.6855C101.62 86.2461 102.089 85.9092 102.64 85.6748C103.19 85.4346 103.812 85.3145 104.503 85.3145C105.177 85.3145 105.774 85.4258 106.296 85.6484C106.817 85.8711 107.254 86.1875 107.605 86.5977C107.963 87.0078 108.232 87.5 108.414 88.0742C108.596 88.6426 108.687 89.2754 108.687 89.9727V91.0273H101.128V89.3398H106.199V89.1465C106.199 88.7949 106.135 88.4814 106.006 88.2061C105.883 87.9248 105.695 87.7021 105.443 87.5381C105.191 87.374 104.869 87.292 104.477 87.292C104.143 87.292 103.855 87.3652 103.615 87.5117C103.375 87.6582 103.179 87.8633 103.026 88.127C102.88 88.3906 102.769 88.7012 102.692 89.0586C102.622 89.4102 102.587 89.7969 102.587 90.2188V90.5703C102.587 90.9512 102.64 91.3027 102.745 91.625C102.856 91.9473 103.012 92.2256 103.211 92.46C103.416 92.6943 103.662 92.876 103.949 93.0049C104.242 93.1338 104.573 93.1982 104.942 93.1982C105.399 93.1982 105.824 93.1104 106.217 92.9346C106.615 92.7529 106.958 92.4805 107.245 92.1172L108.476 93.4531C108.276 93.7402 108.004 94.0156 107.658 94.2793C107.318 94.543 106.908 94.7598 106.428 94.9297C105.947 95.0938 105.399 95.1758 104.784 95.1758ZM115.27 92.3721C115.27 92.1904 115.217 92.0264 115.111 91.8799C115.006 91.7334 114.81 91.5986 114.522 91.4756C114.241 91.3467 113.834 91.2295 113.301 91.124C112.82 91.0186 112.372 90.8867 111.956 90.7285C111.546 90.5645 111.188 90.3682 110.884 90.1396C110.585 89.9111 110.351 89.6416 110.181 89.3311C110.011 89.0146 109.926 88.6543 109.926 88.25C109.926 87.8516 110.011 87.4766 110.181 87.125C110.356 86.7734 110.605 86.4629 110.928 86.1934C111.256 85.918 111.654 85.7041 112.123 85.5518C112.598 85.3936 113.131 85.3145 113.723 85.3145C114.549 85.3145 115.258 85.4463 115.85 85.71C116.447 85.9736 116.904 86.3369 117.221 86.7998C117.543 87.2568 117.704 87.7783 117.704 88.3643H115.173C115.173 88.1182 115.12 87.8984 115.015 87.7051C114.915 87.5059 114.757 87.3506 114.54 87.2393C114.329 87.1221 114.054 87.0635 113.714 87.0635C113.433 87.0635 113.189 87.1133 112.984 87.2129C112.779 87.3066 112.621 87.4355 112.51 87.5996C112.404 87.7578 112.352 87.9336 112.352 88.127C112.352 88.2734 112.381 88.4053 112.439 88.5225C112.504 88.6338 112.606 88.7363 112.747 88.8301C112.888 88.9238 113.069 89.0117 113.292 89.0938C113.521 89.1699 113.802 89.2402 114.136 89.3047C114.821 89.4453 115.434 89.6299 115.973 89.8584C116.512 90.0811 116.939 90.3857 117.256 90.7725C117.572 91.1533 117.73 91.6543 117.73 92.2754C117.73 92.6973 117.637 93.084 117.449 93.4355C117.262 93.7871 116.992 94.0947 116.641 94.3584C116.289 94.6162 115.867 94.8184 115.375 94.9648C114.889 95.1055 114.341 95.1758 113.731 95.1758C112.847 95.1758 112.097 95.0176 111.481 94.7012C110.872 94.3848 110.409 93.9834 110.093 93.4971C109.782 93.0049 109.627 92.501 109.627 91.9854H112.026C112.038 92.3311 112.126 92.6094 112.29 92.8203C112.46 93.0312 112.674 93.1836 112.932 93.2773C113.195 93.3711 113.479 93.418 113.784 93.418C114.112 93.418 114.385 93.374 114.602 93.2861C114.818 93.1924 114.982 93.0693 115.094 92.917C115.211 92.7588 115.27 92.5771 115.27 92.3721ZM123.751 95.1758C123.013 95.1758 122.351 95.0586 121.765 94.8242C121.179 94.584 120.681 94.2529 120.271 93.8311C119.866 93.4092 119.556 92.9199 119.339 92.3633C119.122 91.8008 119.014 91.2031 119.014 90.5703V90.2188C119.014 89.498 119.116 88.8389 119.321 88.2412C119.526 87.6436 119.819 87.125 120.2 86.6855C120.587 86.2461 121.056 85.9092 121.606 85.6748C122.157 85.4346 122.778 85.3145 123.47 85.3145C124.144 85.3145 124.741 85.4258 125.263 85.6484C125.784 85.8711 126.221 86.1875 126.572 86.5977C126.93 87.0078 127.199 87.5 127.381 88.0742C127.562 88.6426 127.653 89.2754 127.653 89.9727V91.0273H120.095V89.3398H125.166V89.1465C125.166 88.7949 125.102 88.4814 124.973 88.2061C124.85 87.9248 124.662 87.7021 124.41 87.5381C124.158 87.374 123.836 87.292 123.443 87.292C123.109 87.292 122.822 87.3652 122.582 87.5117C122.342 87.6582 122.146 87.8633 121.993 88.127C121.847 88.3906 121.735 88.7012 121.659 89.0586C121.589 89.4102 121.554 89.7969 121.554 90.2188V90.5703C121.554 90.9512 121.606 91.3027 121.712 91.625C121.823 91.9473 121.979 92.2256 122.178 92.46C122.383 92.6943 122.629 92.876 122.916 93.0049C123.209 93.1338 123.54 93.1982 123.909 93.1982C124.366 93.1982 124.791 93.1104 125.184 92.9346C125.582 92.7529 125.925 92.4805 126.212 92.1172L127.442 93.4531C127.243 93.7402 126.971 94.0156 126.625 94.2793C126.285 94.543 125.875 94.7598 125.395 94.9297C124.914 95.0938 124.366 95.1758 123.751 95.1758ZM131.626 87.5645V95H129.095V85.4902H131.477L131.626 87.5645ZM134.491 85.4287L134.447 87.7754C134.324 87.7578 134.175 87.7432 133.999 87.7314C133.829 87.7139 133.674 87.7051 133.533 87.7051C133.176 87.7051 132.865 87.752 132.602 87.8457C132.344 87.9336 132.127 88.0654 131.951 88.2412C131.781 88.417 131.652 88.6309 131.564 88.8828C131.482 89.1348 131.436 89.4219 131.424 89.7441L130.914 89.5859C130.914 88.9707 130.976 88.4053 131.099 87.8896C131.222 87.3682 131.4 86.9141 131.635 86.5273C131.875 86.1406 132.168 85.8418 132.514 85.6309C132.859 85.4199 133.255 85.3145 133.7 85.3145C133.841 85.3145 133.984 85.3262 134.131 85.3496C134.277 85.3672 134.397 85.3936 134.491 85.4287ZM139.079 93.1543L141.188 85.4902H143.834L140.626 95H139.026L139.079 93.1543ZM137.629 85.4902L139.747 93.1631L139.791 95H138.183L134.975 85.4902H137.629ZM149.96 92.8555V88.6191C149.96 88.3145 149.91 88.0537 149.811 87.8369C149.711 87.6143 149.556 87.4414 149.345 87.3184C149.14 87.1953 148.873 87.1338 148.545 87.1338C148.264 87.1338 148.021 87.1836 147.815 87.2832C147.61 87.377 147.452 87.5146 147.341 87.6963C147.229 87.8721 147.174 88.0801 147.174 88.3203H144.643C144.643 87.916 144.736 87.5322 144.924 87.1689C145.111 86.8057 145.384 86.4863 145.741 86.2109C146.099 85.9297 146.523 85.71 147.016 85.5518C147.514 85.3936 148.07 85.3145 148.686 85.3145C149.424 85.3145 150.08 85.4375 150.654 85.6836C151.229 85.9297 151.68 86.2988 152.008 86.791C152.342 87.2832 152.509 87.8984 152.509 88.6367V92.7061C152.509 93.2275 152.541 93.6553 152.605 93.9893C152.67 94.3174 152.764 94.6045 152.887 94.8506V95H150.329C150.206 94.7422 150.112 94.4199 150.048 94.0332C149.989 93.6406 149.96 93.248 149.96 92.8555ZM150.294 89.208L150.312 90.6406H148.896C148.562 90.6406 148.272 90.6787 148.026 90.7549C147.78 90.8311 147.578 90.9395 147.42 91.0801C147.262 91.2148 147.145 91.373 147.068 91.5547C146.998 91.7363 146.963 91.9355 146.963 92.1523C146.963 92.3691 147.013 92.5654 147.112 92.7412C147.212 92.9111 147.355 93.0459 147.543 93.1455C147.73 93.2393 147.95 93.2861 148.202 93.2861C148.583 93.2861 148.914 93.21 149.195 93.0576C149.477 92.9053 149.693 92.7178 149.846 92.4951C150.004 92.2725 150.086 92.0615 150.092 91.8623L150.76 92.9346C150.666 93.1748 150.537 93.4238 150.373 93.6816C150.215 93.9395 150.013 94.1826 149.767 94.4111C149.521 94.6338 149.225 94.8184 148.879 94.9648C148.533 95.1055 148.123 95.1758 147.648 95.1758C147.045 95.1758 146.497 95.0557 146.005 94.8154C145.519 94.5693 145.132 94.2324 144.845 93.8047C144.563 93.3711 144.423 92.8789 144.423 92.3281C144.423 91.8301 144.517 91.3877 144.704 91.001C144.892 90.6143 145.167 90.2891 145.53 90.0254C145.899 89.7559 146.359 89.5537 146.91 89.4189C147.461 89.2783 148.1 89.208 148.826 89.208H150.294ZM163.601 85.4902V87.2832H158.063V85.4902H163.601ZM159.435 83.1436H161.966V92.1348C161.966 92.4102 162.001 92.6211 162.071 92.7676C162.147 92.9141 162.259 93.0166 162.405 93.0752C162.552 93.1279 162.736 93.1543 162.959 93.1543C163.117 93.1543 163.258 93.1484 163.381 93.1367C163.51 93.1191 163.618 93.1016 163.706 93.084L163.715 94.9473C163.498 95.0176 163.264 95.0732 163.012 95.1143C162.76 95.1553 162.481 95.1758 162.177 95.1758C161.62 95.1758 161.134 95.085 160.718 94.9033C160.308 94.7158 159.991 94.417 159.769 94.0068C159.546 93.5967 159.435 93.0576 159.435 92.3896V83.1436ZM170.667 92.7236V85.4902H173.198V95H170.816L170.667 92.7236ZM170.948 90.7725L171.695 90.7549C171.695 91.3877 171.622 91.9766 171.476 92.5215C171.329 93.0605 171.109 93.5293 170.816 93.9277C170.523 94.3203 170.154 94.6279 169.709 94.8506C169.264 95.0674 168.739 95.1758 168.136 95.1758C167.673 95.1758 167.245 95.1113 166.853 94.9824C166.466 94.8477 166.132 94.6396 165.851 94.3584C165.575 94.0713 165.358 93.7051 165.2 93.2598C165.048 92.8086 164.972 92.2666 164.972 91.6338V85.4902H167.503V91.6514C167.503 91.9326 167.535 92.1699 167.6 92.3633C167.67 92.5566 167.767 92.7148 167.89 92.8379C168.013 92.9609 168.156 93.0488 168.32 93.1016C168.49 93.1543 168.678 93.1807 168.883 93.1807C169.404 93.1807 169.814 93.0752 170.113 92.8643C170.418 92.6533 170.632 92.3662 170.755 92.0029C170.884 91.6338 170.948 91.2236 170.948 90.7725ZM85.9668 116.176C85.2285 116.176 84.5664 116.059 83.9805 115.824C83.3945 115.584 82.8965 115.253 82.4863 114.831C82.082 114.409 81.7715 113.92 81.5547 113.363C81.3379 112.801 81.2295 112.203 81.2295 111.57V111.219C81.2295 110.498 81.332 109.839 81.5371 109.241C81.7422 108.644 82.0352 108.125 82.416 107.686C82.8027 107.246 83.2715 106.909 83.8223 106.675C84.373 106.435 84.9941 106.314 85.6855 106.314C86.3594 106.314 86.957 106.426 87.4785 106.648C88 106.871 88.4365 107.188 88.7881 107.598C89.1455 108.008 89.415 108.5 89.5967 109.074C89.7783 109.643 89.8691 110.275 89.8691 110.973V112.027H82.3105V110.34H87.3818V110.146C87.3818 109.795 87.3174 109.481 87.1885 109.206C87.0654 108.925 86.8779 108.702 86.626 108.538C86.374 108.374 86.0518 108.292 85.6592 108.292C85.3252 108.292 85.0381 108.365 84.7979 108.512C84.5576 108.658 84.3613 108.863 84.209 109.127C84.0625 109.391 83.9512 109.701 83.875 110.059C83.8047 110.41 83.7695 110.797 83.7695 111.219V111.57C83.7695 111.951 83.8223 112.303 83.9277 112.625C84.0391 112.947 84.1943 113.226 84.3936 113.46C84.5986 113.694 84.8447 113.876 85.1318 114.005C85.4248 114.134 85.7559 114.198 86.125 114.198C86.582 114.198 87.0068 114.11 87.3994 113.935C87.7979 113.753 88.1406 113.48 88.4277 113.117L89.6582 114.453C89.459 114.74 89.1865 115.016 88.8408 115.279C88.501 115.543 88.0908 115.76 87.6104 115.93C87.1299 116.094 86.582 116.176 85.9668 116.176ZM93.7891 108.521V116H91.2578V106.49H93.6309L93.7891 108.521ZM93.4199 110.911H92.7344C92.7344 110.208 92.8252 109.575 93.0068 109.013C93.1885 108.444 93.4434 107.961 93.7715 107.562C94.0996 107.158 94.4893 106.851 94.9404 106.64C95.3975 106.423 95.9072 106.314 96.4697 106.314C96.915 106.314 97.3223 106.379 97.6914 106.508C98.0605 106.637 98.377 106.842 98.6406 107.123C98.9102 107.404 99.1152 107.776 99.2559 108.239C99.4023 108.702 99.4756 109.268 99.4756 109.936V116H96.9268V109.927C96.9268 109.505 96.8682 109.177 96.751 108.942C96.6338 108.708 96.4609 108.544 96.2324 108.45C96.0098 108.351 95.7344 108.301 95.4062 108.301C95.0664 108.301 94.7705 108.368 94.5186 108.503C94.2725 108.638 94.0674 108.825 93.9033 109.065C93.7451 109.3 93.625 109.575 93.543 109.892C93.4609 110.208 93.4199 110.548 93.4199 110.911ZM106.059 106.49V108.283H100.521V106.49H106.059ZM101.893 104.144H104.424V113.135C104.424 113.41 104.459 113.621 104.529 113.768C104.605 113.914 104.717 114.017 104.863 114.075C105.01 114.128 105.194 114.154 105.417 114.154C105.575 114.154 105.716 114.148 105.839 114.137C105.968 114.119 106.076 114.102 106.164 114.084L106.173 115.947C105.956 116.018 105.722 116.073 105.47 116.114C105.218 116.155 104.939 116.176 104.635 116.176C104.078 116.176 103.592 116.085 103.176 115.903C102.766 115.716 102.449 115.417 102.227 115.007C102.004 114.597 101.893 114.058 101.893 113.39V104.144ZM110.031 108.564V116H107.5V106.49H109.882L110.031 108.564ZM112.896 106.429L112.853 108.775C112.729 108.758 112.58 108.743 112.404 108.731C112.234 108.714 112.079 108.705 111.938 108.705C111.581 108.705 111.271 108.752 111.007 108.846C110.749 108.934 110.532 109.065 110.356 109.241C110.187 109.417 110.058 109.631 109.97 109.883C109.888 110.135 109.841 110.422 109.829 110.744L109.319 110.586C109.319 109.971 109.381 109.405 109.504 108.89C109.627 108.368 109.806 107.914 110.04 107.527C110.28 107.141 110.573 106.842 110.919 106.631C111.265 106.42 111.66 106.314 112.105 106.314C112.246 106.314 112.39 106.326 112.536 106.35C112.683 106.367 112.803 106.394 112.896 106.429ZM118.293 116.176C117.555 116.176 116.893 116.059 116.307 115.824C115.721 115.584 115.223 115.253 114.812 114.831C114.408 114.409 114.098 113.92 113.881 113.363C113.664 112.801 113.556 112.203 113.556 111.57V111.219C113.556 110.498 113.658 109.839 113.863 109.241C114.068 108.644 114.361 108.125 114.742 107.686C115.129 107.246 115.598 106.909 116.148 106.675C116.699 106.435 117.32 106.314 118.012 106.314C118.686 106.314 119.283 106.426 119.805 106.648C120.326 106.871 120.763 107.188 121.114 107.598C121.472 108.008 121.741 108.5 121.923 109.074C122.104 109.643 122.195 110.275 122.195 110.973V112.027H114.637V110.34H119.708V110.146C119.708 109.795 119.644 109.481 119.515 109.206C119.392 108.925 119.204 108.702 118.952 108.538C118.7 108.374 118.378 108.292 117.985 108.292C117.651 108.292 117.364 108.365 117.124 108.512C116.884 108.658 116.688 108.863 116.535 109.127C116.389 109.391 116.277 109.701 116.201 110.059C116.131 110.41 116.096 110.797 116.096 111.219V111.57C116.096 111.951 116.148 112.303 116.254 112.625C116.365 112.947 116.521 113.226 116.72 113.46C116.925 113.694 117.171 113.876 117.458 114.005C117.751 114.134 118.082 114.198 118.451 114.198C118.908 114.198 119.333 114.11 119.726 113.935C120.124 113.753 120.467 113.48 120.754 113.117L121.984 114.453C121.785 114.74 121.513 115.016 121.167 115.279C120.827 115.543 120.417 115.76 119.937 115.93C119.456 116.094 118.908 116.176 118.293 116.176ZM126.748 114.154L128.857 106.49H131.503L128.295 116H126.695L126.748 114.154ZM125.298 106.49L127.416 114.163L127.46 116H125.852L122.644 106.49H125.298ZM135.309 106.49V116H132.769V106.49H135.309ZM132.61 104.012C132.61 103.643 132.739 103.338 132.997 103.098C133.255 102.857 133.601 102.737 134.034 102.737C134.462 102.737 134.805 102.857 135.062 103.098C135.326 103.338 135.458 103.643 135.458 104.012C135.458 104.381 135.326 104.686 135.062 104.926C134.805 105.166 134.462 105.286 134.034 105.286C133.601 105.286 133.255 105.166 132.997 104.926C132.739 104.686 132.61 104.381 132.61 104.012ZM142.542 113.372C142.542 113.19 142.489 113.026 142.384 112.88C142.278 112.733 142.082 112.599 141.795 112.476C141.514 112.347 141.106 112.229 140.573 112.124C140.093 112.019 139.645 111.887 139.229 111.729C138.818 111.564 138.461 111.368 138.156 111.14C137.857 110.911 137.623 110.642 137.453 110.331C137.283 110.015 137.198 109.654 137.198 109.25C137.198 108.852 137.283 108.477 137.453 108.125C137.629 107.773 137.878 107.463 138.2 107.193C138.528 106.918 138.927 106.704 139.396 106.552C139.87 106.394 140.403 106.314 140.995 106.314C141.821 106.314 142.53 106.446 143.122 106.71C143.72 106.974 144.177 107.337 144.493 107.8C144.815 108.257 144.977 108.778 144.977 109.364H142.445C142.445 109.118 142.393 108.898 142.287 108.705C142.188 108.506 142.029 108.351 141.812 108.239C141.602 108.122 141.326 108.063 140.986 108.063C140.705 108.063 140.462 108.113 140.257 108.213C140.052 108.307 139.894 108.436 139.782 108.6C139.677 108.758 139.624 108.934 139.624 109.127C139.624 109.273 139.653 109.405 139.712 109.522C139.776 109.634 139.879 109.736 140.02 109.83C140.16 109.924 140.342 110.012 140.564 110.094C140.793 110.17 141.074 110.24 141.408 110.305C142.094 110.445 142.706 110.63 143.245 110.858C143.784 111.081 144.212 111.386 144.528 111.772C144.845 112.153 145.003 112.654 145.003 113.275C145.003 113.697 144.909 114.084 144.722 114.436C144.534 114.787 144.265 115.095 143.913 115.358C143.562 115.616 143.14 115.818 142.647 115.965C142.161 116.105 141.613 116.176 141.004 116.176C140.119 116.176 139.369 116.018 138.754 115.701C138.145 115.385 137.682 114.983 137.365 114.497C137.055 114.005 136.899 113.501 136.899 112.985H139.299C139.311 113.331 139.398 113.609 139.562 113.82C139.732 114.031 139.946 114.184 140.204 114.277C140.468 114.371 140.752 114.418 141.057 114.418C141.385 114.418 141.657 114.374 141.874 114.286C142.091 114.192 142.255 114.069 142.366 113.917C142.483 113.759 142.542 113.577 142.542 113.372ZM151.305 106.49V108.283H145.768V106.49H151.305ZM147.139 104.144H149.67V113.135C149.67 113.41 149.705 113.621 149.775 113.768C149.852 113.914 149.963 114.017 150.109 114.075C150.256 114.128 150.44 114.154 150.663 114.154C150.821 114.154 150.962 114.148 151.085 114.137C151.214 114.119 151.322 114.102 151.41 114.084L151.419 115.947C151.202 116.018 150.968 116.073 150.716 116.114C150.464 116.155 150.186 116.176 149.881 116.176C149.324 116.176 148.838 116.085 148.422 115.903C148.012 115.716 147.695 115.417 147.473 115.007C147.25 114.597 147.139 114.058 147.139 113.39V104.144ZM157.879 113.855V109.619C157.879 109.314 157.829 109.054 157.729 108.837C157.63 108.614 157.475 108.441 157.264 108.318C157.059 108.195 156.792 108.134 156.464 108.134C156.183 108.134 155.939 108.184 155.734 108.283C155.529 108.377 155.371 108.515 155.26 108.696C155.148 108.872 155.093 109.08 155.093 109.32H152.562C152.562 108.916 152.655 108.532 152.843 108.169C153.03 107.806 153.303 107.486 153.66 107.211C154.018 106.93 154.442 106.71 154.935 106.552C155.433 106.394 155.989 106.314 156.604 106.314C157.343 106.314 157.999 106.438 158.573 106.684C159.147 106.93 159.599 107.299 159.927 107.791C160.261 108.283 160.428 108.898 160.428 109.637V113.706C160.428 114.228 160.46 114.655 160.524 114.989C160.589 115.317 160.683 115.604 160.806 115.851V116H158.248C158.125 115.742 158.031 115.42 157.967 115.033C157.908 114.641 157.879 114.248 157.879 113.855ZM158.213 110.208L158.23 111.641H156.815C156.481 111.641 156.191 111.679 155.945 111.755C155.699 111.831 155.497 111.939 155.339 112.08C155.181 112.215 155.063 112.373 154.987 112.555C154.917 112.736 154.882 112.936 154.882 113.152C154.882 113.369 154.932 113.565 155.031 113.741C155.131 113.911 155.274 114.046 155.462 114.146C155.649 114.239 155.869 114.286 156.121 114.286C156.502 114.286 156.833 114.21 157.114 114.058C157.396 113.905 157.612 113.718 157.765 113.495C157.923 113.272 158.005 113.062 158.011 112.862L158.679 113.935C158.585 114.175 158.456 114.424 158.292 114.682C158.134 114.939 157.932 115.183 157.686 115.411C157.439 115.634 157.144 115.818 156.798 115.965C156.452 116.105 156.042 116.176 155.567 116.176C154.964 116.176 154.416 116.056 153.924 115.815C153.438 115.569 153.051 115.232 152.764 114.805C152.482 114.371 152.342 113.879 152.342 113.328C152.342 112.83 152.436 112.388 152.623 112.001C152.811 111.614 153.086 111.289 153.449 111.025C153.818 110.756 154.278 110.554 154.829 110.419C155.38 110.278 156.019 110.208 156.745 110.208H158.213ZM67.6855 129.318V140.656H65.1543V127.49H67.501L67.6855 129.318ZM73.7061 132.14V132.324C73.7061 133.016 73.624 133.657 73.46 134.249C73.3018 134.841 73.0674 135.356 72.7568 135.796C72.4463 136.229 72.0596 136.569 71.5967 136.815C71.1396 137.056 70.6123 137.176 70.0146 137.176C69.4346 137.176 68.9307 137.059 68.5029 136.824C68.0752 136.59 67.7148 136.262 67.4219 135.84C67.1348 135.412 66.9033 134.917 66.7275 134.354C66.5518 133.792 66.417 133.188 66.3232 132.544V132.061C66.417 131.369 66.5518 130.736 66.7275 130.162C66.9033 129.582 67.1348 129.081 67.4219 128.659C67.7148 128.231 68.0723 127.9 68.4941 127.666C68.9219 127.432 69.4229 127.314 69.9971 127.314C70.6006 127.314 71.1309 127.429 71.5879 127.657C72.0508 127.886 72.4375 128.214 72.748 128.642C73.0645 129.069 73.3018 129.579 73.46 130.171C73.624 130.763 73.7061 131.419 73.7061 132.14ZM71.166 132.324V132.14C71.166 131.735 71.1309 131.363 71.0605 131.023C70.9961 130.678 70.8906 130.376 70.7441 130.118C70.6035 129.86 70.416 129.661 70.1816 129.521C69.9531 129.374 69.6748 129.301 69.3467 129.301C69.001 129.301 68.7051 129.356 68.459 129.468C68.2188 129.579 68.0225 129.74 67.8701 129.951C67.7178 130.162 67.6035 130.414 67.5273 130.707C67.4512 131 67.4043 131.331 67.3867 131.7V132.922C67.416 133.355 67.498 133.745 67.6328 134.091C67.7676 134.431 67.9756 134.7 68.2568 134.899C68.5381 135.099 68.9072 135.198 69.3643 135.198C69.6982 135.198 69.9795 135.125 70.208 134.979C70.4365 134.826 70.6211 134.618 70.7617 134.354C70.9082 134.091 71.0107 133.786 71.0693 133.44C71.1338 133.095 71.166 132.723 71.166 132.324ZM79.6562 137.176C78.918 137.176 78.2559 137.059 77.6699 136.824C77.084 136.584 76.5859 136.253 76.1758 135.831C75.7715 135.409 75.4609 134.92 75.2441 134.363C75.0273 133.801 74.9189 133.203 74.9189 132.57V132.219C74.9189 131.498 75.0215 130.839 75.2266 130.241C75.4316 129.644 75.7246 129.125 76.1055 128.686C76.4922 128.246 76.9609 127.909 77.5117 127.675C78.0625 127.435 78.6836 127.314 79.375 127.314C80.0488 127.314 80.6465 127.426 81.168 127.648C81.6895 127.871 82.126 128.188 82.4775 128.598C82.835 129.008 83.1045 129.5 83.2861 130.074C83.4678 130.643 83.5586 131.275 83.5586 131.973V133.027H76V131.34H81.0713V131.146C81.0713 130.795 81.0068 130.481 80.8779 130.206C80.7549 129.925 80.5674 129.702 80.3154 129.538C80.0635 129.374 79.7412 129.292 79.3486 129.292C79.0146 129.292 78.7275 129.365 78.4873 129.512C78.2471 129.658 78.0508 129.863 77.8984 130.127C77.752 130.391 77.6406 130.701 77.5645 131.059C77.4941 131.41 77.459 131.797 77.459 132.219V132.57C77.459 132.951 77.5117 133.303 77.6172 133.625C77.7285 133.947 77.8838 134.226 78.083 134.46C78.2881 134.694 78.5342 134.876 78.8213 135.005C79.1143 135.134 79.4453 135.198 79.8145 135.198C80.2715 135.198 80.6963 135.11 81.0889 134.935C81.4873 134.753 81.8301 134.48 82.1172 134.117L83.3477 135.453C83.1484 135.74 82.876 136.016 82.5303 136.279C82.1904 136.543 81.7803 136.76 81.2998 136.93C80.8193 137.094 80.2715 137.176 79.6562 137.176ZM87.5312 129.564V137H85V127.49H87.3818L87.5312 129.564ZM90.3965 127.429L90.3525 129.775C90.2295 129.758 90.0801 129.743 89.9043 129.731C89.7344 129.714 89.5791 129.705 89.4385 129.705C89.0811 129.705 88.7705 129.752 88.5068 129.846C88.249 129.934 88.0322 130.065 87.8564 130.241C87.6865 130.417 87.5576 130.631 87.4697 130.883C87.3877 131.135 87.3408 131.422 87.3291 131.744L86.8193 131.586C86.8193 130.971 86.8809 130.405 87.0039 129.89C87.127 129.368 87.3057 128.914 87.54 128.527C87.7803 128.141 88.0732 127.842 88.4189 127.631C88.7646 127.42 89.1602 127.314 89.6055 127.314C89.7461 127.314 89.8896 127.326 90.0361 127.35C90.1826 127.367 90.3027 127.394 90.3965 127.429ZM96.7334 134.372C96.7334 134.19 96.6807 134.026 96.5752 133.88C96.4697 133.733 96.2734 133.599 95.9863 133.476C95.7051 133.347 95.2979 133.229 94.7646 133.124C94.2842 133.019 93.8359 132.887 93.4199 132.729C93.0098 132.564 92.6523 132.368 92.3477 132.14C92.0488 131.911 91.8145 131.642 91.6445 131.331C91.4746 131.015 91.3896 130.654 91.3896 130.25C91.3896 129.852 91.4746 129.477 91.6445 129.125C91.8203 128.773 92.0693 128.463 92.3916 128.193C92.7197 127.918 93.1182 127.704 93.5869 127.552C94.0615 127.394 94.5947 127.314 95.1865 127.314C96.0127 127.314 96.7217 127.446 97.3135 127.71C97.9111 127.974 98.3682 128.337 98.6846 128.8C99.0068 129.257 99.168 129.778 99.168 130.364H96.6367C96.6367 130.118 96.584 129.898 96.4785 129.705C96.3789 129.506 96.2207 129.351 96.0039 129.239C95.793 129.122 95.5176 129.063 95.1777 129.063C94.8965 129.063 94.6533 129.113 94.4482 129.213C94.2432 129.307 94.085 129.436 93.9736 129.6C93.8682 129.758 93.8154 129.934 93.8154 130.127C93.8154 130.273 93.8447 130.405 93.9033 130.522C93.9678 130.634 94.0703 130.736 94.2109 130.83C94.3516 130.924 94.5332 131.012 94.7559 131.094C94.9844 131.17 95.2656 131.24 95.5996 131.305C96.2852 131.445 96.8975 131.63 97.4365 131.858C97.9756 132.081 98.4033 132.386 98.7197 132.772C99.0361 133.153 99.1943 133.654 99.1943 134.275C99.1943 134.697 99.1006 135.084 98.9131 135.436C98.7256 135.787 98.4561 136.095 98.1045 136.358C97.7529 136.616 97.3311 136.818 96.8389 136.965C96.3525 137.105 95.8047 137.176 95.1953 137.176C94.3105 137.176 93.5605 137.018 92.9453 136.701C92.3359 136.385 91.873 135.983 91.5566 135.497C91.2461 135.005 91.0908 134.501 91.0908 133.985H93.4902C93.502 134.331 93.5898 134.609 93.7539 134.82C93.9238 135.031 94.1377 135.184 94.3955 135.277C94.6592 135.371 94.9434 135.418 95.248 135.418C95.5762 135.418 95.8486 135.374 96.0654 135.286C96.2822 135.192 96.4463 135.069 96.5576 134.917C96.6748 134.759 96.7334 134.577 96.7334 134.372ZM100.434 132.342V132.157C100.434 131.46 100.533 130.818 100.732 130.232C100.932 129.641 101.222 129.128 101.603 128.694C101.983 128.261 102.452 127.924 103.009 127.684C103.565 127.438 104.204 127.314 104.925 127.314C105.646 127.314 106.287 127.438 106.85 127.684C107.412 127.924 107.884 128.261 108.265 128.694C108.651 129.128 108.944 129.641 109.144 130.232C109.343 130.818 109.442 131.46 109.442 132.157V132.342C109.442 133.033 109.343 133.675 109.144 134.267C108.944 134.853 108.651 135.365 108.265 135.805C107.884 136.238 107.415 136.575 106.858 136.815C106.302 137.056 105.663 137.176 104.942 137.176C104.222 137.176 103.58 137.056 103.018 136.815C102.461 136.575 101.989 136.238 101.603 135.805C101.222 135.365 100.932 134.853 100.732 134.267C100.533 133.675 100.434 133.033 100.434 132.342ZM102.965 132.157V132.342C102.965 132.74 103 133.112 103.07 133.458C103.141 133.804 103.252 134.108 103.404 134.372C103.562 134.63 103.768 134.832 104.02 134.979C104.271 135.125 104.579 135.198 104.942 135.198C105.294 135.198 105.596 135.125 105.848 134.979C106.1 134.832 106.302 134.63 106.454 134.372C106.606 134.108 106.718 133.804 106.788 133.458C106.864 133.112 106.902 132.74 106.902 132.342V132.157C106.902 131.771 106.864 131.407 106.788 131.067C106.718 130.722 106.604 130.417 106.445 130.153C106.293 129.884 106.091 129.673 105.839 129.521C105.587 129.368 105.282 129.292 104.925 129.292C104.567 129.292 104.263 129.368 104.011 129.521C103.765 129.673 103.562 129.884 103.404 130.153C103.252 130.417 103.141 130.722 103.07 131.067C103 131.407 102.965 131.771 102.965 132.157ZM113.477 129.521V137H110.945V127.49H113.318L113.477 129.521ZM113.107 131.911H112.422C112.422 131.208 112.513 130.575 112.694 130.013C112.876 129.444 113.131 128.961 113.459 128.562C113.787 128.158 114.177 127.851 114.628 127.64C115.085 127.423 115.595 127.314 116.157 127.314C116.603 127.314 117.01 127.379 117.379 127.508C117.748 127.637 118.064 127.842 118.328 128.123C118.598 128.404 118.803 128.776 118.943 129.239C119.09 129.702 119.163 130.268 119.163 130.936V137H116.614V130.927C116.614 130.505 116.556 130.177 116.438 129.942C116.321 129.708 116.148 129.544 115.92 129.45C115.697 129.351 115.422 129.301 115.094 129.301C114.754 129.301 114.458 129.368 114.206 129.503C113.96 129.638 113.755 129.825 113.591 130.065C113.433 130.3 113.312 130.575 113.23 130.892C113.148 131.208 113.107 131.548 113.107 131.911ZM126.221 134.855V130.619C126.221 130.314 126.171 130.054 126.071 129.837C125.972 129.614 125.816 129.441 125.605 129.318C125.4 129.195 125.134 129.134 124.806 129.134C124.524 129.134 124.281 129.184 124.076 129.283C123.871 129.377 123.713 129.515 123.602 129.696C123.49 129.872 123.435 130.08 123.435 130.32H120.903C120.903 129.916 120.997 129.532 121.185 129.169C121.372 128.806 121.645 128.486 122.002 128.211C122.359 127.93 122.784 127.71 123.276 127.552C123.774 127.394 124.331 127.314 124.946 127.314C125.685 127.314 126.341 127.438 126.915 127.684C127.489 127.93 127.94 128.299 128.269 128.791C128.603 129.283 128.77 129.898 128.77 130.637V134.706C128.77 135.228 128.802 135.655 128.866 135.989C128.931 136.317 129.024 136.604 129.147 136.851V137H126.59C126.467 136.742 126.373 136.42 126.309 136.033C126.25 135.641 126.221 135.248 126.221 134.855ZM126.555 131.208L126.572 132.641H125.157C124.823 132.641 124.533 132.679 124.287 132.755C124.041 132.831 123.839 132.939 123.681 133.08C123.522 133.215 123.405 133.373 123.329 133.555C123.259 133.736 123.224 133.936 123.224 134.152C123.224 134.369 123.273 134.565 123.373 134.741C123.473 134.911 123.616 135.046 123.804 135.146C123.991 135.239 124.211 135.286 124.463 135.286C124.844 135.286 125.175 135.21 125.456 135.058C125.737 134.905 125.954 134.718 126.106 134.495C126.265 134.272 126.347 134.062 126.353 133.862L127.021 134.935C126.927 135.175 126.798 135.424 126.634 135.682C126.476 135.939 126.273 136.183 126.027 136.411C125.781 136.634 125.485 136.818 125.14 136.965C124.794 137.105 124.384 137.176 123.909 137.176C123.306 137.176 122.758 137.056 122.266 136.815C121.779 136.569 121.393 136.232 121.105 135.805C120.824 135.371 120.684 134.879 120.684 134.328C120.684 133.83 120.777 133.388 120.965 133.001C121.152 132.614 121.428 132.289 121.791 132.025C122.16 131.756 122.62 131.554 123.171 131.419C123.722 131.278 124.36 131.208 125.087 131.208H126.555ZM133.393 123.5V137H130.853V123.5H133.393ZM138.156 127.49V137H135.616V127.49H138.156ZM135.458 125.012C135.458 124.643 135.587 124.338 135.845 124.098C136.103 123.857 136.448 123.737 136.882 123.737C137.31 123.737 137.652 123.857 137.91 124.098C138.174 124.338 138.306 124.643 138.306 125.012C138.306 125.381 138.174 125.686 137.91 125.926C137.652 126.166 137.31 126.286 136.882 126.286C136.448 126.286 136.103 126.166 135.845 125.926C135.587 125.686 135.458 125.381 135.458 125.012ZM147.815 135.022V137H140.591V135.022H147.815ZM147.675 128.949L141.61 137H139.914V135.497L145.952 127.49H147.675V128.949ZM146.778 127.49V129.477H140.055V127.49H146.778ZM154.539 134.855V130.619C154.539 130.314 154.489 130.054 154.39 129.837C154.29 129.614 154.135 129.441 153.924 129.318C153.719 129.195 153.452 129.134 153.124 129.134C152.843 129.134 152.6 129.184 152.395 129.283C152.189 129.377 152.031 129.515 151.92 129.696C151.809 129.872 151.753 130.08 151.753 130.32H149.222C149.222 129.916 149.315 129.532 149.503 129.169C149.69 128.806 149.963 128.486 150.32 128.211C150.678 127.93 151.103 127.71 151.595 127.552C152.093 127.394 152.649 127.314 153.265 127.314C154.003 127.314 154.659 127.438 155.233 127.684C155.808 127.93 156.259 128.299 156.587 128.791C156.921 129.283 157.088 129.898 157.088 130.637V134.706C157.088 135.228 157.12 135.655 157.185 135.989C157.249 136.317 157.343 136.604 157.466 136.851V137H154.908C154.785 136.742 154.691 136.42 154.627 136.033C154.568 135.641 154.539 135.248 154.539 134.855ZM154.873 131.208L154.891 132.641H153.476C153.142 132.641 152.852 132.679 152.605 132.755C152.359 132.831 152.157 132.939 151.999 133.08C151.841 133.215 151.724 133.373 151.647 133.555C151.577 133.736 151.542 133.936 151.542 134.152C151.542 134.369 151.592 134.565 151.691 134.741C151.791 134.911 151.935 135.046 152.122 135.146C152.31 135.239 152.529 135.286 152.781 135.286C153.162 135.286 153.493 135.21 153.774 135.058C154.056 134.905 154.272 134.718 154.425 134.495C154.583 134.272 154.665 134.062 154.671 133.862L155.339 134.935C155.245 135.175 155.116 135.424 154.952 135.682C154.794 135.939 154.592 136.183 154.346 136.411C154.1 136.634 153.804 136.818 153.458 136.965C153.112 137.105 152.702 137.176 152.228 137.176C151.624 137.176 151.076 137.056 150.584 136.815C150.098 136.569 149.711 136.232 149.424 135.805C149.143 135.371 149.002 134.879 149.002 134.328C149.002 133.83 149.096 133.388 149.283 133.001C149.471 132.614 149.746 132.289 150.109 132.025C150.479 131.756 150.938 131.554 151.489 131.419C152.04 131.278 152.679 131.208 153.405 131.208H154.873ZM164.655 134.926V123.5H167.204V137H164.91L164.655 134.926ZM158.644 132.359V132.175C158.644 131.448 158.726 130.789 158.89 130.197C159.054 129.6 159.294 129.087 159.61 128.659C159.927 128.231 160.316 127.9 160.779 127.666C161.242 127.432 161.77 127.314 162.361 127.314C162.918 127.314 163.404 127.432 163.82 127.666C164.242 127.9 164.6 128.234 164.893 128.668C165.191 129.096 165.432 129.603 165.613 130.188C165.795 130.769 165.927 131.404 166.009 132.096V132.5C165.927 133.162 165.795 133.777 165.613 134.346C165.432 134.914 165.191 135.412 164.893 135.84C164.6 136.262 164.242 136.59 163.82 136.824C163.398 137.059 162.906 137.176 162.344 137.176C161.752 137.176 161.225 137.056 160.762 136.815C160.305 136.575 159.918 136.238 159.602 135.805C159.291 135.371 159.054 134.861 158.89 134.275C158.726 133.689 158.644 133.051 158.644 132.359ZM161.175 132.175V132.359C161.175 132.752 161.204 133.118 161.263 133.458C161.327 133.798 161.43 134.1 161.57 134.363C161.717 134.621 161.904 134.823 162.133 134.97C162.367 135.11 162.651 135.181 162.985 135.181C163.419 135.181 163.776 135.084 164.058 134.891C164.339 134.691 164.553 134.419 164.699 134.073C164.852 133.728 164.939 133.329 164.963 132.878V131.727C164.945 131.357 164.893 131.026 164.805 130.733C164.723 130.435 164.6 130.18 164.436 129.969C164.277 129.758 164.078 129.594 163.838 129.477C163.604 129.359 163.325 129.301 163.003 129.301C162.675 129.301 162.394 129.377 162.159 129.529C161.925 129.676 161.734 129.878 161.588 130.136C161.447 130.394 161.342 130.698 161.271 131.05C161.207 131.396 161.175 131.771 161.175 132.175ZM174.314 134.855V130.619C174.314 130.314 174.265 130.054 174.165 129.837C174.065 129.614 173.91 129.441 173.699 129.318C173.494 129.195 173.228 129.134 172.899 129.134C172.618 129.134 172.375 129.184 172.17 129.283C171.965 129.377 171.807 129.515 171.695 129.696C171.584 129.872 171.528 130.08 171.528 130.32H168.997C168.997 129.916 169.091 129.532 169.278 129.169C169.466 128.806 169.738 128.486 170.096 128.211C170.453 127.93 170.878 127.71 171.37 127.552C171.868 127.394 172.425 127.314 173.04 127.314C173.778 127.314 174.435 127.438 175.009 127.684C175.583 127.93 176.034 128.299 176.362 128.791C176.696 129.283 176.863 129.898 176.863 130.637V134.706C176.863 135.228 176.896 135.655 176.96 135.989C177.024 136.317 177.118 136.604 177.241 136.851V137H174.684C174.561 136.742 174.467 136.42 174.402 136.033C174.344 135.641 174.314 135.248 174.314 134.855ZM174.648 131.208L174.666 132.641H173.251C172.917 132.641 172.627 132.679 172.381 132.755C172.135 132.831 171.933 132.939 171.774 133.08C171.616 133.215 171.499 133.373 171.423 133.555C171.353 133.736 171.317 133.936 171.317 134.152C171.317 134.369 171.367 134.565 171.467 134.741C171.566 134.911 171.71 135.046 171.897 135.146C172.085 135.239 172.305 135.286 172.557 135.286C172.938 135.286 173.269 135.21 173.55 135.058C173.831 134.905 174.048 134.718 174.2 134.495C174.358 134.272 174.44 134.062 174.446 133.862L175.114 134.935C175.021 135.175 174.892 135.424 174.728 135.682C174.569 135.939 174.367 136.183 174.121 136.411C173.875 136.634 173.579 136.818 173.233 136.965C172.888 137.105 172.478 137.176 172.003 137.176C171.399 137.176 170.852 137.056 170.359 136.815C169.873 136.569 169.486 136.232 169.199 135.805C168.918 135.371 168.777 134.879 168.777 134.328C168.777 133.83 168.871 133.388 169.059 133.001C169.246 132.614 169.521 132.289 169.885 132.025C170.254 131.756 170.714 131.554 171.265 131.419C171.815 131.278 172.454 131.208 173.181 131.208H174.648Z" fill="white"/>
</svg>
