<svg width="242" height="218" viewBox="0 0 242 218" fill="none" xmlns="http://www.w3.org/2000/svg">
<path d="M0 109.002L60.5 0L121.002 109.002H0Z" fill="#6B9E97"/>
<path d="M181.5 0L121.002 109.002L60.5002 0H181.5Z" fill="#00BFA5"/>
<path d="M121.001 109.002L181.5 0L242 109.002H121.001Z" fill="#01B199"/>
<path d="M121.002 109.002L60.5 218L0 109.002H121.002Z" fill="#355E58"/>
<path d="M60.5002 218L121.002 109.002L181.5 218H60.5002Z" fill="#457670"/>
<path d="M242 109.002L181.5 218L121.001 109.002H242Z" fill="#0F8C7B"/>
<path d="M66.0771 81.1768V94H63.5459V84.0947L60.5049 85.0615V83.0664L65.8047 81.1768H66.0771ZM70.4717 92.7783C70.4717 92.4033 70.6006 92.0898 70.8584 91.8379C71.1221 91.5859 71.4707 91.46 71.9043 91.46C72.3379 91.46 72.6836 91.5859 72.9414 91.8379C73.2051 92.0898 73.3369 92.4033 73.3369 92.7783C73.3369 93.1533 73.2051 93.4668 72.9414 93.7188C72.6836 93.9707 72.3379 94.0967 71.9043 94.0967C71.4707 94.0967 71.1221 93.9707 70.8584 93.7188C70.6006 93.4668 70.4717 93.1533 70.4717 92.7783ZM88.7969 91.9434V94H81.9854V91.9434H88.7969ZM82.8467 81.2031V94H80.21V81.2031H82.8467ZM87.9092 86.415V88.4189H81.9854V86.415H87.9092ZM88.7881 81.2031V83.2686H81.9854V81.2031H88.7881ZM92.8486 80.5V94H90.3086V80.5H92.8486ZM97.6123 84.4902V94H95.0723V84.4902H97.6123ZM94.9141 82.0117C94.9141 81.6426 95.043 81.3379 95.3008 81.0977C95.5586 80.8574 95.9043 80.7373 96.3379 80.7373C96.7656 80.7373 97.1084 80.8574 97.3662 81.0977C97.6299 81.3379 97.7617 81.6426 97.7617 82.0117C97.7617 82.3809 97.6299 82.6855 97.3662 82.9258C97.1084 83.166 96.7656 83.2861 96.3379 83.2861C95.9043 83.2861 95.5586 83.166 95.3008 82.9258C95.043 82.6855 94.9141 82.3809 94.9141 82.0117ZM105.725 84.4902H108.019V93.6836C108.019 94.5508 107.825 95.2861 107.438 95.8896C107.058 96.499 106.524 96.959 105.839 97.2695C105.153 97.5859 104.356 97.7441 103.448 97.7441C103.05 97.7441 102.628 97.6914 102.183 97.5859C101.743 97.4805 101.321 97.3164 100.917 97.0938C100.519 96.8711 100.185 96.5898 99.915 96.25L101.031 94.7559C101.324 95.0957 101.664 95.3594 102.051 95.5469C102.438 95.7402 102.865 95.8369 103.334 95.8369C103.791 95.8369 104.178 95.752 104.494 95.582C104.811 95.418 105.054 95.1748 105.224 94.8525C105.394 94.5361 105.479 94.1523 105.479 93.7012V86.6875L105.725 84.4902ZM99.3262 89.3594V89.1748C99.3262 88.4482 99.4141 87.7891 99.5898 87.1973C99.7715 86.5996 100.026 86.0869 100.354 85.6592C100.688 85.2314 101.093 84.9004 101.567 84.666C102.042 84.4316 102.578 84.3145 103.176 84.3145C103.809 84.3145 104.339 84.4316 104.767 84.666C105.194 84.9004 105.546 85.2344 105.821 85.668C106.097 86.0957 106.311 86.6025 106.463 87.1885C106.621 87.7686 106.744 88.4043 106.832 89.0957V89.5C106.744 90.1621 106.612 90.7773 106.437 91.3457C106.261 91.9141 106.029 92.4121 105.742 92.8398C105.455 93.2617 105.098 93.5898 104.67 93.8242C104.248 94.0586 103.744 94.1758 103.158 94.1758C102.572 94.1758 102.042 94.0557 101.567 93.8154C101.099 93.5752 100.697 93.2383 100.363 92.8047C100.029 92.3711 99.7715 91.8613 99.5898 91.2754C99.4141 90.6895 99.3262 90.0508 99.3262 89.3594ZM101.857 89.1748V89.3594C101.857 89.752 101.896 90.1182 101.972 90.458C102.048 90.7979 102.165 91.0996 102.323 91.3633C102.487 91.6211 102.689 91.8232 102.93 91.9697C103.176 92.1104 103.466 92.1807 103.8 92.1807C104.263 92.1807 104.641 92.084 104.934 91.8906C105.227 91.6914 105.446 91.4189 105.593 91.0732C105.739 90.7275 105.824 90.3291 105.848 89.8779V88.7266C105.836 88.3574 105.786 88.0264 105.698 87.7334C105.61 87.4346 105.487 87.1797 105.329 86.9688C105.171 86.7578 104.966 86.5938 104.714 86.4766C104.462 86.3594 104.163 86.3008 103.817 86.3008C103.483 86.3008 103.193 86.377 102.947 86.5293C102.707 86.6758 102.505 86.8779 102.341 87.1357C102.183 87.3936 102.062 87.6982 101.98 88.0498C101.898 88.3955 101.857 88.7705 101.857 89.1748ZM114.364 94.1758C113.626 94.1758 112.964 94.0586 112.378 93.8242C111.792 93.584 111.294 93.2529 110.884 92.8311C110.479 92.4092 110.169 91.9199 109.952 91.3633C109.735 90.8008 109.627 90.2031 109.627 89.5703V89.2188C109.627 88.498 109.729 87.8389 109.935 87.2412C110.14 86.6436 110.433 86.125 110.813 85.6855C111.2 85.2461 111.669 84.9092 112.22 84.6748C112.771 84.4346 113.392 84.3145 114.083 84.3145C114.757 84.3145 115.354 84.4258 115.876 84.6484C116.397 84.8711 116.834 85.1875 117.186 85.5977C117.543 86.0078 117.812 86.5 117.994 87.0742C118.176 87.6426 118.267 88.2754 118.267 88.9727V90.0273H110.708V88.3398H115.779V88.1465C115.779 87.7949 115.715 87.4814 115.586 87.2061C115.463 86.9248 115.275 86.7021 115.023 86.5381C114.771 86.374 114.449 86.292 114.057 86.292C113.723 86.292 113.436 86.3652 113.195 86.5117C112.955 86.6582 112.759 86.8633 112.606 87.127C112.46 87.3906 112.349 87.7012 112.272 88.0586C112.202 88.4102 112.167 88.7969 112.167 89.2188V89.5703C112.167 89.9512 112.22 90.3027 112.325 90.625C112.437 90.9473 112.592 91.2256 112.791 91.46C112.996 91.6943 113.242 91.876 113.529 92.0049C113.822 92.1338 114.153 92.1982 114.522 92.1982C114.979 92.1982 115.404 92.1104 115.797 91.9346C116.195 91.7529 116.538 91.4805 116.825 91.1172L118.056 92.4531C117.856 92.7402 117.584 93.0156 117.238 93.2793C116.898 93.543 116.488 93.7598 116.008 93.9297C115.527 94.0938 114.979 94.1758 114.364 94.1758ZM128.849 84.4902V86.2832H123.312V84.4902H128.849ZM124.683 82.1436H127.214V91.1348C127.214 91.4102 127.249 91.6211 127.319 91.7676C127.396 91.9141 127.507 92.0166 127.653 92.0752C127.8 92.1279 127.984 92.1543 128.207 92.1543C128.365 92.1543 128.506 92.1484 128.629 92.1367C128.758 92.1191 128.866 92.1016 128.954 92.084L128.963 93.9473C128.746 94.0176 128.512 94.0732 128.26 94.1143C128.008 94.1553 127.729 94.1758 127.425 94.1758C126.868 94.1758 126.382 94.085 125.966 93.9033C125.556 93.7158 125.239 93.417 125.017 93.0068C124.794 92.5967 124.683 92.0576 124.683 91.3896V82.1436ZM135.915 91.7236V84.4902H138.446V94H136.064L135.915 91.7236ZM136.196 89.7725L136.943 89.7549C136.943 90.3877 136.87 90.9766 136.724 91.5215C136.577 92.0605 136.357 92.5293 136.064 92.9277C135.771 93.3203 135.402 93.6279 134.957 93.8506C134.512 94.0674 133.987 94.1758 133.384 94.1758C132.921 94.1758 132.493 94.1113 132.101 93.9824C131.714 93.8477 131.38 93.6396 131.099 93.3584C130.823 93.0713 130.606 92.7051 130.448 92.2598C130.296 91.8086 130.22 91.2666 130.22 90.6338V84.4902H132.751V90.6514C132.751 90.9326 132.783 91.1699 132.848 91.3633C132.918 91.5566 133.015 91.7148 133.138 91.8379C133.261 91.9609 133.404 92.0488 133.568 92.1016C133.738 92.1543 133.926 92.1807 134.131 92.1807C134.652 92.1807 135.062 92.0752 135.361 91.8643C135.666 91.6533 135.88 91.3662 136.003 91.0029C136.132 90.6338 136.196 90.2236 136.196 89.7725ZM147.394 86.3184V97.6562H144.862V84.4902H147.209L147.394 86.3184ZM153.414 89.1396V89.3242C153.414 90.0156 153.332 90.6572 153.168 91.249C153.01 91.8408 152.775 92.3564 152.465 92.7959C152.154 93.2295 151.768 93.5693 151.305 93.8154C150.848 94.0557 150.32 94.1758 149.723 94.1758C149.143 94.1758 148.639 94.0586 148.211 93.8242C147.783 93.5898 147.423 93.2617 147.13 92.8398C146.843 92.4121 146.611 91.917 146.436 91.3545C146.26 90.792 146.125 90.1885 146.031 89.5439V89.0605C146.125 88.3691 146.26 87.7363 146.436 87.1621C146.611 86.582 146.843 86.0811 147.13 85.6592C147.423 85.2314 147.78 84.9004 148.202 84.666C148.63 84.4316 149.131 84.3145 149.705 84.3145C150.309 84.3145 150.839 84.4287 151.296 84.6572C151.759 84.8857 152.146 85.2139 152.456 85.6416C152.772 86.0693 153.01 86.5791 153.168 87.1709C153.332 87.7627 153.414 88.4189 153.414 89.1396ZM150.874 89.3242V89.1396C150.874 88.7354 150.839 88.3633 150.769 88.0234C150.704 87.6777 150.599 87.376 150.452 87.1182C150.312 86.8604 150.124 86.6611 149.89 86.5205C149.661 86.374 149.383 86.3008 149.055 86.3008C148.709 86.3008 148.413 86.3564 148.167 86.4678C147.927 86.5791 147.73 86.7402 147.578 86.9512C147.426 87.1621 147.312 87.4141 147.235 87.707C147.159 88 147.112 88.3311 147.095 88.7002V89.9219C147.124 90.3555 147.206 90.7451 147.341 91.0908C147.476 91.4307 147.684 91.7002 147.965 91.8994C148.246 92.0986 148.615 92.1982 149.072 92.1982C149.406 92.1982 149.688 92.125 149.916 91.9785C150.145 91.8262 150.329 91.6182 150.47 91.3545C150.616 91.0908 150.719 90.7861 150.777 90.4404C150.842 90.0947 150.874 89.7227 150.874 89.3242ZM157.659 80.5V94H155.119V80.5H157.659ZM164.884 91.8555V87.6191C164.884 87.3145 164.834 87.0537 164.734 86.8369C164.635 86.6143 164.479 86.4414 164.269 86.3184C164.063 86.1953 163.797 86.1338 163.469 86.1338C163.188 86.1338 162.944 86.1836 162.739 86.2832C162.534 86.377 162.376 86.5146 162.265 86.6963C162.153 86.8721 162.098 87.0801 162.098 87.3203H159.566C159.566 86.916 159.66 86.5322 159.848 86.1689C160.035 85.8057 160.308 85.4863 160.665 85.2109C161.022 84.9297 161.447 84.71 161.939 84.5518C162.438 84.3936 162.994 84.3145 163.609 84.3145C164.348 84.3145 165.004 84.4375 165.578 84.6836C166.152 84.9297 166.604 85.2988 166.932 85.791C167.266 86.2832 167.433 86.8984 167.433 87.6367V91.7061C167.433 92.2275 167.465 92.6553 167.529 92.9893C167.594 93.3174 167.688 93.6045 167.811 93.8506V94H165.253C165.13 93.7422 165.036 93.4199 164.972 93.0332C164.913 92.6406 164.884 92.248 164.884 91.8555ZM165.218 88.208L165.235 89.6406H163.82C163.486 89.6406 163.196 89.6787 162.95 89.7549C162.704 89.8311 162.502 89.9395 162.344 90.0801C162.186 90.2148 162.068 90.373 161.992 90.5547C161.922 90.7363 161.887 90.9355 161.887 91.1523C161.887 91.3691 161.937 91.5654 162.036 91.7412C162.136 91.9111 162.279 92.0459 162.467 92.1455C162.654 92.2393 162.874 92.2861 163.126 92.2861C163.507 92.2861 163.838 92.21 164.119 92.0576C164.4 91.9053 164.617 91.7178 164.77 91.4951C164.928 91.2725 165.01 91.0615 165.016 90.8623L165.684 91.9346C165.59 92.1748 165.461 92.4238 165.297 92.6816C165.139 92.9395 164.937 93.1826 164.69 93.4111C164.444 93.6338 164.148 93.8184 163.803 93.9648C163.457 94.1055 163.047 94.1758 162.572 94.1758C161.969 94.1758 161.421 94.0557 160.929 93.8154C160.442 93.5693 160.056 93.2324 159.769 92.8047C159.487 92.3711 159.347 91.8789 159.347 91.3281C159.347 90.8301 159.44 90.3877 159.628 90.001C159.815 89.6143 160.091 89.2891 160.454 89.0254C160.823 88.7559 161.283 88.5537 161.834 88.4189C162.385 88.2783 163.023 88.208 163.75 88.208H165.218ZM171.862 86.5205V94H169.331V84.4902H171.704L171.862 86.5205ZM171.493 88.9111H170.808C170.808 88.208 170.898 87.5752 171.08 87.0127C171.262 86.4443 171.517 85.9609 171.845 85.5625C172.173 85.1582 172.562 84.8506 173.014 84.6396C173.471 84.4229 173.98 84.3145 174.543 84.3145C174.988 84.3145 175.396 84.3789 175.765 84.5078C176.134 84.6367 176.45 84.8418 176.714 85.123C176.983 85.4043 177.188 85.7764 177.329 86.2393C177.476 86.7021 177.549 87.2676 177.549 87.9355V94H175V87.9268C175 87.5049 174.941 87.1768 174.824 86.9424C174.707 86.708 174.534 86.5439 174.306 86.4502C174.083 86.3506 173.808 86.3008 173.479 86.3008C173.14 86.3008 172.844 86.3682 172.592 86.5029C172.346 86.6377 172.141 86.8252 171.977 87.0654C171.818 87.2998 171.698 87.5752 171.616 87.8916C171.534 88.208 171.493 88.5479 171.493 88.9111ZM45.3789 109.99V109.797C45.3789 108.561 45.5078 107.438 45.7656 106.431C46.0293 105.423 46.375 104.538 46.8027 103.776C47.2363 103.009 47.708 102.373 48.2178 101.869C48.7275 101.365 49.2344 101.002 49.7383 100.779L50.2217 102.115C49.8877 102.361 49.5596 102.701 49.2373 103.135C48.915 103.562 48.6221 104.09 48.3584 104.717C48.1006 105.338 47.8926 106.07 47.7344 106.914C47.5762 107.752 47.4971 108.707 47.4971 109.779V110.008C47.4971 111.08 47.5762 112.038 47.7344 112.882C47.8926 113.72 48.1006 114.452 48.3584 115.079C48.6221 115.712 48.915 116.245 49.2373 116.679C49.5596 117.112 49.8877 117.455 50.2217 117.707L49.7383 119.008C49.2344 118.785 48.7275 118.422 48.2178 117.918C47.708 117.42 47.2363 116.787 46.8027 116.02C46.375 115.258 46.0293 114.373 45.7656 113.365C45.5078 112.352 45.3789 111.227 45.3789 109.99ZM55.9346 115.176C55.1963 115.176 54.5342 115.059 53.9482 114.824C53.3623 114.584 52.8643 114.253 52.4541 113.831C52.0498 113.409 51.7393 112.92 51.5225 112.363C51.3057 111.801 51.1973 111.203 51.1973 110.57V110.219C51.1973 109.498 51.2998 108.839 51.5049 108.241C51.71 107.644 52.0029 107.125 52.3838 106.686C52.7705 106.246 53.2393 105.909 53.79 105.675C54.3408 105.435 54.9619 105.314 55.6533 105.314C56.3271 105.314 56.9248 105.426 57.4463 105.648C57.9678 105.871 58.4043 106.188 58.7559 106.598C59.1133 107.008 59.3828 107.5 59.5645 108.074C59.7461 108.643 59.8369 109.275 59.8369 109.973V111.027H52.2783V109.34H57.3496V109.146C57.3496 108.795 57.2852 108.481 57.1562 108.206C57.0332 107.925 56.8457 107.702 56.5938 107.538C56.3418 107.374 56.0195 107.292 55.627 107.292C55.293 107.292 55.0059 107.365 54.7656 107.512C54.5254 107.658 54.3291 107.863 54.1768 108.127C54.0303 108.391 53.9189 108.701 53.8428 109.059C53.7725 109.41 53.7373 109.797 53.7373 110.219V110.57C53.7373 110.951 53.79 111.303 53.8955 111.625C54.0068 111.947 54.1621 112.226 54.3613 112.46C54.5664 112.694 54.8125 112.876 55.0996 113.005C55.3926 113.134 55.7236 113.198 56.0928 113.198C56.5498 113.198 56.9746 113.11 57.3672 112.935C57.7656 112.753 58.1084 112.48 58.3955 112.117L59.626 113.453C59.4268 113.74 59.1543 114.016 58.8086 114.279C58.4688 114.543 58.0586 114.76 57.5781 114.93C57.0977 115.094 56.5498 115.176 55.9346 115.176ZM63.7568 107.521V115H61.2256V105.49H63.5986L63.7568 107.521ZM63.3877 109.911H62.7021C62.7021 109.208 62.793 108.575 62.9746 108.013C63.1562 107.444 63.4111 106.961 63.7393 106.562C64.0674 106.158 64.457 105.851 64.9082 105.64C65.3652 105.423 65.875 105.314 66.4375 105.314C66.8828 105.314 67.29 105.379 67.6592 105.508C68.0283 105.637 68.3447 105.842 68.6084 106.123C68.8779 106.404 69.083 106.776 69.2236 107.239C69.3701 107.702 69.4434 108.268 69.4434 108.936V115H66.8945V108.927C66.8945 108.505 66.8359 108.177 66.7188 107.942C66.6016 107.708 66.4287 107.544 66.2002 107.45C65.9775 107.351 65.7021 107.301 65.374 107.301C65.0342 107.301 64.7383 107.368 64.4863 107.503C64.2402 107.638 64.0352 107.825 63.8711 108.065C63.7129 108.3 63.5928 108.575 63.5107 108.892C63.4287 109.208 63.3877 109.548 63.3877 109.911ZM79.085 113.154L81.1943 105.49H83.8398L80.6318 115H79.0322L79.085 113.154ZM77.6348 105.49L79.7529 113.163L79.7969 115H78.1885L74.9805 105.49H77.6348ZM87.6455 105.49V115H85.1055V105.49H87.6455ZM84.9473 103.012C84.9473 102.643 85.0762 102.338 85.334 102.098C85.5918 101.857 85.9375 101.737 86.3711 101.737C86.7988 101.737 87.1416 101.857 87.3994 102.098C87.6631 102.338 87.7949 102.643 87.7949 103.012C87.7949 103.381 87.6631 103.686 87.3994 103.926C87.1416 104.166 86.7988 104.286 86.3711 104.286C85.9375 104.286 85.5918 104.166 85.334 103.926C85.0762 103.686 84.9473 103.381 84.9473 103.012ZM92.9717 113.154L95.0811 105.49H97.7266L94.5186 115H92.9189L92.9717 113.154ZM91.5215 105.49L93.6396 113.163L93.6836 115H92.0752L88.8672 105.49H91.5215ZM98.3154 110.342V110.157C98.3154 109.46 98.415 108.818 98.6143 108.232C98.8135 107.641 99.1035 107.128 99.4844 106.694C99.8652 106.261 100.334 105.924 100.891 105.684C101.447 105.438 102.086 105.314 102.807 105.314C103.527 105.314 104.169 105.438 104.731 105.684C105.294 105.924 105.766 106.261 106.146 106.694C106.533 107.128 106.826 107.641 107.025 108.232C107.225 108.818 107.324 109.46 107.324 110.157V110.342C107.324 111.033 107.225 111.675 107.025 112.267C106.826 112.853 106.533 113.365 106.146 113.805C105.766 114.238 105.297 114.575 104.74 114.815C104.184 115.056 103.545 115.176 102.824 115.176C102.104 115.176 101.462 115.056 100.899 114.815C100.343 114.575 99.8711 114.238 99.4844 113.805C99.1035 113.365 98.8135 112.853 98.6143 112.267C98.415 111.675 98.3154 111.033 98.3154 110.342ZM100.847 110.157V110.342C100.847 110.74 100.882 111.112 100.952 111.458C101.022 111.804 101.134 112.108 101.286 112.372C101.444 112.63 101.649 112.832 101.901 112.979C102.153 113.125 102.461 113.198 102.824 113.198C103.176 113.198 103.478 113.125 103.729 112.979C103.981 112.832 104.184 112.63 104.336 112.372C104.488 112.108 104.6 111.804 104.67 111.458C104.746 111.112 104.784 110.74 104.784 110.342V110.157C104.784 109.771 104.746 109.407 104.67 109.067C104.6 108.722 104.485 108.417 104.327 108.153C104.175 107.884 103.973 107.673 103.721 107.521C103.469 107.368 103.164 107.292 102.807 107.292C102.449 107.292 102.145 107.368 101.893 107.521C101.646 107.673 101.444 107.884 101.286 108.153C101.134 108.417 101.022 108.722 100.952 109.067C100.882 109.407 100.847 109.771 100.847 110.157ZM111.279 112.864L111.271 114.561C111.271 115.211 111.106 115.867 110.778 116.529C110.456 117.191 110.046 117.733 109.548 118.155L108.229 117.479C108.376 117.209 108.52 116.939 108.66 116.67C108.801 116.4 108.918 116.104 109.012 115.782C109.105 115.46 109.152 115.094 109.152 114.684V112.864H111.279ZM123.812 105.49H126.106V114.684C126.106 115.551 125.913 116.286 125.526 116.89C125.146 117.499 124.612 117.959 123.927 118.27C123.241 118.586 122.444 118.744 121.536 118.744C121.138 118.744 120.716 118.691 120.271 118.586C119.831 118.48 119.409 118.316 119.005 118.094C118.606 117.871 118.272 117.59 118.003 117.25L119.119 115.756C119.412 116.096 119.752 116.359 120.139 116.547C120.525 116.74 120.953 116.837 121.422 116.837C121.879 116.837 122.266 116.752 122.582 116.582C122.898 116.418 123.142 116.175 123.312 115.853C123.481 115.536 123.566 115.152 123.566 114.701V107.688L123.812 105.49ZM117.414 110.359V110.175C117.414 109.448 117.502 108.789 117.678 108.197C117.859 107.6 118.114 107.087 118.442 106.659C118.776 106.231 119.181 105.9 119.655 105.666C120.13 105.432 120.666 105.314 121.264 105.314C121.896 105.314 122.427 105.432 122.854 105.666C123.282 105.9 123.634 106.234 123.909 106.668C124.185 107.096 124.398 107.603 124.551 108.188C124.709 108.769 124.832 109.404 124.92 110.096V110.5C124.832 111.162 124.7 111.777 124.524 112.346C124.349 112.914 124.117 113.412 123.83 113.84C123.543 114.262 123.186 114.59 122.758 114.824C122.336 115.059 121.832 115.176 121.246 115.176C120.66 115.176 120.13 115.056 119.655 114.815C119.187 114.575 118.785 114.238 118.451 113.805C118.117 113.371 117.859 112.861 117.678 112.275C117.502 111.689 117.414 111.051 117.414 110.359ZM119.945 110.175V110.359C119.945 110.752 119.983 111.118 120.06 111.458C120.136 111.798 120.253 112.1 120.411 112.363C120.575 112.621 120.777 112.823 121.018 112.97C121.264 113.11 121.554 113.181 121.888 113.181C122.351 113.181 122.729 113.084 123.021 112.891C123.314 112.691 123.534 112.419 123.681 112.073C123.827 111.728 123.912 111.329 123.936 110.878V109.727C123.924 109.357 123.874 109.026 123.786 108.733C123.698 108.435 123.575 108.18 123.417 107.969C123.259 107.758 123.054 107.594 122.802 107.477C122.55 107.359 122.251 107.301 121.905 107.301C121.571 107.301 121.281 107.377 121.035 107.529C120.795 107.676 120.593 107.878 120.429 108.136C120.271 108.394 120.15 108.698 120.068 109.05C119.986 109.396 119.945 109.771 119.945 110.175ZM130.606 107.564V115H128.075V105.49H130.457L130.606 107.564ZM133.472 105.429L133.428 107.775C133.305 107.758 133.155 107.743 132.979 107.731C132.81 107.714 132.654 107.705 132.514 107.705C132.156 107.705 131.846 107.752 131.582 107.846C131.324 107.934 131.107 108.065 130.932 108.241C130.762 108.417 130.633 108.631 130.545 108.883C130.463 109.135 130.416 109.422 130.404 109.744L129.895 109.586C129.895 108.971 129.956 108.405 130.079 107.89C130.202 107.368 130.381 106.914 130.615 106.527C130.855 106.141 131.148 105.842 131.494 105.631C131.84 105.42 132.235 105.314 132.681 105.314C132.821 105.314 132.965 105.326 133.111 105.35C133.258 105.367 133.378 105.394 133.472 105.429ZM139.501 112.855V108.619C139.501 108.314 139.451 108.054 139.352 107.837C139.252 107.614 139.097 107.441 138.886 107.318C138.681 107.195 138.414 107.134 138.086 107.134C137.805 107.134 137.562 107.184 137.356 107.283C137.151 107.377 136.993 107.515 136.882 107.696C136.771 107.872 136.715 108.08 136.715 108.32H134.184C134.184 107.916 134.277 107.532 134.465 107.169C134.652 106.806 134.925 106.486 135.282 106.211C135.64 105.93 136.064 105.71 136.557 105.552C137.055 105.394 137.611 105.314 138.227 105.314C138.965 105.314 139.621 105.438 140.195 105.684C140.77 105.93 141.221 106.299 141.549 106.791C141.883 107.283 142.05 107.898 142.05 108.637V112.706C142.05 113.228 142.082 113.655 142.146 113.989C142.211 114.317 142.305 114.604 142.428 114.851V115H139.87C139.747 114.742 139.653 114.42 139.589 114.033C139.53 113.641 139.501 113.248 139.501 112.855ZM139.835 109.208L139.853 110.641H138.438C138.104 110.641 137.813 110.679 137.567 110.755C137.321 110.831 137.119 110.939 136.961 111.08C136.803 111.215 136.686 111.373 136.609 111.555C136.539 111.736 136.504 111.936 136.504 112.152C136.504 112.369 136.554 112.565 136.653 112.741C136.753 112.911 136.896 113.046 137.084 113.146C137.271 113.239 137.491 113.286 137.743 113.286C138.124 113.286 138.455 113.21 138.736 113.058C139.018 112.905 139.234 112.718 139.387 112.495C139.545 112.272 139.627 112.062 139.633 111.862L140.301 112.935C140.207 113.175 140.078 113.424 139.914 113.682C139.756 113.939 139.554 114.183 139.308 114.411C139.062 114.634 138.766 114.818 138.42 114.965C138.074 115.105 137.664 115.176 137.189 115.176C136.586 115.176 136.038 115.056 135.546 114.815C135.06 114.569 134.673 114.232 134.386 113.805C134.104 113.371 133.964 112.879 133.964 112.328C133.964 111.83 134.058 111.388 134.245 111.001C134.433 110.614 134.708 110.289 135.071 110.025C135.44 109.756 135.9 109.554 136.451 109.419C137.002 109.278 137.641 109.208 138.367 109.208H139.835ZM144.001 101.5H146.532V112.82L146.277 115H144.001V101.5ZM152.553 110.148V110.333C152.553 111.042 152.477 111.692 152.324 112.284C152.178 112.876 151.949 113.389 151.639 113.822C151.328 114.25 150.941 114.584 150.479 114.824C150.021 115.059 149.482 115.176 148.861 115.176C148.281 115.176 147.777 115.059 147.35 114.824C146.928 114.59 146.573 114.259 146.286 113.831C145.999 113.403 145.768 112.902 145.592 112.328C145.416 111.754 145.284 111.127 145.196 110.447V110.043C145.284 109.363 145.416 108.736 145.592 108.162C145.768 107.588 145.999 107.087 146.286 106.659C146.573 106.231 146.928 105.9 147.35 105.666C147.771 105.432 148.27 105.314 148.844 105.314C149.471 105.314 150.016 105.435 150.479 105.675C150.947 105.909 151.334 106.243 151.639 106.677C151.949 107.104 152.178 107.614 152.324 108.206C152.477 108.792 152.553 109.439 152.553 110.148ZM150.021 110.333V110.148C150.021 109.762 149.992 109.398 149.934 109.059C149.881 108.713 149.787 108.411 149.652 108.153C149.518 107.89 149.333 107.682 149.099 107.529C148.87 107.377 148.574 107.301 148.211 107.301C147.865 107.301 147.572 107.359 147.332 107.477C147.092 107.594 146.893 107.758 146.734 107.969C146.582 108.18 146.468 108.432 146.392 108.725C146.315 109.012 146.269 109.328 146.251 109.674V110.825C146.269 111.288 146.345 111.698 146.479 112.056C146.62 112.407 146.831 112.686 147.112 112.891C147.399 113.09 147.771 113.189 148.229 113.189C148.586 113.189 148.882 113.119 149.116 112.979C149.351 112.838 149.532 112.639 149.661 112.381C149.796 112.123 149.89 111.821 149.942 111.476C149.995 111.124 150.021 110.743 150.021 110.333ZM159.259 112.855V108.619C159.259 108.314 159.209 108.054 159.109 107.837C159.01 107.614 158.854 107.441 158.644 107.318C158.438 107.195 158.172 107.134 157.844 107.134C157.562 107.134 157.319 107.184 157.114 107.283C156.909 107.377 156.751 107.515 156.64 107.696C156.528 107.872 156.473 108.08 156.473 108.32H153.941C153.941 107.916 154.035 107.532 154.223 107.169C154.41 106.806 154.683 106.486 155.04 106.211C155.397 105.93 155.822 105.71 156.314 105.552C156.812 105.394 157.369 105.314 157.984 105.314C158.723 105.314 159.379 105.438 159.953 105.684C160.527 105.93 160.979 106.299 161.307 106.791C161.641 107.283 161.808 107.898 161.808 108.637V112.706C161.808 113.228 161.84 113.655 161.904 113.989C161.969 114.317 162.062 114.604 162.186 114.851V115H159.628C159.505 114.742 159.411 114.42 159.347 114.033C159.288 113.641 159.259 113.248 159.259 112.855ZM159.593 109.208L159.61 110.641H158.195C157.861 110.641 157.571 110.679 157.325 110.755C157.079 110.831 156.877 110.939 156.719 111.08C156.561 111.215 156.443 111.373 156.367 111.555C156.297 111.736 156.262 111.936 156.262 112.152C156.262 112.369 156.312 112.565 156.411 112.741C156.511 112.911 156.654 113.046 156.842 113.146C157.029 113.239 157.249 113.286 157.501 113.286C157.882 113.286 158.213 113.21 158.494 113.058C158.775 112.905 158.992 112.718 159.145 112.495C159.303 112.272 159.385 112.062 159.391 111.862L160.059 112.935C159.965 113.175 159.836 113.424 159.672 113.682C159.514 113.939 159.312 114.183 159.065 114.411C158.819 114.634 158.523 114.818 158.178 114.965C157.832 115.105 157.422 115.176 156.947 115.176C156.344 115.176 155.796 115.056 155.304 114.815C154.817 114.569 154.431 114.232 154.144 113.805C153.862 113.371 153.722 112.879 153.722 112.328C153.722 111.83 153.815 111.388 154.003 111.001C154.19 110.614 154.466 110.289 154.829 110.025C155.198 109.756 155.658 109.554 156.209 109.419C156.76 109.278 157.398 109.208 158.125 109.208H159.593ZM169.375 112.926V101.5H171.924V115H169.63L169.375 112.926ZM163.363 110.359V110.175C163.363 109.448 163.445 108.789 163.609 108.197C163.773 107.6 164.014 107.087 164.33 106.659C164.646 106.231 165.036 105.9 165.499 105.666C165.962 105.432 166.489 105.314 167.081 105.314C167.638 105.314 168.124 105.432 168.54 105.666C168.962 105.9 169.319 106.234 169.612 106.668C169.911 107.096 170.151 107.603 170.333 108.188C170.515 108.769 170.646 109.404 170.729 110.096V110.5C170.646 111.162 170.515 111.777 170.333 112.346C170.151 112.914 169.911 113.412 169.612 113.84C169.319 114.262 168.962 114.59 168.54 114.824C168.118 115.059 167.626 115.176 167.063 115.176C166.472 115.176 165.944 115.056 165.481 114.815C165.024 114.575 164.638 114.238 164.321 113.805C164.011 113.371 163.773 112.861 163.609 112.275C163.445 111.689 163.363 111.051 163.363 110.359ZM165.895 110.175V110.359C165.895 110.752 165.924 111.118 165.982 111.458C166.047 111.798 166.149 112.1 166.29 112.363C166.437 112.621 166.624 112.823 166.853 112.97C167.087 113.11 167.371 113.181 167.705 113.181C168.139 113.181 168.496 113.084 168.777 112.891C169.059 112.691 169.272 112.419 169.419 112.073C169.571 111.728 169.659 111.329 169.683 110.878V109.727C169.665 109.357 169.612 109.026 169.524 108.733C169.442 108.435 169.319 108.18 169.155 107.969C168.997 107.758 168.798 107.594 168.558 107.477C168.323 107.359 168.045 107.301 167.723 107.301C167.395 107.301 167.113 107.377 166.879 107.529C166.645 107.676 166.454 107.878 166.308 108.136C166.167 108.394 166.062 108.698 165.991 109.05C165.927 109.396 165.895 109.771 165.895 110.175ZM173.497 110.342V110.157C173.497 109.46 173.597 108.818 173.796 108.232C173.995 107.641 174.285 107.128 174.666 106.694C175.047 106.261 175.516 105.924 176.072 105.684C176.629 105.438 177.268 105.314 177.988 105.314C178.709 105.314 179.351 105.438 179.913 105.684C180.476 105.924 180.947 106.261 181.328 106.694C181.715 107.128 182.008 107.641 182.207 108.232C182.406 108.818 182.506 109.46 182.506 110.157V110.342C182.506 111.033 182.406 111.675 182.207 112.267C182.008 112.853 181.715 113.365 181.328 113.805C180.947 114.238 180.479 114.575 179.922 114.815C179.365 115.056 178.727 115.176 178.006 115.176C177.285 115.176 176.644 115.056 176.081 114.815C175.524 114.575 175.053 114.238 174.666 113.805C174.285 113.365 173.995 112.853 173.796 112.267C173.597 111.675 173.497 111.033 173.497 110.342ZM176.028 110.157V110.342C176.028 110.74 176.063 111.112 176.134 111.458C176.204 111.804 176.315 112.108 176.468 112.372C176.626 112.63 176.831 112.832 177.083 112.979C177.335 113.125 177.643 113.198 178.006 113.198C178.357 113.198 178.659 113.125 178.911 112.979C179.163 112.832 179.365 112.63 179.518 112.372C179.67 112.108 179.781 111.804 179.852 111.458C179.928 111.112 179.966 110.74 179.966 110.342V110.157C179.966 109.771 179.928 109.407 179.852 109.067C179.781 108.722 179.667 108.417 179.509 108.153C179.356 107.884 179.154 107.673 178.902 107.521C178.65 107.368 178.346 107.292 177.988 107.292C177.631 107.292 177.326 107.368 177.074 107.521C176.828 107.673 176.626 107.884 176.468 108.153C176.315 108.417 176.204 108.722 176.134 109.067C176.063 109.407 176.028 109.771 176.028 110.157ZM188.14 110.342V110.157C188.14 109.46 188.239 108.818 188.438 108.232C188.638 107.641 188.928 107.128 189.309 106.694C189.689 106.261 190.158 105.924 190.715 105.684C191.271 105.438 191.91 105.314 192.631 105.314C193.352 105.314 193.993 105.438 194.556 105.684C195.118 105.924 195.59 106.261 195.971 106.694C196.357 107.128 196.65 107.641 196.85 108.232C197.049 108.818 197.148 109.46 197.148 110.157V110.342C197.148 111.033 197.049 111.675 196.85 112.267C196.65 112.853 196.357 113.365 195.971 113.805C195.59 114.238 195.121 114.575 194.564 114.815C194.008 115.056 193.369 115.176 192.648 115.176C191.928 115.176 191.286 115.056 190.724 114.815C190.167 114.575 189.695 114.238 189.309 113.805C188.928 113.365 188.638 112.853 188.438 112.267C188.239 111.675 188.14 111.033 188.14 110.342ZM190.671 110.157V110.342C190.671 110.74 190.706 111.112 190.776 111.458C190.847 111.804 190.958 112.108 191.11 112.372C191.269 112.63 191.474 112.832 191.726 112.979C191.978 113.125 192.285 113.198 192.648 113.198C193 113.198 193.302 113.125 193.554 112.979C193.806 112.832 194.008 112.63 194.16 112.372C194.312 112.108 194.424 111.804 194.494 111.458C194.57 111.112 194.608 110.74 194.608 110.342V110.157C194.608 109.771 194.57 109.407 194.494 109.067C194.424 108.722 194.31 108.417 194.151 108.153C193.999 107.884 193.797 107.673 193.545 107.521C193.293 107.368 192.988 107.292 192.631 107.292C192.273 107.292 191.969 107.368 191.717 107.521C191.471 107.673 191.269 107.884 191.11 108.153C190.958 108.417 190.847 108.722 190.776 109.067C190.706 109.407 190.671 109.771 190.671 110.157ZM98.5791 128.459V136H96.0391V126.49H98.4209L98.5791 128.459ZM98.2275 130.911H97.5244C97.5244 130.249 97.6035 129.64 97.7617 129.083C97.9258 128.521 98.1631 128.034 98.4736 127.624C98.79 127.208 99.1797 126.886 99.6426 126.657C100.105 126.429 100.642 126.314 101.251 126.314C101.673 126.314 102.06 126.379 102.411 126.508C102.763 126.631 103.064 126.827 103.316 127.097C103.574 127.36 103.773 127.706 103.914 128.134C104.055 128.556 104.125 129.062 104.125 129.654V136H101.594V129.936C101.594 129.502 101.535 129.168 101.418 128.934C101.301 128.699 101.134 128.535 100.917 128.441C100.706 128.348 100.451 128.301 100.152 128.301C99.8242 128.301 99.5371 128.368 99.291 128.503C99.0508 128.638 98.8516 128.825 98.6934 129.065C98.5352 129.3 98.418 129.575 98.3418 129.892C98.2656 130.208 98.2275 130.548 98.2275 130.911ZM103.888 130.621L102.982 130.735C102.982 130.114 103.059 129.537 103.211 129.004C103.369 128.471 103.601 128.002 103.905 127.598C104.216 127.193 104.6 126.88 105.057 126.657C105.514 126.429 106.041 126.314 106.639 126.314C107.096 126.314 107.512 126.382 107.887 126.517C108.262 126.646 108.581 126.854 108.845 127.141C109.114 127.422 109.319 127.791 109.46 128.248C109.606 128.705 109.68 129.265 109.68 129.927V136H107.14V129.927C107.14 129.487 107.081 129.153 106.964 128.925C106.853 128.69 106.688 128.529 106.472 128.441C106.261 128.348 106.009 128.301 105.716 128.301C105.411 128.301 105.145 128.362 104.916 128.485C104.688 128.603 104.497 128.767 104.345 128.978C104.192 129.188 104.078 129.435 104.002 129.716C103.926 129.991 103.888 130.293 103.888 130.621ZM114.312 126.49V136H111.771V126.49H114.312ZM111.613 124.012C111.613 123.643 111.742 123.338 112 123.098C112.258 122.857 112.604 122.737 113.037 122.737C113.465 122.737 113.808 122.857 114.065 123.098C114.329 123.338 114.461 123.643 114.461 124.012C114.461 124.381 114.329 124.686 114.065 124.926C113.808 125.166 113.465 125.286 113.037 125.286C112.604 125.286 112.258 125.166 112 124.926C111.742 124.686 111.613 124.381 111.613 124.012ZM118.442 126.49L120.016 129.382L121.633 126.49H124.331L121.642 131.14L124.454 136H121.747L120.033 132.941L118.319 136H115.612L118.425 131.14L115.735 126.49H118.442ZM130.22 126.49V128.283H124.683V126.49H130.22ZM126.054 124.144H128.585V133.135C128.585 133.41 128.62 133.621 128.69 133.768C128.767 133.914 128.878 134.017 129.024 134.075C129.171 134.128 129.355 134.154 129.578 134.154C129.736 134.154 129.877 134.148 130 134.137C130.129 134.119 130.237 134.102 130.325 134.084L130.334 135.947C130.117 136.018 129.883 136.073 129.631 136.114C129.379 136.155 129.101 136.176 128.796 136.176C128.239 136.176 127.753 136.085 127.337 135.903C126.927 135.716 126.61 135.417 126.388 135.007C126.165 134.597 126.054 134.058 126.054 133.39V124.144ZM131.028 131.342V131.157C131.028 130.46 131.128 129.818 131.327 129.232C131.526 128.641 131.816 128.128 132.197 127.694C132.578 127.261 133.047 126.924 133.604 126.684C134.16 126.438 134.799 126.314 135.52 126.314C136.24 126.314 136.882 126.438 137.444 126.684C138.007 126.924 138.479 127.261 138.859 127.694C139.246 128.128 139.539 128.641 139.738 129.232C139.938 129.818 140.037 130.46 140.037 131.157V131.342C140.037 132.033 139.938 132.675 139.738 133.267C139.539 133.853 139.246 134.365 138.859 134.805C138.479 135.238 138.01 135.575 137.453 135.815C136.896 136.056 136.258 136.176 135.537 136.176C134.816 136.176 134.175 136.056 133.612 135.815C133.056 135.575 132.584 135.238 132.197 134.805C131.816 134.365 131.526 133.853 131.327 133.267C131.128 132.675 131.028 132.033 131.028 131.342ZM133.56 131.157V131.342C133.56 131.74 133.595 132.112 133.665 132.458C133.735 132.804 133.847 133.108 133.999 133.372C134.157 133.63 134.362 133.832 134.614 133.979C134.866 134.125 135.174 134.198 135.537 134.198C135.889 134.198 136.19 134.125 136.442 133.979C136.694 133.832 136.896 133.63 137.049 133.372C137.201 133.108 137.312 132.804 137.383 132.458C137.459 132.112 137.497 131.74 137.497 131.342V131.157C137.497 130.771 137.459 130.407 137.383 130.067C137.312 129.722 137.198 129.417 137.04 129.153C136.888 128.884 136.686 128.673 136.434 128.521C136.182 128.368 135.877 128.292 135.52 128.292C135.162 128.292 134.857 128.368 134.605 128.521C134.359 128.673 134.157 128.884 133.999 129.153C133.847 129.417 133.735 129.722 133.665 130.067C133.595 130.407 133.56 130.771 133.56 131.157ZM145.943 130.797V130.99C145.943 132.186 145.809 133.287 145.539 134.295C145.27 135.297 144.912 136.185 144.467 136.958C144.027 137.737 143.544 138.385 143.017 138.9C142.495 139.416 141.974 139.785 141.452 140.008L140.96 138.707C141.294 138.461 141.619 138.121 141.936 137.688C142.258 137.254 142.551 136.721 142.814 136.088C143.078 135.461 143.286 134.726 143.438 133.882C143.597 133.038 143.676 132.08 143.676 131.008V130.779C143.676 129.707 143.597 128.749 143.438 127.905C143.28 127.062 143.066 126.326 142.797 125.699C142.533 125.066 142.24 124.536 141.918 124.108C141.602 123.675 141.282 123.335 140.96 123.089L141.452 121.779C141.974 122.002 142.495 122.374 143.017 122.896C143.544 123.411 144.027 124.056 144.467 124.829C144.912 125.603 145.27 126.493 145.539 127.501C145.809 128.503 145.943 129.602 145.943 130.797Z" fill="white"/>
</svg>
