<svg width="242" height="218" viewBox="0 0 242 218" fill="none" xmlns="http://www.w3.org/2000/svg">
<path d="M0 109.002L60.5007 0L121.001 109.002H0Z" fill="#355E58"/>
<path d="M181.502 0L121.001 109.002L60.5007 0H181.502Z" fill="#6B9E97"/>
<path d="M121.001 109.002L181.502 0L242 109.002H121.001Z" fill="#00BFA5"/>
<path d="M121.001 109.002L60.5007 218L0 109.002H121.001Z" fill="#457670"/>
<path d="M60.5007 218L121.001 109.002L181.502 218H60.5007Z" fill="#0F8C7B"/>
<path d="M242 109.002L181.502 218L121.001 109.002H242Z" fill="#CB9584"/>
<path d="M43.7178 103.022V105H34.9639V103.312L39.1035 98.874C39.5195 98.4111 39.8477 98.0039 40.0879 97.6523C40.3281 97.2949 40.501 96.9756 40.6064 96.6943C40.7178 96.4072 40.7734 96.1348 40.7734 95.877C40.7734 95.4902 40.709 95.1592 40.5801 94.8838C40.4512 94.6025 40.2607 94.3857 40.0088 94.2334C39.7627 94.0811 39.458 94.0049 39.0947 94.0049C38.708 94.0049 38.374 94.0986 38.0928 94.2861C37.8174 94.4736 37.6064 94.7344 37.46 95.0684C37.3193 95.4023 37.249 95.7803 37.249 96.2021H34.709C34.709 95.4404 34.8906 94.7432 35.2539 94.1104C35.6172 93.4717 36.1299 92.9648 36.792 92.5898C37.4541 92.209 38.2393 92.0186 39.1475 92.0186C40.0439 92.0186 40.7998 92.165 41.415 92.458C42.0361 92.7451 42.5049 93.1611 42.8213 93.7061C43.1436 94.2451 43.3047 94.8896 43.3047 95.6396C43.3047 96.0615 43.2373 96.4746 43.1025 96.8789C42.9678 97.2773 42.7744 97.6758 42.5225 98.0742C42.2764 98.4668 41.9775 98.8652 41.626 99.2695C41.2744 99.6738 40.8848 100.093 40.457 100.526L38.2334 103.022H43.7178ZM45.5283 103.778C45.5283 103.403 45.6572 103.09 45.915 102.838C46.1787 102.586 46.5273 102.46 46.9609 102.46C47.3945 102.46 47.7402 102.586 47.998 102.838C48.2617 103.09 48.3936 103.403 48.3936 103.778C48.3936 104.153 48.2617 104.467 47.998 104.719C47.7402 104.971 47.3945 105.097 46.9609 105.097C46.5273 105.097 46.1787 104.971 45.915 104.719C45.6572 104.467 45.5283 104.153 45.5283 103.778ZM63.8008 97.415V99.4717H57.1211V97.415H63.8008ZM57.9033 92.2031V105H55.2666V92.2031H57.9033ZM65.6816 92.2031V105H63.0537V92.2031H65.6816ZM72.9502 102.855V98.6191C72.9502 98.3145 72.9004 98.0537 72.8008 97.8369C72.7012 97.6143 72.5459 97.4414 72.335 97.3184C72.1299 97.1953 71.8633 97.1338 71.5352 97.1338C71.2539 97.1338 71.0107 97.1836 70.8057 97.2832C70.6006 97.377 70.4424 97.5146 70.3311 97.6963C70.2197 97.8721 70.1641 98.0801 70.1641 98.3203H67.6328C67.6328 97.916 67.7266 97.5322 67.9141 97.1689C68.1016 96.8057 68.374 96.4863 68.7314 96.2109C69.0889 95.9297 69.5137 95.71 70.0059 95.5518C70.5039 95.3936 71.0605 95.3145 71.6758 95.3145C72.4141 95.3145 73.0703 95.4375 73.6445 95.6836C74.2188 95.9297 74.6699 96.2988 74.998 96.791C75.332 97.2832 75.499 97.8984 75.499 98.6367V102.706C75.499 103.228 75.5312 103.655 75.5957 103.989C75.6602 104.317 75.7539 104.604 75.877 104.851V105H73.3193C73.1963 104.742 73.1025 104.42 73.0381 104.033C72.9795 103.641 72.9502 103.248 72.9502 102.855ZM73.2842 99.208L73.3018 100.641H71.8867C71.5527 100.641 71.2627 100.679 71.0166 100.755C70.7705 100.831 70.5684 100.939 70.4102 101.08C70.252 101.215 70.1348 101.373 70.0586 101.555C69.9883 101.736 69.9531 101.936 69.9531 102.152C69.9531 102.369 70.0029 102.565 70.1025 102.741C70.2021 102.911 70.3457 103.046 70.5332 103.146C70.7207 103.239 70.9404 103.286 71.1924 103.286C71.5732 103.286 71.9043 103.21 72.1855 103.058C72.4668 102.905 72.6836 102.718 72.8359 102.495C72.9941 102.272 73.0762 102.062 73.082 101.862L73.75 102.935C73.6562 103.175 73.5273 103.424 73.3633 103.682C73.2051 103.939 73.0029 104.183 72.7568 104.411C72.5107 104.634 72.2148 104.818 71.8691 104.965C71.5234 105.105 71.1133 105.176 70.6387 105.176C70.0352 105.176 69.4873 105.056 68.9951 104.815C68.5088 104.569 68.1221 104.232 67.835 103.805C67.5537 103.371 67.4131 102.879 67.4131 102.328C67.4131 101.83 67.5068 101.388 67.6943 101.001C67.8818 100.614 68.1572 100.289 68.5205 100.025C68.8896 99.7559 69.3496 99.5537 69.9004 99.4189C70.4512 99.2783 71.0898 99.208 71.8164 99.208H73.2842ZM85.0176 103.022V105H77.793V103.022H85.0176ZM84.877 96.9492L78.8125 105H77.1162V103.497L83.1543 95.4902H84.877V96.9492ZM83.9805 95.4902V97.4766H77.2568V95.4902H83.9805ZM95.4678 105.176C94.7295 105.176 94.0674 105.059 93.4814 104.824C92.8955 104.584 92.3975 104.253 91.9873 103.831C91.583 103.409 91.2725 102.92 91.0557 102.363C90.8389 101.801 90.7305 101.203 90.7305 100.57V100.219C90.7305 99.498 90.833 98.8389 91.0381 98.2412C91.2432 97.6436 91.5361 97.125 91.917 96.6855C92.3037 96.2461 92.7725 95.9092 93.3232 95.6748C93.874 95.4346 94.4951 95.3145 95.1865 95.3145C95.8604 95.3145 96.458 95.4258 96.9795 95.6484C97.501 95.8711 97.9375 96.1875 98.2891 96.5977C98.6465 97.0078 98.916 97.5 99.0977 98.0742C99.2793 98.6426 99.3701 99.2754 99.3701 99.9727V101.027H91.8115V99.3398H96.8828V99.1465C96.8828 98.7949 96.8184 98.4814 96.6895 98.2061C96.5664 97.9248 96.3789 97.7021 96.127 97.5381C95.875 97.374 95.5527 97.292 95.1602 97.292C94.8262 97.292 94.5391 97.3652 94.2988 97.5117C94.0586 97.6582 93.8623 97.8633 93.71 98.127C93.5635 98.3906 93.4521 98.7012 93.376 99.0586C93.3057 99.4102 93.2705 99.7969 93.2705 100.219V100.57C93.2705 100.951 93.3232 101.303 93.4287 101.625C93.54 101.947 93.6953 102.226 93.8945 102.46C94.0996 102.694 94.3457 102.876 94.6328 103.005C94.9258 103.134 95.2568 103.198 95.626 103.198C96.083 103.198 96.5078 103.11 96.9004 102.935C97.2988 102.753 97.6416 102.48 97.9287 102.117L99.1592 103.453C98.96 103.74 98.6875 104.016 98.3418 104.279C98.002 104.543 97.5918 104.76 97.1113 104.93C96.6309 105.094 96.083 105.176 95.4678 105.176ZM103.483 91.5V105H100.943V91.5H103.483ZM114.716 95.4902V97.2832H109.179V95.4902H114.716ZM110.55 93.1436H113.081V102.135C113.081 102.41 113.116 102.621 113.187 102.768C113.263 102.914 113.374 103.017 113.521 103.075C113.667 103.128 113.852 103.154 114.074 103.154C114.232 103.154 114.373 103.148 114.496 103.137C114.625 103.119 114.733 103.102 114.821 103.084L114.83 104.947C114.613 105.018 114.379 105.073 114.127 105.114C113.875 105.155 113.597 105.176 113.292 105.176C112.735 105.176 112.249 105.085 111.833 104.903C111.423 104.716 111.106 104.417 110.884 104.007C110.661 103.597 110.55 103.058 110.55 102.39V93.1436ZM120.534 105.176C119.796 105.176 119.134 105.059 118.548 104.824C117.962 104.584 117.464 104.253 117.054 103.831C116.649 103.409 116.339 102.92 116.122 102.363C115.905 101.801 115.797 101.203 115.797 100.57V100.219C115.797 99.498 115.899 98.8389 116.104 98.2412C116.31 97.6436 116.603 97.125 116.983 96.6855C117.37 96.2461 117.839 95.9092 118.39 95.6748C118.94 95.4346 119.562 95.3145 120.253 95.3145C120.927 95.3145 121.524 95.4258 122.046 95.6484C122.567 95.8711 123.004 96.1875 123.355 96.5977C123.713 97.0078 123.982 97.5 124.164 98.0742C124.346 98.6426 124.437 99.2754 124.437 99.9727V101.027H116.878V99.3398H121.949V99.1465C121.949 98.7949 121.885 98.4814 121.756 98.2061C121.633 97.9248 121.445 97.7021 121.193 97.5381C120.941 97.374 120.619 97.292 120.227 97.292C119.893 97.292 119.605 97.3652 119.365 97.5117C119.125 97.6582 118.929 97.8633 118.776 98.127C118.63 98.3906 118.519 98.7012 118.442 99.0586C118.372 99.4102 118.337 99.7969 118.337 100.219V100.57C118.337 100.951 118.39 101.303 118.495 101.625C118.606 101.947 118.762 102.226 118.961 102.46C119.166 102.694 119.412 102.876 119.699 103.005C119.992 103.134 120.323 103.198 120.692 103.198C121.149 103.198 121.574 103.11 121.967 102.935C122.365 102.753 122.708 102.48 122.995 102.117L124.226 103.453C124.026 103.74 123.754 104.016 123.408 104.279C123.068 104.543 122.658 104.76 122.178 104.93C121.697 105.094 121.149 105.176 120.534 105.176ZM131.02 102.372C131.02 102.19 130.967 102.026 130.861 101.88C130.756 101.733 130.56 101.599 130.272 101.476C129.991 101.347 129.584 101.229 129.051 101.124C128.57 101.019 128.122 100.887 127.706 100.729C127.296 100.564 126.938 100.368 126.634 100.14C126.335 99.9111 126.101 99.6416 125.931 99.3311C125.761 99.0146 125.676 98.6543 125.676 98.25C125.676 97.8516 125.761 97.4766 125.931 97.125C126.106 96.7734 126.355 96.4629 126.678 96.1934C127.006 95.918 127.404 95.7041 127.873 95.5518C128.348 95.3936 128.881 95.3145 129.473 95.3145C130.299 95.3145 131.008 95.4463 131.6 95.71C132.197 95.9736 132.654 96.3369 132.971 96.7998C133.293 97.2568 133.454 97.7783 133.454 98.3643H130.923C130.923 98.1182 130.87 97.8984 130.765 97.7051C130.665 97.5059 130.507 97.3506 130.29 97.2393C130.079 97.1221 129.804 97.0635 129.464 97.0635C129.183 97.0635 128.939 97.1133 128.734 97.2129C128.529 97.3066 128.371 97.4355 128.26 97.5996C128.154 97.7578 128.102 97.9336 128.102 98.127C128.102 98.2734 128.131 98.4053 128.189 98.5225C128.254 98.6338 128.356 98.7363 128.497 98.8301C128.638 98.9238 128.819 99.0117 129.042 99.0938C129.271 99.1699 129.552 99.2402 129.886 99.3047C130.571 99.4453 131.184 99.6299 131.723 99.8584C132.262 100.081 132.689 100.386 133.006 100.772C133.322 101.153 133.48 101.654 133.48 102.275C133.48 102.697 133.387 103.084 133.199 103.436C133.012 103.787 132.742 104.095 132.391 104.358C132.039 104.616 131.617 104.818 131.125 104.965C130.639 105.105 130.091 105.176 129.481 105.176C128.597 105.176 127.847 105.018 127.231 104.701C126.622 104.385 126.159 103.983 125.843 103.497C125.532 103.005 125.377 102.501 125.377 101.985H127.776C127.788 102.331 127.876 102.609 128.04 102.82C128.21 103.031 128.424 103.184 128.682 103.277C128.945 103.371 129.229 103.418 129.534 103.418C129.862 103.418 130.135 103.374 130.352 103.286C130.568 103.192 130.732 103.069 130.844 102.917C130.961 102.759 131.02 102.577 131.02 102.372ZM139.782 95.4902V97.2832H134.245V95.4902H139.782ZM135.616 93.1436H138.147V102.135C138.147 102.41 138.183 102.621 138.253 102.768C138.329 102.914 138.44 103.017 138.587 103.075C138.733 103.128 138.918 103.154 139.141 103.154C139.299 103.154 139.439 103.148 139.562 103.137C139.691 103.119 139.8 103.102 139.888 103.084L139.896 104.947C139.68 105.018 139.445 105.073 139.193 105.114C138.941 105.155 138.663 105.176 138.358 105.176C137.802 105.176 137.315 105.085 136.899 104.903C136.489 104.716 136.173 104.417 135.95 104.007C135.728 103.597 135.616 103.058 135.616 102.39V93.1436ZM151.727 95.4902H154.021V104.684C154.021 105.551 153.827 106.286 153.44 106.89C153.06 107.499 152.526 107.959 151.841 108.27C151.155 108.586 150.358 108.744 149.45 108.744C149.052 108.744 148.63 108.691 148.185 108.586C147.745 108.48 147.323 108.316 146.919 108.094C146.521 107.871 146.187 107.59 145.917 107.25L147.033 105.756C147.326 106.096 147.666 106.359 148.053 106.547C148.439 106.74 148.867 106.837 149.336 106.837C149.793 106.837 150.18 106.752 150.496 106.582C150.812 106.418 151.056 106.175 151.226 105.853C151.396 105.536 151.48 105.152 151.48 104.701V97.6875L151.727 95.4902ZM145.328 100.359V100.175C145.328 99.4482 145.416 98.7891 145.592 98.1973C145.773 97.5996 146.028 97.0869 146.356 96.6592C146.69 96.2314 147.095 95.9004 147.569 95.666C148.044 95.4316 148.58 95.3145 149.178 95.3145C149.811 95.3145 150.341 95.4316 150.769 95.666C151.196 95.9004 151.548 96.2344 151.823 96.668C152.099 97.0957 152.312 97.6025 152.465 98.1885C152.623 98.7686 152.746 99.4043 152.834 100.096V100.5C152.746 101.162 152.614 101.777 152.438 102.346C152.263 102.914 152.031 103.412 151.744 103.84C151.457 104.262 151.1 104.59 150.672 104.824C150.25 105.059 149.746 105.176 149.16 105.176C148.574 105.176 148.044 105.056 147.569 104.815C147.101 104.575 146.699 104.238 146.365 103.805C146.031 103.371 145.773 102.861 145.592 102.275C145.416 101.689 145.328 101.051 145.328 100.359ZM147.859 100.175V100.359C147.859 100.752 147.897 101.118 147.974 101.458C148.05 101.798 148.167 102.1 148.325 102.363C148.489 102.621 148.691 102.823 148.932 102.97C149.178 103.11 149.468 103.181 149.802 103.181C150.265 103.181 150.643 103.084 150.936 102.891C151.229 102.691 151.448 102.419 151.595 102.073C151.741 101.728 151.826 101.329 151.85 100.878V99.7266C151.838 99.3574 151.788 99.0264 151.7 98.7334C151.612 98.4346 151.489 98.1797 151.331 97.9688C151.173 97.7578 150.968 97.5938 150.716 97.4766C150.464 97.3594 150.165 97.3008 149.819 97.3008C149.485 97.3008 149.195 97.377 148.949 97.5293C148.709 97.6758 148.507 97.8779 148.343 98.1357C148.185 98.3936 148.064 98.6982 147.982 99.0498C147.9 99.3955 147.859 99.7705 147.859 100.175ZM158.521 97.5645V105H155.989V95.4902H158.371L158.521 97.5645ZM161.386 95.4287L161.342 97.7754C161.219 97.7578 161.069 97.7432 160.894 97.7314C160.724 97.7139 160.568 97.7051 160.428 97.7051C160.07 97.7051 159.76 97.752 159.496 97.8457C159.238 97.9336 159.021 98.0654 158.846 98.2412C158.676 98.417 158.547 98.6309 158.459 98.8828C158.377 99.1348 158.33 99.4219 158.318 99.7441L157.809 99.5859C157.809 98.9707 157.87 98.4053 157.993 97.8896C158.116 97.3682 158.295 96.9141 158.529 96.5273C158.77 96.1406 159.062 95.8418 159.408 95.6309C159.754 95.4199 160.149 95.3145 160.595 95.3145C160.735 95.3145 160.879 95.3262 161.025 95.3496C161.172 95.3672 161.292 95.3936 161.386 95.4287ZM167.415 102.855V98.6191C167.415 98.3145 167.365 98.0537 167.266 97.8369C167.166 97.6143 167.011 97.4414 166.8 97.3184C166.595 97.1953 166.328 97.1338 166 97.1338C165.719 97.1338 165.476 97.1836 165.271 97.2832C165.065 97.377 164.907 97.5146 164.796 97.6963C164.685 97.8721 164.629 98.0801 164.629 98.3203H162.098C162.098 97.916 162.191 97.5322 162.379 97.1689C162.566 96.8057 162.839 96.4863 163.196 96.2109C163.554 95.9297 163.979 95.71 164.471 95.5518C164.969 95.3936 165.525 95.3145 166.141 95.3145C166.879 95.3145 167.535 95.4375 168.109 95.6836C168.684 95.9297 169.135 96.2988 169.463 96.791C169.797 97.2832 169.964 97.8984 169.964 98.6367V102.706C169.964 103.228 169.996 103.655 170.061 103.989C170.125 104.317 170.219 104.604 170.342 104.851V105H167.784C167.661 104.742 167.567 104.42 167.503 104.033C167.444 103.641 167.415 103.248 167.415 102.855ZM167.749 99.208L167.767 100.641H166.352C166.018 100.641 165.728 100.679 165.481 100.755C165.235 100.831 165.033 100.939 164.875 101.08C164.717 101.215 164.6 101.373 164.523 101.555C164.453 101.736 164.418 101.936 164.418 102.152C164.418 102.369 164.468 102.565 164.567 102.741C164.667 102.911 164.811 103.046 164.998 103.146C165.186 103.239 165.405 103.286 165.657 103.286C166.038 103.286 166.369 103.21 166.65 103.058C166.932 102.905 167.148 102.718 167.301 102.495C167.459 102.272 167.541 102.062 167.547 101.862L168.215 102.935C168.121 103.175 167.992 103.424 167.828 103.682C167.67 103.939 167.468 104.183 167.222 104.411C166.976 104.634 166.68 104.818 166.334 104.965C165.988 105.105 165.578 105.176 165.104 105.176C164.5 105.176 163.952 105.056 163.46 104.815C162.974 104.569 162.587 104.232 162.3 103.805C162.019 103.371 161.878 102.879 161.878 102.328C161.878 101.83 161.972 101.388 162.159 101.001C162.347 100.614 162.622 100.289 162.985 100.025C163.354 99.7559 163.814 99.5537 164.365 99.4189C164.916 99.2783 165.555 99.208 166.281 99.208H167.749ZM176.573 95.4902V97.2832H171.036V95.4902H176.573ZM172.407 93.1436H174.938V102.135C174.938 102.41 174.974 102.621 175.044 102.768C175.12 102.914 175.231 103.017 175.378 103.075C175.524 103.128 175.709 103.154 175.932 103.154C176.09 103.154 176.23 103.148 176.354 103.137C176.482 103.119 176.591 103.102 176.679 103.084L176.688 104.947C176.471 105.018 176.236 105.073 175.984 105.114C175.732 105.155 175.454 105.176 175.149 105.176C174.593 105.176 174.106 105.085 173.69 104.903C173.28 104.716 172.964 104.417 172.741 104.007C172.519 103.597 172.407 103.058 172.407 102.39V93.1436ZM183.64 102.724V95.4902H186.171V105H183.789L183.64 102.724ZM183.921 100.772L184.668 100.755C184.668 101.388 184.595 101.977 184.448 102.521C184.302 103.061 184.082 103.529 183.789 103.928C183.496 104.32 183.127 104.628 182.682 104.851C182.236 105.067 181.712 105.176 181.108 105.176C180.646 105.176 180.218 105.111 179.825 104.982C179.438 104.848 179.104 104.64 178.823 104.358C178.548 104.071 178.331 103.705 178.173 103.26C178.021 102.809 177.944 102.267 177.944 101.634V95.4902H180.476V101.651C180.476 101.933 180.508 102.17 180.572 102.363C180.643 102.557 180.739 102.715 180.862 102.838C180.985 102.961 181.129 103.049 181.293 103.102C181.463 103.154 181.65 103.181 181.855 103.181C182.377 103.181 182.787 103.075 183.086 102.864C183.391 102.653 183.604 102.366 183.728 102.003C183.856 101.634 183.921 101.224 183.921 100.772ZM190.776 95.4902V105H188.236V95.4902H190.776ZM188.078 93.0117C188.078 92.6426 188.207 92.3379 188.465 92.0977C188.723 91.8574 189.068 91.7373 189.502 91.7373C189.93 91.7373 190.272 91.8574 190.53 92.0977C190.794 92.3379 190.926 92.6426 190.926 93.0117C190.926 93.3809 190.794 93.6855 190.53 93.9258C190.272 94.166 189.93 94.2861 189.502 94.2861C189.068 94.2861 188.723 94.166 188.465 93.9258C188.207 93.6855 188.078 93.3809 188.078 93.0117ZM197.526 95.4902V97.2832H191.989V95.4902H197.526ZM193.36 93.1436H195.892V102.135C195.892 102.41 195.927 102.621 195.997 102.768C196.073 102.914 196.185 103.017 196.331 103.075C196.478 103.128 196.662 103.154 196.885 103.154C197.043 103.154 197.184 103.148 197.307 103.137C197.436 103.119 197.544 103.102 197.632 103.084L197.641 104.947C197.424 105.018 197.189 105.073 196.938 105.114C196.686 105.155 196.407 105.176 196.103 105.176C195.546 105.176 195.06 105.085 194.644 104.903C194.233 104.716 193.917 104.417 193.694 104.007C193.472 103.597 193.36 103.058 193.36 102.39V93.1436ZM198.335 100.342V100.157C198.335 99.46 198.435 98.8184 198.634 98.2324C198.833 97.6406 199.123 97.1279 199.504 96.6943C199.885 96.2607 200.354 95.9238 200.91 95.6836C201.467 95.4375 202.105 95.3145 202.826 95.3145C203.547 95.3145 204.188 95.4375 204.751 95.6836C205.313 95.9238 205.785 96.2607 206.166 96.6943C206.553 97.1279 206.846 97.6406 207.045 98.2324C207.244 98.8184 207.344 99.46 207.344 100.157V100.342C207.344 101.033 207.244 101.675 207.045 102.267C206.846 102.853 206.553 103.365 206.166 103.805C205.785 104.238 205.316 104.575 204.76 104.815C204.203 105.056 203.564 105.176 202.844 105.176C202.123 105.176 201.481 105.056 200.919 104.815C200.362 104.575 199.891 104.238 199.504 103.805C199.123 103.365 198.833 102.853 198.634 102.267C198.435 101.675 198.335 101.033 198.335 100.342ZM200.866 100.157V100.342C200.866 100.74 200.901 101.112 200.972 101.458C201.042 101.804 201.153 102.108 201.306 102.372C201.464 102.63 201.669 102.832 201.921 102.979C202.173 103.125 202.48 103.198 202.844 103.198C203.195 103.198 203.497 103.125 203.749 102.979C204.001 102.832 204.203 102.63 204.355 102.372C204.508 102.108 204.619 101.804 204.689 101.458C204.766 101.112 204.804 100.74 204.804 100.342V100.157C204.804 99.7705 204.766 99.4072 204.689 99.0674C204.619 98.7217 204.505 98.417 204.347 98.1533C204.194 97.8838 203.992 97.6729 203.74 97.5205C203.488 97.3682 203.184 97.292 202.826 97.292C202.469 97.292 202.164 97.3682 201.912 97.5205C201.666 97.6729 201.464 97.8838 201.306 98.1533C201.153 98.417 201.042 98.7217 200.972 99.0674C200.901 99.4072 200.866 99.7705 200.866 100.157ZM39.9385 118.318V129.656H37.4072V116.49H39.7539L39.9385 118.318ZM45.959 121.14V121.324C45.959 122.016 45.877 122.657 45.7129 123.249C45.5547 123.841 45.3203 124.356 45.0098 124.796C44.6992 125.229 44.3125 125.569 43.8496 125.815C43.3926 126.056 42.8652 126.176 42.2676 126.176C41.6875 126.176 41.1836 126.059 40.7559 125.824C40.3281 125.59 39.9678 125.262 39.6748 124.84C39.3877 124.412 39.1562 123.917 38.9805 123.354C38.8047 122.792 38.6699 122.188 38.5762 121.544V121.061C38.6699 120.369 38.8047 119.736 38.9805 119.162C39.1562 118.582 39.3877 118.081 39.6748 117.659C39.9678 117.231 40.3252 116.9 40.7471 116.666C41.1748 116.432 41.6758 116.314 42.25 116.314C42.8535 116.314 43.3838 116.429 43.8408 116.657C44.3037 116.886 44.6904 117.214 45.001 117.642C45.3174 118.069 45.5547 118.579 45.7129 119.171C45.877 119.763 45.959 120.419 45.959 121.14ZM43.4189 121.324V121.14C43.4189 120.735 43.3838 120.363 43.3135 120.023C43.249 119.678 43.1436 119.376 42.9971 119.118C42.8564 118.86 42.6689 118.661 42.4346 118.521C42.2061 118.374 41.9277 118.301 41.5996 118.301C41.2539 118.301 40.958 118.356 40.7119 118.468C40.4717 118.579 40.2754 118.74 40.123 118.951C39.9707 119.162 39.8564 119.414 39.7803 119.707C39.7041 120 39.6572 120.331 39.6396 120.7V121.922C39.6689 122.355 39.751 122.745 39.8857 123.091C40.0205 123.431 40.2285 123.7 40.5098 123.899C40.791 124.099 41.1602 124.198 41.6172 124.198C41.9512 124.198 42.2324 124.125 42.4609 123.979C42.6895 123.826 42.874 123.618 43.0146 123.354C43.1611 123.091 43.2637 122.786 43.3223 122.44C43.3867 122.095 43.4189 121.723 43.4189 121.324ZM52.665 123.855V119.619C52.665 119.314 52.6152 119.054 52.5156 118.837C52.416 118.614 52.2607 118.441 52.0498 118.318C51.8447 118.195 51.5781 118.134 51.25 118.134C50.9688 118.134 50.7256 118.184 50.5205 118.283C50.3154 118.377 50.1572 118.515 50.0459 118.696C49.9346 118.872 49.8789 119.08 49.8789 119.32H47.3477C47.3477 118.916 47.4414 118.532 47.6289 118.169C47.8164 117.806 48.0889 117.486 48.4463 117.211C48.8037 116.93 49.2285 116.71 49.7207 116.552C50.2188 116.394 50.7754 116.314 51.3906 116.314C52.1289 116.314 52.7852 116.438 53.3594 116.684C53.9336 116.93 54.3848 117.299 54.7129 117.791C55.0469 118.283 55.2139 118.898 55.2139 119.637V123.706C55.2139 124.228 55.2461 124.655 55.3105 124.989C55.375 125.317 55.4688 125.604 55.5918 125.851V126H53.0342C52.9111 125.742 52.8174 125.42 52.7529 125.033C52.6943 124.641 52.665 124.248 52.665 123.855ZM52.999 120.208L53.0166 121.641H51.6016C51.2676 121.641 50.9775 121.679 50.7314 121.755C50.4854 121.831 50.2832 121.939 50.125 122.08C49.9668 122.215 49.8496 122.373 49.7734 122.555C49.7031 122.736 49.668 122.936 49.668 123.152C49.668 123.369 49.7178 123.565 49.8174 123.741C49.917 123.911 50.0605 124.046 50.248 124.146C50.4355 124.239 50.6553 124.286 50.9072 124.286C51.2881 124.286 51.6191 124.21 51.9004 124.058C52.1816 123.905 52.3984 123.718 52.5508 123.495C52.709 123.272 52.791 123.062 52.7969 122.862L53.4648 123.935C53.3711 124.175 53.2422 124.424 53.0781 124.682C52.9199 124.939 52.7178 125.183 52.4717 125.411C52.2256 125.634 51.9297 125.818 51.584 125.965C51.2383 126.105 50.8281 126.176 50.3535 126.176C49.75 126.176 49.2021 126.056 48.71 125.815C48.2236 125.569 47.8369 125.232 47.5498 124.805C47.2686 124.371 47.1279 123.879 47.1279 123.328C47.1279 122.83 47.2217 122.388 47.4092 122.001C47.5967 121.614 47.8721 121.289 48.2354 121.025C48.6045 120.756 49.0645 120.554 49.6152 120.419C50.166 120.278 50.8047 120.208 51.5312 120.208H52.999ZM59.6963 118.564V126H57.165V116.49H59.5469L59.6963 118.564ZM62.5615 116.429L62.5176 118.775C62.3945 118.758 62.2451 118.743 62.0693 118.731C61.8994 118.714 61.7441 118.705 61.6035 118.705C61.2461 118.705 60.9355 118.752 60.6719 118.846C60.4141 118.934 60.1973 119.065 60.0215 119.241C59.8516 119.417 59.7227 119.631 59.6348 119.883C59.5527 120.135 59.5059 120.422 59.4941 120.744L58.9844 120.586C58.9844 119.971 59.0459 119.405 59.1689 118.89C59.292 118.368 59.4707 117.914 59.7051 117.527C59.9453 117.141 60.2383 116.842 60.584 116.631C60.9297 116.42 61.3252 116.314 61.7705 116.314C61.9111 116.314 62.0547 116.326 62.2012 116.35C62.3477 116.367 62.4678 116.394 62.5615 116.429ZM68.5908 123.855V119.619C68.5908 119.314 68.541 119.054 68.4414 118.837C68.3418 118.614 68.1865 118.441 67.9756 118.318C67.7705 118.195 67.5039 118.134 67.1758 118.134C66.8945 118.134 66.6514 118.184 66.4463 118.283C66.2412 118.377 66.083 118.515 65.9717 118.696C65.8604 118.872 65.8047 119.08 65.8047 119.32H63.2734C63.2734 118.916 63.3672 118.532 63.5547 118.169C63.7422 117.806 64.0146 117.486 64.3721 117.211C64.7295 116.93 65.1543 116.71 65.6465 116.552C66.1445 116.394 66.7012 116.314 67.3164 116.314C68.0547 116.314 68.7109 116.438 69.2852 116.684C69.8594 116.93 70.3105 117.299 70.6387 117.791C70.9727 118.283 71.1396 118.898 71.1396 119.637V123.706C71.1396 124.228 71.1719 124.655 71.2363 124.989C71.3008 125.317 71.3945 125.604 71.5176 125.851V126H68.96C68.8369 125.742 68.7432 125.42 68.6787 125.033C68.6201 124.641 68.5908 124.248 68.5908 123.855ZM68.9248 120.208L68.9424 121.641H67.5273C67.1934 121.641 66.9033 121.679 66.6572 121.755C66.4111 121.831 66.209 121.939 66.0508 122.08C65.8926 122.215 65.7754 122.373 65.6992 122.555C65.6289 122.736 65.5938 122.936 65.5938 123.152C65.5938 123.369 65.6436 123.565 65.7432 123.741C65.8428 123.911 65.9863 124.046 66.1738 124.146C66.3613 124.239 66.5811 124.286 66.833 124.286C67.2139 124.286 67.5449 124.21 67.8262 124.058C68.1074 123.905 68.3242 123.718 68.4766 123.495C68.6348 123.272 68.7168 123.062 68.7227 122.862L69.3906 123.935C69.2969 124.175 69.168 124.424 69.0039 124.682C68.8457 124.939 68.6436 125.183 68.3975 125.411C68.1514 125.634 67.8555 125.818 67.5098 125.965C67.1641 126.105 66.7539 126.176 66.2793 126.176C65.6758 126.176 65.1279 126.056 64.6357 125.815C64.1494 125.569 63.7627 125.232 63.4756 124.805C63.1943 124.371 63.0537 123.879 63.0537 123.328C63.0537 122.83 63.1475 122.388 63.335 122.001C63.5225 121.614 63.7979 121.289 64.1611 121.025C64.5303 120.756 64.9902 120.554 65.541 120.419C66.0918 120.278 66.7305 120.208 67.457 120.208H68.9248ZM81.502 124.198C81.8125 124.198 82.0879 124.14 82.3281 124.022C82.5684 123.899 82.7559 123.729 82.8906 123.513C83.0312 123.29 83.1045 123.029 83.1104 122.73H85.4922C85.4863 123.398 85.3076 123.993 84.9561 124.515C84.6045 125.03 84.1328 125.438 83.541 125.736C82.9492 126.029 82.2871 126.176 81.5547 126.176C80.8164 126.176 80.1719 126.053 79.6211 125.807C79.0762 125.561 78.6221 125.221 78.2588 124.787C77.8955 124.348 77.623 123.838 77.4414 123.258C77.2598 122.672 77.1689 122.045 77.1689 121.377V121.122C77.1689 120.448 77.2598 119.821 77.4414 119.241C77.623 118.655 77.8955 118.146 78.2588 117.712C78.6221 117.272 79.0762 116.93 79.6211 116.684C80.166 116.438 80.8047 116.314 81.5371 116.314C82.3164 116.314 82.999 116.464 83.585 116.763C84.1768 117.062 84.6396 117.489 84.9736 118.046C85.3135 118.597 85.4863 119.25 85.4922 120.006H83.1104C83.1045 119.689 83.0371 119.402 82.9082 119.145C82.7852 118.887 82.6035 118.682 82.3633 118.529C82.1289 118.371 81.8389 118.292 81.4932 118.292C81.124 118.292 80.8223 118.371 80.5879 118.529C80.3535 118.682 80.1719 118.893 80.043 119.162C79.9141 119.426 79.8232 119.728 79.7705 120.067C79.7236 120.401 79.7002 120.753 79.7002 121.122V121.377C79.7002 121.746 79.7236 122.101 79.7705 122.44C79.8174 122.78 79.9053 123.082 80.0342 123.346C80.1689 123.609 80.3535 123.817 80.5879 123.97C80.8223 124.122 81.127 124.198 81.502 124.198ZM86.5557 121.342V121.157C86.5557 120.46 86.6553 119.818 86.8545 119.232C87.0537 118.641 87.3438 118.128 87.7246 117.694C88.1055 117.261 88.5742 116.924 89.1309 116.684C89.6875 116.438 90.3262 116.314 91.0469 116.314C91.7676 116.314 92.4092 116.438 92.9717 116.684C93.5342 116.924 94.0059 117.261 94.3867 117.694C94.7734 118.128 95.0664 118.641 95.2656 119.232C95.4648 119.818 95.5645 120.46 95.5645 121.157V121.342C95.5645 122.033 95.4648 122.675 95.2656 123.267C95.0664 123.853 94.7734 124.365 94.3867 124.805C94.0059 125.238 93.5371 125.575 92.9805 125.815C92.4238 126.056 91.7852 126.176 91.0645 126.176C90.3438 126.176 89.7021 126.056 89.1396 125.815C88.583 125.575 88.1113 125.238 87.7246 124.805C87.3438 124.365 87.0537 123.853 86.8545 123.267C86.6553 122.675 86.5557 122.033 86.5557 121.342ZM89.0869 121.157V121.342C89.0869 121.74 89.1221 122.112 89.1924 122.458C89.2627 122.804 89.374 123.108 89.5264 123.372C89.6846 123.63 89.8896 123.832 90.1416 123.979C90.3936 124.125 90.7012 124.198 91.0645 124.198C91.416 124.198 91.7178 124.125 91.9697 123.979C92.2217 123.832 92.4238 123.63 92.5762 123.372C92.7285 123.108 92.8398 122.804 92.9102 122.458C92.9863 122.112 93.0244 121.74 93.0244 121.342V121.157C93.0244 120.771 92.9863 120.407 92.9102 120.067C92.8398 119.722 92.7256 119.417 92.5674 119.153C92.415 118.884 92.2129 118.673 91.9609 118.521C91.709 118.368 91.4043 118.292 91.0469 118.292C90.6895 118.292 90.3848 118.368 90.1328 118.521C89.8867 118.673 89.6846 118.884 89.5264 119.153C89.374 119.417 89.2627 119.722 89.1924 120.067C89.1221 120.407 89.0869 120.771 89.0869 121.157ZM99.5986 118.521V126H97.0674V116.49H99.4404L99.5986 118.521ZM99.2295 120.911H98.5439C98.5439 120.208 98.6348 119.575 98.8164 119.013C98.998 118.444 99.2529 117.961 99.5811 117.562C99.9092 117.158 100.299 116.851 100.75 116.64C101.207 116.423 101.717 116.314 102.279 116.314C102.725 116.314 103.132 116.379 103.501 116.508C103.87 116.637 104.187 116.842 104.45 117.123C104.72 117.404 104.925 117.776 105.065 118.239C105.212 118.702 105.285 119.268 105.285 119.936V126H102.736V119.927C102.736 119.505 102.678 119.177 102.561 118.942C102.443 118.708 102.271 118.544 102.042 118.45C101.819 118.351 101.544 118.301 101.216 118.301C100.876 118.301 100.58 118.368 100.328 118.503C100.082 118.638 99.877 118.825 99.7129 119.065C99.5547 119.3 99.4346 119.575 99.3525 119.892C99.2705 120.208 99.2295 120.548 99.2295 120.911ZM106.806 121.342V121.157C106.806 120.46 106.905 119.818 107.104 119.232C107.304 118.641 107.594 118.128 107.975 117.694C108.355 117.261 108.824 116.924 109.381 116.684C109.938 116.438 110.576 116.314 111.297 116.314C112.018 116.314 112.659 116.438 113.222 116.684C113.784 116.924 114.256 117.261 114.637 117.694C115.023 118.128 115.316 118.641 115.516 119.232C115.715 119.818 115.814 120.46 115.814 121.157V121.342C115.814 122.033 115.715 122.675 115.516 123.267C115.316 123.853 115.023 124.365 114.637 124.805C114.256 125.238 113.787 125.575 113.23 125.815C112.674 126.056 112.035 126.176 111.314 126.176C110.594 126.176 109.952 126.056 109.39 125.815C108.833 125.575 108.361 125.238 107.975 124.805C107.594 124.365 107.304 123.853 107.104 123.267C106.905 122.675 106.806 122.033 106.806 121.342ZM109.337 121.157V121.342C109.337 121.74 109.372 122.112 109.442 122.458C109.513 122.804 109.624 123.108 109.776 123.372C109.935 123.63 110.14 123.832 110.392 123.979C110.644 124.125 110.951 124.198 111.314 124.198C111.666 124.198 111.968 124.125 112.22 123.979C112.472 123.832 112.674 123.63 112.826 123.372C112.979 123.108 113.09 122.804 113.16 122.458C113.236 122.112 113.274 121.74 113.274 121.342V121.157C113.274 120.771 113.236 120.407 113.16 120.067C113.09 119.722 112.976 119.417 112.817 119.153C112.665 118.884 112.463 118.673 112.211 118.521C111.959 118.368 111.654 118.292 111.297 118.292C110.939 118.292 110.635 118.368 110.383 118.521C110.137 118.673 109.935 118.884 109.776 119.153C109.624 119.417 109.513 119.722 109.442 120.067C109.372 120.407 109.337 120.771 109.337 121.157ZM121.299 124.198C121.609 124.198 121.885 124.14 122.125 124.022C122.365 123.899 122.553 123.729 122.688 123.513C122.828 123.29 122.901 123.029 122.907 122.73H125.289C125.283 123.398 125.104 123.993 124.753 124.515C124.401 125.03 123.93 125.438 123.338 125.736C122.746 126.029 122.084 126.176 121.352 126.176C120.613 126.176 119.969 126.053 119.418 125.807C118.873 125.561 118.419 125.221 118.056 124.787C117.692 124.348 117.42 123.838 117.238 123.258C117.057 122.672 116.966 122.045 116.966 121.377V121.122C116.966 120.448 117.057 119.821 117.238 119.241C117.42 118.655 117.692 118.146 118.056 117.712C118.419 117.272 118.873 116.93 119.418 116.684C119.963 116.438 120.602 116.314 121.334 116.314C122.113 116.314 122.796 116.464 123.382 116.763C123.974 117.062 124.437 117.489 124.771 118.046C125.11 118.597 125.283 119.25 125.289 120.006H122.907C122.901 119.689 122.834 119.402 122.705 119.145C122.582 118.887 122.4 118.682 122.16 118.529C121.926 118.371 121.636 118.292 121.29 118.292C120.921 118.292 120.619 118.371 120.385 118.529C120.15 118.682 119.969 118.893 119.84 119.162C119.711 119.426 119.62 119.728 119.567 120.067C119.521 120.401 119.497 120.753 119.497 121.122V121.377C119.497 121.746 119.521 122.101 119.567 122.44C119.614 122.78 119.702 123.082 119.831 123.346C119.966 123.609 120.15 123.817 120.385 123.97C120.619 124.122 120.924 124.198 121.299 124.198ZM131.134 126.176C130.396 126.176 129.733 126.059 129.147 125.824C128.562 125.584 128.063 125.253 127.653 124.831C127.249 124.409 126.938 123.92 126.722 123.363C126.505 122.801 126.396 122.203 126.396 121.57V121.219C126.396 120.498 126.499 119.839 126.704 119.241C126.909 118.644 127.202 118.125 127.583 117.686C127.97 117.246 128.438 116.909 128.989 116.675C129.54 116.435 130.161 116.314 130.853 116.314C131.526 116.314 132.124 116.426 132.646 116.648C133.167 116.871 133.604 117.188 133.955 117.598C134.312 118.008 134.582 118.5 134.764 119.074C134.945 119.643 135.036 120.275 135.036 120.973V122.027H127.478V120.34H132.549V120.146C132.549 119.795 132.484 119.481 132.355 119.206C132.232 118.925 132.045 118.702 131.793 118.538C131.541 118.374 131.219 118.292 130.826 118.292C130.492 118.292 130.205 118.365 129.965 118.512C129.725 118.658 129.528 118.863 129.376 119.127C129.229 119.391 129.118 119.701 129.042 120.059C128.972 120.41 128.937 120.797 128.937 121.219V121.57C128.937 121.951 128.989 122.303 129.095 122.625C129.206 122.947 129.361 123.226 129.561 123.46C129.766 123.694 130.012 123.876 130.299 124.005C130.592 124.134 130.923 124.198 131.292 124.198C131.749 124.198 132.174 124.11 132.566 123.935C132.965 123.753 133.308 123.48 133.595 123.117L134.825 124.453C134.626 124.74 134.354 125.016 134.008 125.279C133.668 125.543 133.258 125.76 132.777 125.93C132.297 126.094 131.749 126.176 131.134 126.176ZM139.009 118.564V126H136.478V116.49H138.859L139.009 118.564ZM141.874 116.429L141.83 118.775C141.707 118.758 141.558 118.743 141.382 118.731C141.212 118.714 141.057 118.705 140.916 118.705C140.559 118.705 140.248 118.752 139.984 118.846C139.727 118.934 139.51 119.065 139.334 119.241C139.164 119.417 139.035 119.631 138.947 119.883C138.865 120.135 138.818 120.422 138.807 120.744L138.297 120.586C138.297 119.971 138.358 119.405 138.481 118.89C138.604 118.368 138.783 117.914 139.018 117.527C139.258 117.141 139.551 116.842 139.896 116.631C140.242 116.42 140.638 116.314 141.083 116.314C141.224 116.314 141.367 116.326 141.514 116.35C141.66 116.367 141.78 116.394 141.874 116.429ZM152.21 116.49V118.283H146.673V116.49H152.21ZM148.044 114.144H150.575V123.135C150.575 123.41 150.61 123.621 150.681 123.768C150.757 123.914 150.868 124.017 151.015 124.075C151.161 124.128 151.346 124.154 151.568 124.154C151.727 124.154 151.867 124.148 151.99 124.137C152.119 124.119 152.228 124.102 152.315 124.084L152.324 125.947C152.107 126.018 151.873 126.073 151.621 126.114C151.369 126.155 151.091 126.176 150.786 126.176C150.229 126.176 149.743 126.085 149.327 125.903C148.917 125.716 148.601 125.417 148.378 125.007C148.155 124.597 148.044 124.058 148.044 123.39V114.144ZM159.276 123.724V116.49H161.808V126H159.426L159.276 123.724ZM159.558 121.772L160.305 121.755C160.305 122.388 160.231 122.977 160.085 123.521C159.938 124.061 159.719 124.529 159.426 124.928C159.133 125.32 158.764 125.628 158.318 125.851C157.873 126.067 157.349 126.176 156.745 126.176C156.282 126.176 155.854 126.111 155.462 125.982C155.075 125.848 154.741 125.64 154.46 125.358C154.185 125.071 153.968 124.705 153.81 124.26C153.657 123.809 153.581 123.267 153.581 122.634V116.49H156.112V122.651C156.112 122.933 156.145 123.17 156.209 123.363C156.279 123.557 156.376 123.715 156.499 123.838C156.622 123.961 156.766 124.049 156.93 124.102C157.1 124.154 157.287 124.181 157.492 124.181C158.014 124.181 158.424 124.075 158.723 123.864C159.027 123.653 159.241 123.366 159.364 123.003C159.493 122.634 159.558 122.224 159.558 121.772ZM170.702 118.521V126H168.171V116.49H170.544L170.702 118.521ZM170.333 120.911H169.647C169.647 120.208 169.738 119.575 169.92 119.013C170.102 118.444 170.356 117.961 170.685 117.562C171.013 117.158 171.402 116.851 171.854 116.64C172.311 116.423 172.82 116.314 173.383 116.314C173.828 116.314 174.235 116.379 174.604 116.508C174.974 116.637 175.29 116.842 175.554 117.123C175.823 117.404 176.028 117.776 176.169 118.239C176.315 118.702 176.389 119.268 176.389 119.936V126H173.84V119.927C173.84 119.505 173.781 119.177 173.664 118.942C173.547 118.708 173.374 118.544 173.146 118.45C172.923 118.351 172.647 118.301 172.319 118.301C171.979 118.301 171.684 118.368 171.432 118.503C171.186 118.638 170.98 118.825 170.816 119.065C170.658 119.3 170.538 119.575 170.456 119.892C170.374 120.208 170.333 120.548 170.333 120.911ZM180.985 116.49V126H178.445V116.49H180.985ZM178.287 114.012C178.287 113.643 178.416 113.338 178.674 113.098C178.932 112.857 179.277 112.737 179.711 112.737C180.139 112.737 180.481 112.857 180.739 113.098C181.003 113.338 181.135 113.643 181.135 114.012C181.135 114.381 181.003 114.686 180.739 114.926C180.481 115.166 180.139 115.286 179.711 115.286C179.277 115.286 178.932 115.166 178.674 114.926C178.416 114.686 178.287 114.381 178.287 114.012ZM186.312 124.154L188.421 116.49H191.066L187.858 126H186.259L186.312 124.154ZM184.861 116.49L186.979 124.163L187.023 126H185.415L182.207 116.49H184.861ZM196.454 126.176C195.716 126.176 195.054 126.059 194.468 125.824C193.882 125.584 193.384 125.253 192.974 124.831C192.569 124.409 192.259 123.92 192.042 123.363C191.825 122.801 191.717 122.203 191.717 121.57V121.219C191.717 120.498 191.819 119.839 192.024 119.241C192.229 118.644 192.522 118.125 192.903 117.686C193.29 117.246 193.759 116.909 194.31 116.675C194.86 116.435 195.481 116.314 196.173 116.314C196.847 116.314 197.444 116.426 197.966 116.648C198.487 116.871 198.924 117.188 199.275 117.598C199.633 118.008 199.902 118.5 200.084 119.074C200.266 119.643 200.356 120.275 200.356 120.973V122.027H192.798V120.34H197.869V120.146C197.869 119.795 197.805 119.481 197.676 119.206C197.553 118.925 197.365 118.702 197.113 118.538C196.861 118.374 196.539 118.292 196.146 118.292C195.812 118.292 195.525 118.365 195.285 118.512C195.045 118.658 194.849 118.863 194.696 119.127C194.55 119.391 194.438 119.701 194.362 120.059C194.292 120.41 194.257 120.797 194.257 121.219V121.57C194.257 121.951 194.31 122.303 194.415 122.625C194.526 122.947 194.682 123.226 194.881 123.46C195.086 123.694 195.332 123.876 195.619 124.005C195.912 124.134 196.243 124.198 196.612 124.198C197.069 124.198 197.494 124.11 197.887 123.935C198.285 123.753 198.628 123.48 198.915 123.117L200.146 124.453C199.946 124.74 199.674 125.016 199.328 125.279C198.988 125.543 198.578 125.76 198.098 125.93C197.617 126.094 197.069 126.176 196.454 126.176ZM204.47 112.5V126H201.93V112.5H204.47Z" fill="white"/>
</svg>
