<svg width="242" height="218" viewBox="0 0 242 218" fill="none" xmlns="http://www.w3.org/2000/svg">
<path d="M0 109L60.5 0L120.998 109H0Z" fill="#CB9584"/>
<path d="M181.5 0L120.998 109L60.5 0H181.5Z" fill="#FF6E40"/>
<path d="M120.999 109L181.5 0L242 109H120.999Z" fill="#E45527"/>
<path d="M120.998 109L60.5 218L0 109H120.998Z" fill="#8A4B37"/>
<path d="M60.5 218L120.998 109L181.5 218H60.5Z" fill="#A7310B"/>
<path d="M242 109L181.5 218L120.999 109H242Z" fill="#D13B0B"/>
<path d="M56.9102 81.3125L54.0039 80.6211L55 71.9375H64.7734V74.832H58L57.5898 78.4297C57.8008 78.3047 58.1328 78.168 58.5859 78.0195C59.0391 77.8633 59.5469 77.7852 60.1094 77.7852C60.9453 77.7852 61.6875 77.9141 62.3359 78.1719C62.9844 78.4297 63.5312 78.8047 63.9766 79.2969C64.4297 79.7812 64.7695 80.3789 64.9961 81.0898C65.2305 81.8008 65.3477 82.6094 65.3477 83.5156C65.3477 84.2656 65.2305 84.9844 64.9961 85.6719C64.7617 86.3516 64.4023 86.9609 63.918 87.5C63.4414 88.0312 62.8359 88.4531 62.1016 88.7656C61.3672 89.0781 60.5039 89.2344 59.5117 89.2344C58.7617 89.2344 58.0352 89.1211 57.332 88.8945C56.6289 88.668 55.9961 88.3398 55.4336 87.9102C54.8789 87.4727 54.4375 86.9414 54.1094 86.3164C53.7891 85.6914 53.625 84.9883 53.6172 84.207H57.2734C57.3125 84.6602 57.4258 85.0508 57.6133 85.3789C57.8008 85.6992 58.0547 85.9492 58.375 86.1289C58.6953 86.3008 59.0664 86.3867 59.4883 86.3867C59.8945 86.3867 60.2383 86.3086 60.5195 86.1523C60.8008 85.9883 61.0234 85.7656 61.1875 85.4844C61.3594 85.2031 61.4844 84.875 61.5625 84.5C61.6406 84.125 61.6797 83.7227 61.6797 83.293C61.6797 82.8477 61.6289 82.4492 61.5273 82.0977C61.4258 81.7383 61.2695 81.4336 61.0586 81.1836C60.8477 80.9258 60.5781 80.7305 60.25 80.5977C59.9297 80.457 59.543 80.3867 59.0898 80.3867C58.4961 80.3867 58.0312 80.4844 57.6953 80.6797C57.3594 80.875 57.0977 81.0859 56.9102 81.3125ZM73.9141 93.3359L74.3594 81.582H77.3711L77.8164 93.3359H73.9141ZM77.9219 77.9492C77.9219 78.4727 77.7305 78.9141 77.3477 79.2734C76.9727 79.6328 76.4805 79.8125 75.8711 79.8125C75.2617 79.8125 74.7695 79.6328 74.3945 79.2734C74.0195 78.9141 73.832 78.4727 73.832 77.9492C73.832 77.418 74.0195 76.9766 74.3945 76.625C74.7695 76.2656 75.2617 76.0859 75.8711 76.0859C76.4805 76.0859 76.9727 76.2656 77.3477 76.625C77.7305 76.9766 77.9219 77.418 77.9219 77.9492ZM90.1094 71.9375H93.9297V83.1406C93.9297 84.4688 93.6484 85.5859 93.0859 86.4922C92.5312 87.3984 91.7578 88.082 90.7656 88.543C89.7734 89.0039 88.625 89.2344 87.3203 89.2344C86.0078 89.2344 84.8516 89.0039 83.8516 88.543C82.8594 88.082 82.0781 87.3984 81.5078 86.4922C80.9453 85.5859 80.6641 84.4688 80.6641 83.1406V71.9375H84.4961V83.1406C84.4961 83.875 84.6055 84.4766 84.8242 84.9453C85.0508 85.4062 85.375 85.7461 85.7969 85.9648C86.2188 86.1758 86.7266 86.2812 87.3203 86.2812C87.9141 86.2812 88.418 86.1758 88.832 85.9648C89.2539 85.7461 89.5703 85.4062 89.7812 84.9453C90 84.4766 90.1094 83.875 90.1094 83.1406V71.9375ZM85.5391 71.0117L87.8594 67.3672H91.7734L88.5273 71.0117H85.5391ZM100.059 79.0273V89H96.3906V76.3203H99.8359L100.059 79.0273ZM99.5781 82.2148L98.6641 82.2383C98.6641 81.2852 98.7812 80.4297 99.0156 79.6719C99.25 78.9141 99.582 78.2695 100.012 77.7383C100.449 77.1992 100.969 76.7891 101.57 76.5078C102.18 76.2266 102.852 76.0859 103.586 76.0859C104.18 76.0859 104.723 76.1719 105.215 76.3438C105.707 76.5156 106.129 76.793 106.48 77.1758C106.84 77.5508 107.113 78.0508 107.301 78.6758C107.488 79.293 107.582 80.0547 107.582 80.9609V89H103.902V80.9492C103.902 80.418 103.828 80.0078 103.68 79.7188C103.531 79.4297 103.312 79.2266 103.023 79.1094C102.742 78.9922 102.398 78.9336 101.992 78.9336C101.562 78.9336 101.195 79.0195 100.891 79.1914C100.586 79.3555 100.336 79.5859 100.141 79.8828C99.9453 80.1797 99.8008 80.5273 99.707 80.9258C99.6211 81.3242 99.5781 81.7539 99.5781 82.2148ZM115.949 89.2344C114.941 89.2344 114.039 89.0742 113.242 88.7539C112.445 88.4336 111.77 87.9922 111.215 87.4297C110.668 86.8594 110.25 86.2031 109.961 85.4609C109.672 84.7188 109.527 83.9258 109.527 83.082V82.6367C109.527 81.6914 109.66 80.8203 109.926 80.0234C110.191 79.2266 110.578 78.5352 111.086 77.9492C111.602 77.3555 112.234 76.8984 112.984 76.5781C113.734 76.25 114.59 76.0859 115.551 76.0859C116.449 76.0859 117.25 76.2344 117.953 76.5312C118.656 76.8203 119.25 77.2383 119.734 77.7852C120.219 78.3242 120.586 78.9766 120.836 79.7422C121.094 80.5 121.223 81.3516 121.223 82.2969V83.7969H111.004V81.4414H117.637V81.1602C117.637 80.7148 117.555 80.3242 117.391 79.9883C117.234 79.6523 117 79.3945 116.688 79.2148C116.383 79.0273 115.996 78.9336 115.527 78.9336C115.082 78.9336 114.711 79.0273 114.414 79.2148C114.117 79.4023 113.879 79.668 113.699 80.0117C113.527 80.3477 113.402 80.7422 113.324 81.1953C113.246 81.6406 113.207 82.1211 113.207 82.6367V83.082C113.207 83.5742 113.273 84.0234 113.406 84.4297C113.539 84.8359 113.734 85.1836 113.992 85.4727C114.25 85.7617 114.562 85.9883 114.93 86.1523C115.297 86.3164 115.715 86.3984 116.184 86.3984C116.762 86.3984 117.312 86.2891 117.836 86.0703C118.359 85.8438 118.812 85.4922 119.195 85.0156L120.906 86.9727C120.648 87.3477 120.285 87.7109 119.816 88.0625C119.355 88.4062 118.801 88.6875 118.152 88.9062C117.504 89.125 116.77 89.2344 115.949 89.2344ZM129.449 76.3203V78.8867H121.926V76.3203H129.449ZM123.648 73.1797H127.316V85.0273C127.316 85.3789 127.359 85.6484 127.445 85.8359C127.531 86.0234 127.672 86.1562 127.867 86.2344C128.062 86.3047 128.312 86.3398 128.617 86.3398C128.836 86.3398 129.023 86.332 129.18 86.3164C129.336 86.3008 129.48 86.2812 129.613 86.2578V88.9062C129.301 89.0078 128.969 89.0859 128.617 89.1406C128.266 89.2031 127.883 89.2344 127.469 89.2344C126.68 89.2344 125.996 89.1055 125.418 88.8477C124.848 88.5898 124.41 88.1836 124.105 87.6289C123.801 87.0664 123.648 86.3359 123.648 85.4375V73.1797ZM137.184 89.2344C136.176 89.2344 135.273 89.0742 134.477 88.7539C133.68 88.4336 133.004 87.9922 132.449 87.4297C131.902 86.8594 131.484 86.2031 131.195 85.4609C130.906 84.7188 130.762 83.9258 130.762 83.082V82.6367C130.762 81.6914 130.895 80.8203 131.16 80.0234C131.426 79.2266 131.812 78.5352 132.32 77.9492C132.836 77.3555 133.469 76.8984 134.219 76.5781C134.969 76.25 135.824 76.0859 136.785 76.0859C137.684 76.0859 138.484 76.2344 139.188 76.5312C139.891 76.8203 140.484 77.2383 140.969 77.7852C141.453 78.3242 141.82 78.9766 142.07 79.7422C142.328 80.5 142.457 81.3516 142.457 82.2969V83.7969H132.238V81.4414H138.871V81.1602C138.871 80.7148 138.789 80.3242 138.625 79.9883C138.469 79.6523 138.234 79.3945 137.922 79.2148C137.617 79.0273 137.23 78.9336 136.762 78.9336C136.316 78.9336 135.945 79.0273 135.648 79.2148C135.352 79.4023 135.113 79.668 134.934 80.0117C134.762 80.3477 134.637 80.7422 134.559 81.1953C134.48 81.6406 134.441 82.1211 134.441 82.6367V83.082C134.441 83.5742 134.508 84.0234 134.641 84.4297C134.773 84.8359 134.969 85.1836 135.227 85.4727C135.484 85.7617 135.797 85.9883 136.164 86.1523C136.531 86.3164 136.949 86.3984 137.418 86.3984C137.996 86.3984 138.547 86.2891 139.07 86.0703C139.594 85.8438 140.047 85.4922 140.43 85.0156L142.141 86.9727C141.883 87.3477 141.52 87.7109 141.051 88.0625C140.59 88.4062 140.035 88.6875 139.387 88.9062C138.738 89.125 138.004 89.2344 137.184 89.2344ZM156.93 85.9766V80.5391C156.93 80.1562 156.871 79.8281 156.754 79.5547C156.637 79.2812 156.453 79.0664 156.203 78.9102C155.953 78.7539 155.629 78.6758 155.23 78.6758C154.895 78.6758 154.602 78.7344 154.352 78.8516C154.109 78.9688 153.922 79.1367 153.789 79.3555C153.664 79.5742 153.602 79.8438 153.602 80.1641H149.945C149.945 79.5938 150.074 79.0625 150.332 78.5703C150.59 78.0781 150.957 77.6445 151.434 77.2695C151.918 76.8945 152.496 76.6055 153.168 76.4023C153.84 76.1914 154.594 76.0859 155.43 76.0859C156.422 76.0859 157.305 76.2539 158.078 76.5898C158.859 76.918 159.477 77.4141 159.93 78.0781C160.383 78.7344 160.609 79.5625 160.609 80.5625V85.8711C160.609 86.6367 160.652 87.2383 160.738 87.6758C160.832 88.1055 160.965 88.4805 161.137 88.8008V89H157.445C157.273 88.6328 157.145 88.1797 157.059 87.6406C156.973 87.0938 156.93 86.5391 156.93 85.9766ZM157.387 81.2656L157.41 83.2812H155.594C155.188 83.2812 154.836 83.332 154.539 83.4336C154.25 83.5352 154.016 83.6758 153.836 83.8555C153.656 84.0273 153.523 84.2305 153.438 84.4648C153.359 84.6914 153.32 84.9414 153.32 85.2148C153.32 85.4727 153.383 85.707 153.508 85.918C153.633 86.1211 153.805 86.2812 154.023 86.3984C154.242 86.5156 154.496 86.5742 154.785 86.5742C155.262 86.5742 155.668 86.4805 156.004 86.293C156.348 86.1055 156.613 85.8789 156.801 85.6133C156.988 85.3398 157.082 85.0859 157.082 84.8516L157.961 86.375C157.82 86.6875 157.648 87.0117 157.445 87.3477C157.242 87.6758 156.984 87.9844 156.672 88.2734C156.359 88.5547 155.98 88.7852 155.535 88.9648C155.098 89.1445 154.57 89.2344 153.953 89.2344C153.156 89.2344 152.434 89.0742 151.785 88.7539C151.137 88.4258 150.617 87.9766 150.227 87.4062C149.844 86.8359 149.652 86.1797 149.652 85.4375C149.652 84.7734 149.773 84.1836 150.016 83.668C150.258 83.1523 150.621 82.7148 151.105 82.3555C151.598 81.9961 152.215 81.7266 152.957 81.5469C153.699 81.3594 154.566 81.2656 155.559 81.2656H157.387ZM175.434 76.3203V78.8867H167.91V76.3203H175.434ZM169.633 73.1797H173.301V85.0273C173.301 85.3789 173.344 85.6484 173.43 85.8359C173.516 86.0234 173.656 86.1562 173.852 86.2344C174.047 86.3047 174.297 86.3398 174.602 86.3398C174.82 86.3398 175.008 86.332 175.164 86.3164C175.32 86.3008 175.465 86.2812 175.598 86.2578V88.9062C175.285 89.0078 174.953 89.0859 174.602 89.1406C174.25 89.2031 173.867 89.2344 173.453 89.2344C172.664 89.2344 171.98 89.1055 171.402 88.8477C170.832 88.5898 170.395 88.1836 170.09 87.6289C169.785 87.0664 169.633 86.3359 169.633 85.4375V73.1797ZM184.633 85.9414V76.3203H188.312V89H184.867L184.633 85.9414ZM185.02 83.3516L186.027 83.3281C186.027 84.1797 185.926 84.9648 185.723 85.6836C185.527 86.4023 185.23 87.0273 184.832 87.5586C184.441 88.0898 183.953 88.5039 183.367 88.8008C182.789 89.0898 182.113 89.2344 181.34 89.2344C180.715 89.2344 180.141 89.1484 179.617 88.9766C179.102 88.7969 178.656 88.5195 178.281 88.1445C177.906 87.7617 177.617 87.2734 177.414 86.6797C177.211 86.0781 177.109 85.3594 177.109 84.5234V76.3203H180.766V84.5469C180.766 84.875 180.805 85.1562 180.883 85.3906C180.969 85.6172 181.082 85.8047 181.223 85.9531C181.371 86.1016 181.551 86.2109 181.762 86.2812C181.98 86.3516 182.219 86.3867 182.477 86.3867C183.125 86.3867 183.633 86.2539 184 85.9883C184.375 85.7148 184.637 85.3516 184.785 84.8984C184.941 84.4375 185.02 83.9219 185.02 83.3516ZM40.5156 104.32H43.8438V116.543C43.8438 117.707 43.5781 118.695 43.0469 119.508C42.5234 120.32 41.793 120.938 40.8555 121.359C39.918 121.781 38.8203 121.992 37.5625 121.992C37.0156 121.992 36.4453 121.918 35.8516 121.77C35.2578 121.629 34.6992 121.414 34.1758 121.125C33.6523 120.844 33.2148 120.484 32.8633 120.047L34.4219 117.891C34.7812 118.297 35.2109 118.625 35.7109 118.875C36.2109 119.133 36.7812 119.262 37.4219 119.262C38.0078 119.262 38.5039 119.156 38.9102 118.945C39.3164 118.734 39.625 118.426 39.8359 118.02C40.0547 117.613 40.1641 117.121 40.1641 116.543V107.285L40.5156 104.32ZM32.043 110.812V110.566C32.043 109.605 32.1602 108.73 32.3945 107.941C32.6289 107.145 32.9688 106.461 33.4141 105.891C33.8672 105.312 34.4102 104.867 35.043 104.555C35.6836 104.242 36.4023 104.086 37.1992 104.086C38.0586 104.086 38.7695 104.25 39.332 104.578C39.8945 104.898 40.3516 105.352 40.7031 105.938C41.0547 106.516 41.332 107.199 41.5352 107.988C41.7383 108.77 41.9023 109.617 42.0273 110.531V110.953C41.9023 111.828 41.7227 112.645 41.4883 113.402C41.2539 114.16 40.9492 114.828 40.5742 115.406C40.1992 115.977 39.7305 116.426 39.168 116.754C38.6133 117.074 37.9492 117.234 37.1758 117.234C36.3867 117.234 35.6758 117.074 35.043 116.754C34.4102 116.434 33.8672 115.984 33.4141 115.406C32.9688 114.828 32.6289 114.148 32.3945 113.367C32.1602 112.586 32.043 111.734 32.043 110.812ZM35.6992 110.566V110.812C35.6992 111.312 35.7461 111.777 35.8398 112.207C35.9414 112.637 36.0898 113.016 36.2852 113.344C36.4883 113.672 36.7383 113.93 37.0352 114.117C37.3398 114.297 37.6953 114.387 38.1016 114.387C38.6953 114.387 39.1758 114.262 39.543 114.012C39.918 113.754 40.1914 113.398 40.3633 112.945C40.543 112.492 40.6367 111.965 40.6445 111.363V110.133C40.6445 109.633 40.5938 109.184 40.4922 108.785C40.3906 108.387 40.2383 108.051 40.0352 107.777C39.8398 107.504 39.582 107.297 39.2617 107.156C38.9492 107.008 38.5703 106.934 38.125 106.934C37.7266 106.934 37.375 107.027 37.0703 107.215C36.7656 107.395 36.5117 107.648 36.3086 107.977C36.1055 108.305 35.9531 108.691 35.8516 109.137C35.75 109.574 35.6992 110.051 35.6992 110.566ZM49.9492 107.273V117H46.293V104.32H49.7266L49.9492 107.273ZM53.7344 104.227L53.6758 107.637C53.5195 107.613 53.3164 107.594 53.0664 107.578C52.8164 107.555 52.6016 107.543 52.4219 107.543C51.9531 107.543 51.5469 107.602 51.2031 107.719C50.8672 107.828 50.5859 107.992 50.3594 108.211C50.1406 108.43 49.9766 108.703 49.8672 109.031C49.7578 109.352 49.7031 109.723 49.7031 110.145L49.0117 109.805C49.0117 108.969 49.0938 108.203 49.2578 107.508C49.4219 106.812 49.6602 106.211 49.9727 105.703C50.2852 105.188 50.668 104.789 51.1211 104.508C51.5742 104.227 52.0898 104.086 52.668 104.086C52.8555 104.086 53.0469 104.098 53.2422 104.121C53.4375 104.145 53.6016 104.18 53.7344 104.227ZM62.6758 113.941V104.32H66.3555V117H62.9102L62.6758 113.941ZM63.0625 111.352L64.0703 111.328C64.0703 112.18 63.9688 112.965 63.7656 113.684C63.5703 114.402 63.2734 115.027 62.875 115.559C62.4844 116.09 61.9961 116.504 61.4102 116.801C60.832 117.09 60.1562 117.234 59.3828 117.234C58.7578 117.234 58.1836 117.148 57.6602 116.977C57.1445 116.797 56.6992 116.52 56.3242 116.145C55.9492 115.762 55.6602 115.273 55.457 114.68C55.2539 114.078 55.1523 113.359 55.1523 112.523V104.32H58.8086V112.547C58.8086 112.875 58.8477 113.156 58.9258 113.391C59.0117 113.617 59.125 113.805 59.2656 113.953C59.4141 114.102 59.5938 114.211 59.8047 114.281C60.0234 114.352 60.2617 114.387 60.5195 114.387C61.168 114.387 61.6758 114.254 62.043 113.988C62.418 113.715 62.6797 113.352 62.8281 112.898C62.9844 112.438 63.0625 111.922 63.0625 111.352ZM72.4023 106.758V121.875H68.7461V104.32H72.1562L72.4023 106.758ZM80.3125 110.52V110.766C80.3125 111.688 80.207 112.543 79.9961 113.332C79.7852 114.113 79.4688 114.797 79.0469 115.383C78.6328 115.969 78.1211 116.426 77.5117 116.754C76.9023 117.074 76.1953 117.234 75.3906 117.234C74.625 117.234 73.9609 117.074 73.3984 116.754C72.8438 116.426 72.375 115.973 71.9922 115.395C71.6172 114.809 71.3125 114.141 71.0781 113.391C70.8516 112.633 70.6758 111.824 70.5508 110.965V110.484C70.6758 109.57 70.8555 108.723 71.0898 107.941C71.3242 107.16 71.6289 106.484 72.0039 105.914C72.3789 105.336 72.8438 104.887 73.3984 104.566C73.9531 104.246 74.6133 104.086 75.3789 104.086C76.1758 104.086 76.8828 104.238 77.5 104.543C78.1172 104.848 78.6328 105.285 79.0469 105.855C79.4688 106.418 79.7852 107.094 79.9961 107.883C80.207 108.672 80.3125 109.551 80.3125 110.52ZM76.6445 110.766V110.52C76.6445 110.004 76.6055 109.531 76.5273 109.102C76.4492 108.664 76.3242 108.285 76.1523 107.965C75.9805 107.637 75.7539 107.383 75.4727 107.203C75.1914 107.023 74.8477 106.934 74.4414 106.934C74.0039 106.934 73.6328 107.004 73.3281 107.145C73.0234 107.285 72.7773 107.492 72.5898 107.766C72.4023 108.031 72.2656 108.359 72.1797 108.75C72.1016 109.141 72.0586 109.586 72.0508 110.086V111.375C72.0586 111.961 72.1406 112.484 72.2969 112.945C72.4609 113.398 72.7148 113.754 73.0586 114.012C73.4102 114.262 73.8789 114.387 74.4648 114.387C74.8789 114.387 75.2227 114.297 75.4961 114.117C75.7773 113.93 76 113.668 76.1641 113.332C76.3359 112.996 76.457 112.609 76.5273 112.172C76.6055 111.734 76.6445 111.266 76.6445 110.766ZM81.7305 110.789V110.543C81.7305 109.613 81.8633 108.758 82.1289 107.977C82.3945 107.188 82.7852 106.504 83.3008 105.926C83.8164 105.348 84.4492 104.898 85.1992 104.578C85.9492 104.25 86.8086 104.086 87.7773 104.086C88.7617 104.086 89.6289 104.25 90.3789 104.578C91.1367 104.898 91.7734 105.348 92.2891 105.926C92.8047 106.504 93.1953 107.188 93.4609 107.977C93.7266 108.758 93.8594 109.613 93.8594 110.543V110.789C93.8594 111.711 93.7266 112.566 93.4609 113.355C93.1953 114.137 92.8047 114.82 92.2891 115.406C91.7734 115.984 91.1406 116.434 90.3906 116.754C89.6406 117.074 88.7773 117.234 87.8008 117.234C86.832 117.234 85.9688 117.074 85.2109 116.754C84.4531 116.434 83.8164 115.984 83.3008 115.406C82.7852 114.82 82.3945 114.137 82.1289 113.355C81.8633 112.566 81.7305 111.711 81.7305 110.789ZM85.3984 110.543V110.789C85.3984 111.289 85.4375 111.758 85.5156 112.195C85.6016 112.633 85.7383 113.016 85.9258 113.344C86.1133 113.672 86.3594 113.93 86.6641 114.117C86.9766 114.297 87.3555 114.387 87.8008 114.387C88.2461 114.387 88.6211 114.297 88.9258 114.117C89.2305 113.93 89.4766 113.672 89.6641 113.344C89.8516 113.016 89.9844 112.633 90.0625 112.195C90.1484 111.758 90.1914 111.289 90.1914 110.789V110.543C90.1914 110.051 90.1484 109.59 90.0625 109.16C89.9844 108.723 89.8516 108.336 89.6641 108C89.4766 107.664 89.2266 107.402 88.9141 107.215C88.6094 107.027 88.2305 106.934 87.7773 106.934C87.3398 106.934 86.9688 107.027 86.6641 107.215C86.3594 107.402 86.1133 107.664 85.9258 108C85.7383 108.336 85.6016 108.723 85.5156 109.16C85.4375 109.59 85.3984 110.051 85.3984 110.543ZM105.578 115.535L108.895 104.32H112.832L107.734 118.898C107.625 119.219 107.477 119.562 107.289 119.93C107.109 120.297 106.863 120.648 106.551 120.984C106.246 121.32 105.855 121.594 105.379 121.805C104.902 122.016 104.316 122.121 103.621 122.121C103.27 122.121 102.996 122.102 102.801 122.062C102.613 122.031 102.363 121.977 102.051 121.898L102.039 119.238C102.141 119.238 102.23 119.238 102.309 119.238C102.395 119.246 102.48 119.25 102.566 119.25C103.004 119.25 103.355 119.203 103.621 119.109C103.895 119.016 104.105 118.875 104.254 118.688C104.41 118.508 104.535 118.277 104.629 117.996L105.578 115.535ZM104.465 104.32L107.09 113.344L107.535 117.223L105.062 117.352L100.527 104.32H104.465ZM125.969 117.234C124.961 117.234 124.059 117.074 123.262 116.754C122.465 116.434 121.789 115.992 121.234 115.43C120.688 114.859 120.27 114.203 119.98 113.461C119.691 112.719 119.547 111.926 119.547 111.082V110.637C119.547 109.691 119.68 108.82 119.945 108.023C120.211 107.227 120.598 106.535 121.105 105.949C121.621 105.355 122.254 104.898 123.004 104.578C123.754 104.25 124.609 104.086 125.57 104.086C126.469 104.086 127.27 104.234 127.973 104.531C128.676 104.82 129.27 105.238 129.754 105.785C130.238 106.324 130.605 106.977 130.855 107.742C131.113 108.5 131.242 109.352 131.242 110.297V111.797H121.023V109.441H127.656V109.16C127.656 108.715 127.574 108.324 127.41 107.988C127.254 107.652 127.02 107.395 126.707 107.215C126.402 107.027 126.016 106.934 125.547 106.934C125.102 106.934 124.73 107.027 124.434 107.215C124.137 107.402 123.898 107.668 123.719 108.012C123.547 108.348 123.422 108.742 123.344 109.195C123.266 109.641 123.227 110.121 123.227 110.637V111.082C123.227 111.574 123.293 112.023 123.426 112.43C123.559 112.836 123.754 113.184 124.012 113.473C124.27 113.762 124.582 113.988 124.949 114.152C125.316 114.316 125.734 114.398 126.203 114.398C126.781 114.398 127.332 114.289 127.855 114.07C128.379 113.844 128.832 113.492 129.215 113.016L130.926 114.973C130.668 115.348 130.305 115.711 129.836 116.062C129.375 116.406 128.82 116.688 128.172 116.906C127.523 117.125 126.789 117.234 125.969 117.234ZM136.691 106.98V117H133.035V104.32H136.469L136.691 106.98ZM136.223 110.215L135.297 110.238C135.297 109.348 135.402 108.531 135.613 107.789C135.832 107.039 136.148 106.387 136.562 105.832C136.977 105.277 137.488 104.848 138.098 104.543C138.715 104.238 139.426 104.086 140.23 104.086C140.793 104.086 141.305 104.172 141.766 104.344C142.227 104.508 142.621 104.77 142.949 105.129C143.285 105.48 143.543 105.941 143.723 106.512C143.902 107.074 143.992 107.75 143.992 108.539V117H140.336V108.984C140.336 108.422 140.266 107.996 140.125 107.707C139.992 107.41 139.797 107.207 139.539 107.098C139.281 106.988 138.973 106.934 138.613 106.934C138.223 106.934 137.875 107.02 137.57 107.191C137.273 107.355 137.023 107.586 136.82 107.883C136.617 108.18 136.465 108.527 136.363 108.926C136.27 109.324 136.223 109.754 136.223 110.215ZM143.617 110.027L142.457 110.121C142.457 109.262 142.559 108.465 142.762 107.73C142.965 106.996 143.27 106.359 143.676 105.82C144.082 105.273 144.586 104.848 145.188 104.543C145.797 104.238 146.504 104.086 147.309 104.086C147.902 104.086 148.441 104.172 148.926 104.344C149.418 104.516 149.84 104.793 150.191 105.176C150.551 105.559 150.828 106.062 151.023 106.688C151.219 107.305 151.316 108.062 151.316 108.961V117H147.637V108.961C147.637 108.406 147.566 107.984 147.426 107.695C147.293 107.406 147.098 107.207 146.84 107.098C146.59 106.988 146.289 106.934 145.938 106.934C145.547 106.934 145.207 107.016 144.918 107.18C144.629 107.336 144.387 107.555 144.191 107.836C143.996 108.109 143.852 108.434 143.758 108.809C143.664 109.184 143.617 109.59 143.617 110.027ZM157.434 106.758V121.875H153.777V104.32H157.188L157.434 106.758ZM165.344 110.52V110.766C165.344 111.688 165.238 112.543 165.027 113.332C164.816 114.113 164.5 114.797 164.078 115.383C163.664 115.969 163.152 116.426 162.543 116.754C161.934 117.074 161.227 117.234 160.422 117.234C159.656 117.234 158.992 117.074 158.43 116.754C157.875 116.426 157.406 115.973 157.023 115.395C156.648 114.809 156.344 114.141 156.109 113.391C155.883 112.633 155.707 111.824 155.582 110.965V110.484C155.707 109.57 155.887 108.723 156.121 107.941C156.355 107.16 156.66 106.484 157.035 105.914C157.41 105.336 157.875 104.887 158.43 104.566C158.984 104.246 159.645 104.086 160.41 104.086C161.207 104.086 161.914 104.238 162.531 104.543C163.148 104.848 163.664 105.285 164.078 105.855C164.5 106.418 164.816 107.094 165.027 107.883C165.238 108.672 165.344 109.551 165.344 110.52ZM161.676 110.766V110.52C161.676 110.004 161.637 109.531 161.559 109.102C161.48 108.664 161.355 108.285 161.184 107.965C161.012 107.637 160.785 107.383 160.504 107.203C160.223 107.023 159.879 106.934 159.473 106.934C159.035 106.934 158.664 107.004 158.359 107.145C158.055 107.285 157.809 107.492 157.621 107.766C157.434 108.031 157.297 108.359 157.211 108.75C157.133 109.141 157.09 109.586 157.082 110.086V111.375C157.09 111.961 157.172 112.484 157.328 112.945C157.492 113.398 157.746 113.754 158.09 114.012C158.441 114.262 158.91 114.387 159.496 114.387C159.91 114.387 160.254 114.297 160.527 114.117C160.809 113.93 161.031 113.668 161.195 113.332C161.367 112.996 161.488 112.609 161.559 112.172C161.637 111.734 161.676 111.266 161.676 110.766ZM171.145 104.32V117H167.477V104.32H171.145ZM167.254 101.039C167.254 100.508 167.441 100.074 167.816 99.7383C168.191 99.3945 168.684 99.2227 169.293 99.2227C169.902 99.2227 170.395 99.3945 170.77 99.7383C171.152 100.074 171.344 100.508 171.344 101.039C171.344 101.562 171.152 101.996 170.77 102.34C170.395 102.676 169.902 102.844 169.293 102.844C168.684 102.844 168.191 102.676 167.816 102.34C167.441 101.996 167.254 101.562 167.254 101.039ZM179.758 117.234C178.75 117.234 177.848 117.074 177.051 116.754C176.254 116.434 175.578 115.992 175.023 115.43C174.477 114.859 174.059 114.203 173.77 113.461C173.48 112.719 173.336 111.926 173.336 111.082V110.637C173.336 109.691 173.469 108.82 173.734 108.023C174 107.227 174.387 106.535 174.895 105.949C175.41 105.355 176.043 104.898 176.793 104.578C177.543 104.25 178.398 104.086 179.359 104.086C180.258 104.086 181.059 104.234 181.762 104.531C182.465 104.82 183.059 105.238 183.543 105.785C184.027 106.324 184.395 106.977 184.645 107.742C184.902 108.5 185.031 109.352 185.031 110.297V111.797H174.812V109.441H181.445V109.16C181.445 108.715 181.363 108.324 181.199 107.988C181.043 107.652 180.809 107.395 180.496 107.215C180.191 107.027 179.805 106.934 179.336 106.934C178.891 106.934 178.52 107.027 178.223 107.215C177.926 107.402 177.688 107.668 177.508 108.012C177.336 108.348 177.211 108.742 177.133 109.195C177.055 109.641 177.016 110.121 177.016 110.637V111.082C177.016 111.574 177.082 112.023 177.215 112.43C177.348 112.836 177.543 113.184 177.801 113.473C178.059 113.762 178.371 113.988 178.738 114.152C179.105 114.316 179.523 114.398 179.992 114.398C180.57 114.398 181.121 114.289 181.645 114.07C182.168 113.844 182.621 113.492 183.004 113.016L184.715 114.973C184.457 115.348 184.094 115.711 183.625 116.062C183.164 116.406 182.609 116.688 181.961 116.906C181.312 117.125 180.578 117.234 179.758 117.234ZM197.066 114.152V117H187.34V114.152H197.066ZM196.914 106.359L188.91 117H186.426V114.891L194.406 104.32H196.914V106.359ZM195.66 104.32V107.168H186.637V104.32H195.66ZM205.832 113.977V108.539C205.832 108.156 205.773 107.828 205.656 107.555C205.539 107.281 205.355 107.066 205.105 106.91C204.855 106.754 204.531 106.676 204.133 106.676C203.797 106.676 203.504 106.734 203.254 106.852C203.012 106.969 202.824 107.137 202.691 107.355C202.566 107.574 202.504 107.844 202.504 108.164H198.848C198.848 107.594 198.977 107.062 199.234 106.57C199.492 106.078 199.859 105.645 200.336 105.27C200.82 104.895 201.398 104.605 202.07 104.402C202.742 104.191 203.496 104.086 204.332 104.086C205.324 104.086 206.207 104.254 206.98 104.59C207.762 104.918 208.379 105.414 208.832 106.078C209.285 106.734 209.512 107.562 209.512 108.562V113.871C209.512 114.637 209.555 115.238 209.641 115.676C209.734 116.105 209.867 116.48 210.039 116.801V117H206.348C206.176 116.633 206.047 116.18 205.961 115.641C205.875 115.094 205.832 114.539 205.832 113.977ZM206.289 109.266L206.312 111.281H204.496C204.09 111.281 203.738 111.332 203.441 111.434C203.152 111.535 202.918 111.676 202.738 111.855C202.559 112.027 202.426 112.23 202.34 112.465C202.262 112.691 202.223 112.941 202.223 113.215C202.223 113.473 202.285 113.707 202.41 113.918C202.535 114.121 202.707 114.281 202.926 114.398C203.145 114.516 203.398 114.574 203.688 114.574C204.164 114.574 204.57 114.48 204.906 114.293C205.25 114.105 205.516 113.879 205.703 113.613C205.891 113.34 205.984 113.086 205.984 112.852L206.863 114.375C206.723 114.688 206.551 115.012 206.348 115.348C206.145 115.676 205.887 115.984 205.574 116.273C205.262 116.555 204.883 116.785 204.438 116.965C204 117.145 203.473 117.234 202.855 117.234C202.059 117.234 201.336 117.074 200.688 116.754C200.039 116.426 199.52 115.977 199.129 115.406C198.746 114.836 198.555 114.18 198.555 113.438C198.555 112.773 198.676 112.184 198.918 111.668C199.16 111.152 199.523 110.715 200.008 110.355C200.5 109.996 201.117 109.727 201.859 109.547C202.602 109.359 203.469 109.266 204.461 109.266H206.289ZM82.2344 141.977V136.539C82.2344 136.156 82.1758 135.828 82.0586 135.555C81.9414 135.281 81.7578 135.066 81.5078 134.91C81.2578 134.754 80.9336 134.676 80.5352 134.676C80.1992 134.676 79.9062 134.734 79.6562 134.852C79.4141 134.969 79.2266 135.137 79.0938 135.355C78.9688 135.574 78.9062 135.844 78.9062 136.164H75.25C75.25 135.594 75.3789 135.062 75.6367 134.57C75.8945 134.078 76.2617 133.645 76.7383 133.27C77.2227 132.895 77.8008 132.605 78.4727 132.402C79.1445 132.191 79.8984 132.086 80.7344 132.086C81.7266 132.086 82.6094 132.254 83.3828 132.59C84.1641 132.918 84.7812 133.414 85.2344 134.078C85.6875 134.734 85.9141 135.562 85.9141 136.562V141.871C85.9141 142.637 85.957 143.238 86.043 143.676C86.1367 144.105 86.2695 144.48 86.4414 144.801V145H82.75C82.5781 144.633 82.4492 144.18 82.3633 143.641C82.2773 143.094 82.2344 142.539 82.2344 141.977ZM82.6914 137.266L82.7148 139.281H80.8984C80.4922 139.281 80.1406 139.332 79.8438 139.434C79.5547 139.535 79.3203 139.676 79.1406 139.855C78.9609 140.027 78.8281 140.23 78.7422 140.465C78.6641 140.691 78.625 140.941 78.625 141.215C78.625 141.473 78.6875 141.707 78.8125 141.918C78.9375 142.121 79.1094 142.281 79.3281 142.398C79.5469 142.516 79.8008 142.574 80.0898 142.574C80.5664 142.574 80.9727 142.48 81.3086 142.293C81.6523 142.105 81.918 141.879 82.1055 141.613C82.293 141.34 82.3867 141.086 82.3867 140.852L83.2656 142.375C83.125 142.688 82.9531 143.012 82.75 143.348C82.5469 143.676 82.2891 143.984 81.9766 144.273C81.6641 144.555 81.2852 144.785 80.8398 144.965C80.4023 145.145 79.875 145.234 79.2578 145.234C78.4609 145.234 77.7383 145.074 77.0898 144.754C76.4414 144.426 75.9219 143.977 75.5312 143.406C75.1484 142.836 74.957 142.18 74.957 141.438C74.957 140.773 75.0781 140.184 75.3203 139.668C75.5625 139.152 75.9258 138.715 76.4102 138.355C76.9023 137.996 77.5195 137.727 78.2617 137.547C79.0039 137.359 79.8711 137.266 80.8633 137.266H82.6914ZM97.8672 127V145H94.2109V127H97.8672ZM97.3867 138.215L96.4727 138.238C96.4727 137.348 96.582 136.531 96.8008 135.789C97.0273 135.039 97.3477 134.387 97.7617 133.832C98.1758 133.277 98.6719 132.848 99.25 132.543C99.8359 132.238 100.48 132.086 101.184 132.086C101.809 132.086 102.379 132.176 102.895 132.355C103.41 132.535 103.855 132.82 104.23 133.211C104.605 133.602 104.895 134.113 105.098 134.746C105.301 135.379 105.402 136.148 105.402 137.055V145H101.723V137.031C101.723 136.492 101.645 136.07 101.488 135.766C101.34 135.461 101.121 135.246 100.832 135.121C100.551 134.996 100.207 134.934 99.8008 134.934C99.3242 134.934 98.9297 135.02 98.6172 135.191C98.3047 135.355 98.0586 135.586 97.8789 135.883C97.6992 136.18 97.5703 136.527 97.4922 136.926C97.4219 137.324 97.3867 137.754 97.3867 138.215ZM114.508 141.977V136.539C114.508 136.156 114.449 135.828 114.332 135.555C114.215 135.281 114.031 135.066 113.781 134.91C113.531 134.754 113.207 134.676 112.809 134.676C112.473 134.676 112.18 134.734 111.93 134.852C111.688 134.969 111.5 135.137 111.367 135.355C111.242 135.574 111.18 135.844 111.18 136.164H107.523C107.523 135.594 107.652 135.062 107.91 134.57C108.168 134.078 108.535 133.645 109.012 133.27C109.496 132.895 110.074 132.605 110.746 132.402C111.418 132.191 112.172 132.086 113.008 132.086C114 132.086 114.883 132.254 115.656 132.59C116.438 132.918 117.055 133.414 117.508 134.078C117.961 134.734 118.188 135.562 118.188 136.562V141.871C118.188 142.637 118.23 143.238 118.316 143.676C118.41 144.105 118.543 144.48 118.715 144.801V145H115.023C114.852 144.633 114.723 144.18 114.637 143.641C114.551 143.094 114.508 142.539 114.508 141.977ZM114.965 137.266L114.988 139.281H113.172C112.766 139.281 112.414 139.332 112.117 139.434C111.828 139.535 111.594 139.676 111.414 139.855C111.234 140.027 111.102 140.23 111.016 140.465C110.938 140.691 110.898 140.941 110.898 141.215C110.898 141.473 110.961 141.707 111.086 141.918C111.211 142.121 111.383 142.281 111.602 142.398C111.82 142.516 112.074 142.574 112.363 142.574C112.84 142.574 113.246 142.48 113.582 142.293C113.926 142.105 114.191 141.879 114.379 141.613C114.566 141.34 114.66 141.086 114.66 140.852L115.539 142.375C115.398 142.688 115.227 143.012 115.023 143.348C114.82 143.676 114.562 143.984 114.25 144.273C113.938 144.555 113.559 144.785 113.113 144.965C112.676 145.145 112.148 145.234 111.531 145.234C110.734 145.234 110.012 145.074 109.363 144.754C108.715 144.426 108.195 143.977 107.805 143.406C107.422 142.836 107.23 142.18 107.23 141.438C107.23 140.773 107.352 140.184 107.594 139.668C107.836 139.152 108.199 138.715 108.684 138.355C109.176 137.996 109.793 137.727 110.535 137.547C111.277 137.359 112.145 137.266 113.137 137.266H114.965ZM120.602 127H124.258V141.988L123.883 145H120.602V127ZM132.168 138.52V138.766C132.168 139.727 132.066 140.602 131.863 141.391C131.668 142.18 131.367 142.863 130.961 143.441C130.555 144.012 130.043 144.453 129.426 144.766C128.809 145.078 128.082 145.234 127.246 145.234C126.473 145.234 125.809 145.074 125.254 144.754C124.699 144.426 124.234 143.973 123.859 143.395C123.484 142.816 123.18 142.141 122.945 141.367C122.719 140.594 122.543 139.762 122.418 138.871V138.449C122.543 137.559 122.719 136.727 122.945 135.953C123.18 135.18 123.484 134.504 123.859 133.926C124.234 133.348 124.695 132.898 125.242 132.578C125.797 132.25 126.457 132.086 127.223 132.086C128.066 132.086 128.797 132.246 129.414 132.566C130.039 132.887 130.555 133.336 130.961 133.914C131.367 134.484 131.668 135.164 131.863 135.953C132.066 136.734 132.168 137.59 132.168 138.52ZM128.512 138.766V138.52C128.512 138.035 128.477 137.578 128.406 137.148C128.344 136.719 128.23 136.34 128.066 136.012C127.91 135.676 127.688 135.414 127.398 135.227C127.117 135.031 126.754 134.934 126.309 134.934C125.871 134.934 125.5 135.008 125.195 135.156C124.891 135.305 124.645 135.516 124.457 135.789C124.27 136.055 124.133 136.379 124.047 136.762C123.961 137.145 123.914 137.57 123.906 138.039V139.281C123.914 139.906 123.996 140.453 124.152 140.922C124.309 141.391 124.562 141.754 124.914 142.012C125.266 142.262 125.738 142.387 126.332 142.387C126.785 142.387 127.152 142.301 127.434 142.129C127.723 141.949 127.941 141.699 128.09 141.379C128.246 141.059 128.355 140.676 128.418 140.23C128.48 139.785 128.512 139.297 128.512 138.766ZM137.969 127V145H134.301V127H137.969ZM147.32 141.977V136.539C147.32 136.156 147.262 135.828 147.145 135.555C147.027 135.281 146.844 135.066 146.594 134.91C146.344 134.754 146.02 134.676 145.621 134.676C145.285 134.676 144.992 134.734 144.742 134.852C144.5 134.969 144.312 135.137 144.18 135.355C144.055 135.574 143.992 135.844 143.992 136.164H140.336C140.336 135.594 140.465 135.062 140.723 134.57C140.98 134.078 141.348 133.645 141.824 133.27C142.309 132.895 142.887 132.605 143.559 132.402C144.23 132.191 144.984 132.086 145.82 132.086C146.812 132.086 147.695 132.254 148.469 132.59C149.25 132.918 149.867 133.414 150.32 134.078C150.773 134.734 151 135.562 151 136.562V141.871C151 142.637 151.043 143.238 151.129 143.676C151.223 144.105 151.355 144.48 151.527 144.801V145H147.836C147.664 144.633 147.535 144.18 147.449 143.641C147.363 143.094 147.32 142.539 147.32 141.977ZM147.777 137.266L147.801 139.281H145.984C145.578 139.281 145.227 139.332 144.93 139.434C144.641 139.535 144.406 139.676 144.227 139.855C144.047 140.027 143.914 140.23 143.828 140.465C143.75 140.691 143.711 140.941 143.711 141.215C143.711 141.473 143.773 141.707 143.898 141.918C144.023 142.121 144.195 142.281 144.414 142.398C144.633 142.516 144.887 142.574 145.176 142.574C145.652 142.574 146.059 142.48 146.395 142.293C146.738 142.105 147.004 141.879 147.191 141.613C147.379 141.34 147.473 141.086 147.473 140.852L148.352 142.375C148.211 142.688 148.039 143.012 147.836 143.348C147.633 143.676 147.375 143.984 147.062 144.273C146.75 144.555 146.371 144.785 145.926 144.965C145.488 145.145 144.961 145.234 144.344 145.234C143.547 145.234 142.824 145.074 142.176 144.754C141.527 144.426 141.008 143.977 140.617 143.406C140.234 142.836 140.043 142.18 140.043 141.438C140.043 140.773 140.164 140.184 140.406 139.668C140.648 139.152 141.012 138.715 141.496 138.355C141.988 137.996 142.605 137.727 143.348 137.547C144.09 137.359 144.957 137.266 145.949 137.266H147.777ZM157.07 135.273V145H153.414V132.32H156.848L157.07 135.273ZM160.855 132.227L160.797 135.637C160.641 135.613 160.438 135.594 160.188 135.578C159.938 135.555 159.723 135.543 159.543 135.543C159.074 135.543 158.668 135.602 158.324 135.719C157.988 135.828 157.707 135.992 157.48 136.211C157.262 136.43 157.098 136.703 156.988 137.031C156.879 137.352 156.824 137.723 156.824 138.145L156.133 137.805C156.133 136.969 156.215 136.203 156.379 135.508C156.543 134.812 156.781 134.211 157.094 133.703C157.406 133.188 157.789 132.789 158.242 132.508C158.695 132.227 159.211 132.086 159.789 132.086C159.977 132.086 160.168 132.098 160.363 132.121C160.559 132.145 160.723 132.18 160.855 132.227ZM166.469 127.938L166.023 139.691H163.012L162.566 127.938H166.469ZM162.461 143.336C162.461 142.812 162.648 142.371 163.023 142.012C163.398 141.652 163.895 141.473 164.512 141.473C165.121 141.473 165.609 141.652 165.977 142.012C166.352 142.371 166.539 142.812 166.539 143.336C166.539 143.867 166.352 144.312 165.977 144.672C165.609 145.023 165.121 145.199 164.512 145.199C163.895 145.199 163.398 145.023 163.023 144.672C162.648 144.312 162.461 143.867 162.461 143.336Z" fill="white"/>
</svg>
