<svg width="30" height="29" viewBox="0 0 30 29" fill="none" xmlns="http://www.w3.org/2000/svg">
<path d="M0 22.1527V7.84727C0 3.53122 3.53122 0 7.84728 0H22.1527C26.4688 0 30 3.53122 30 7.84727V22.1527C30 26.4688 26.4688 30 22.1527 30H7.84728C3.53122 30 0 26.4688 0 22.1527Z" fill="url(#paint0_linear_101_1295)"/>
<path d="M19.6568 9.34619C19.0874 9.34619 18.6257 9.80786 18.6257 10.3772C18.6257 10.9466 19.0874 11.4083 19.6568 11.4083C20.2262 11.4083 20.6878 10.9466 20.6878 10.3772C20.6878 9.80786 20.2262 9.34619 19.6568 9.34619Z" fill="white"/>
<path d="M15.0719 10.6685C12.6836 10.6685 10.7405 12.6116 10.7405 14.9999C10.7405 17.3882 12.6836 19.3313 15.0719 19.3313C17.4603 19.3313 19.4034 17.3882 19.4034 14.9999C19.4034 12.6116 17.4603 10.6685 15.0719 10.6685ZM15.0719 17.775C13.5423 17.775 12.2968 16.5306 12.2968 15.0009C12.2968 13.4713 13.5412 12.2268 15.0719 12.2268C16.6016 12.2268 17.846 13.4713 17.846 15.0009C17.847 16.5295 16.6026 17.775 15.0719 17.775Z" fill="white"/>
<path d="M18.5107 23.7939H11.4883C8.57569 23.7939 6.20581 21.424 6.20581 18.5114V11.489C6.20581 8.5754 8.57569 6.20654 11.4883 6.20654H18.5107C21.4233 6.20654 23.7942 8.57642 23.7942 11.489V18.5114C23.7942 21.424 21.4243 23.7939 18.5107 23.7939ZM11.4893 7.86033C9.48876 7.86033 7.86062 9.48744 7.86062 11.489V18.5114C7.86062 20.512 9.48773 22.1401 11.4893 22.1401H18.5117C20.5123 22.1401 22.1404 20.513 22.1404 18.5114V11.489C22.1404 9.48847 20.5123 7.86033 18.5117 7.86033H11.4893Z" fill="white"/>
<defs>
<linearGradient id="paint0_linear_101_1295" x1="30.3095" y1="-0.309316" x2="-8.49001" y2="38.4902" gradientUnits="userSpaceOnUse">
<stop offset="0.0011" stop-color="#FBE18A"/>
<stop offset="0.2094" stop-color="#FCBB45"/>
<stop offset="0.3765" stop-color="#F75274"/>
<stop offset="0.5238" stop-color="#D53692"/>
<stop offset="0.7394" stop-color="#8F39CE"/>
<stop offset="1" stop-color="#5B4FE9"/>
</linearGradient>
</defs>
</svg>
