<svg width="30" height="29" viewBox="0 0 30 29" fill="none" xmlns="http://www.w3.org/2000/svg">
<path d="M0 22.1527V7.84728C0 3.53122 3.53122 0 7.84728 0H22.1527C26.4688 0 30 3.53122 30 7.84728V22.1527C30 26.4688 26.4688 30 22.1527 30H7.84728C3.53122 30.001 0 26.4688 0 22.1527Z" fill="url(#paint0_linear_101_1288)"/>
<path d="M6.89526 23.4887L8.14586 18.8218C7.43798 17.5445 7.06557 16.1123 7.06557 14.6596C7.06557 9.9086 10.9312 6.04395 15.6813 6.04395C20.4323 6.04395 24.297 9.90962 24.297 14.6596C24.297 19.4107 20.4313 23.2753 15.6813 23.2753C14.2552 23.2753 12.8466 22.9152 11.5858 22.2309L6.89526 23.4887ZM11.8187 20.4838L12.1141 20.6603C13.1985 21.3066 14.4317 21.6482 15.6813 21.6482C19.5346 21.6482 22.6688 18.514 22.6688 14.6607C22.6688 10.8073 19.5346 7.67311 15.6813 7.67311C11.8289 7.67311 8.69371 10.8073 8.69371 14.6607C8.69371 15.9328 9.04663 17.1855 9.71553 18.2832L9.89711 18.5807L9.19949 21.1855L11.8187 20.4838Z" fill="white"/>
<path fill-rule="evenodd" clip-rule="evenodd" d="M18.8873 15.8587C18.5323 15.6464 18.0717 15.4094 17.6531 15.5807C17.333 15.712 17.1279 16.2137 16.9206 16.4702C16.8139 16.6015 16.6867 16.622 16.5236 16.5563C15.3202 16.0772 14.3989 15.2739 13.7341 14.167C13.6213 13.9946 13.6418 13.8592 13.7772 13.7002C13.9783 13.4642 14.2296 13.1954 14.284 12.8774C14.3384 12.5594 14.1886 12.1869 14.0573 11.9038C13.889 11.5416 13.7013 11.0256 13.3381 10.8204C13.0047 10.6317 12.5656 10.7373 12.2681 10.9794C11.7551 11.397 11.5079 12.0515 11.515 12.6999C11.5171 12.8846 11.5397 13.0682 11.5827 13.2457C11.6864 13.6735 11.8844 14.0726 12.106 14.4522C12.2732 14.7384 12.4558 15.0164 12.6528 15.2832C13.296 16.1573 14.0973 16.9175 15.0237 17.4848C15.4864 17.769 15.986 18.0173 16.502 18.1876C17.0817 18.3794 17.5977 18.5784 18.2235 18.4594C18.8791 18.3353 19.5244 17.9301 19.785 17.2981C19.8619 17.1114 19.8999 16.9031 19.8568 16.7061C19.7696 16.2988 19.2166 16.0557 18.8873 15.8587Z" fill="white"/>
<defs>
<linearGradient id="paint0_linear_101_1288" x1="27.6952" y1="2.30514" x2="2.30494" y2="27.6954" gradientUnits="userSpaceOnUse">
<stop stop-color="#60FC7C"/>
<stop offset="1" stop-color="#4AB161"/>
</linearGradient>
</defs>
</svg>
