<svg width="30" height="29" viewBox="0 0 30 29" fill="none" xmlns="http://www.w3.org/2000/svg">
<path d="M0 22.1527V7.84728C0 3.53122 3.53122 0 7.84728 0H22.1527C26.4688 0 30 3.53122 30 7.84728V22.1527C30 26.4688 26.4688 30 22.1527 30H7.84728C3.53122 30 0 26.4688 0 22.1527Z" fill="url(#paint0_linear_101_1292)"/>
<path d="M23.031 12.8188C23.031 10.8295 21.4182 9.2168 19.4289 9.2168H10.2182C8.22896 9.2168 6.61621 10.8295 6.61621 12.8188V17.1051C6.61621 19.0944 8.22896 20.7071 10.2182 20.7071H19.4289C21.4182 20.7071 23.031 19.0944 23.031 17.1051V12.8188ZM17.6141 15.2831L13.4837 17.3267C13.3216 17.4139 12.7717 17.297 12.7717 17.1133V12.9183C12.7717 12.7316 13.3268 12.6146 13.4889 12.707L17.4428 14.8583C17.6079 14.9527 17.7823 15.1928 17.6141 15.2831Z" fill="white"/>
<defs>
<linearGradient id="paint0_linear_101_1292" x1="27.6952" y1="2.30504" x2="2.30484" y2="27.6954" gradientUnits="userSpaceOnUse">
<stop stop-color="#FF0000"/>
<stop offset="1" stop-color="#850000"/>
</linearGradient>
</defs>
</svg>
